<svg width="100" height="100" viewBox="0 0 100 100" fill="none" xmlns="http://www.w3.org/2000/svg">
<g clip-path="url(#clip0_124_2135)">
<path d="M23.24 5.33001C24.06 2.97001 26.78 2.64001 28.86 2.10001C29.98 7.76001 33.19 12.55 36.82 16.91C36.15 18.04 35.45 19.15 34.72 20.25C30.57 18.88 27.28 15.76 25.03 12.08C24.23 9.92001 22.88 7.70001 23.24 5.33001Z" fill="#DAFFBF" stroke="#DAFFBF" stroke-width="0.09375"/>
<path d="M28.8601 2.10001C33.2501 1.32001 38.0001 1.77001 41.8101 4.23001C45.2301 6.31001 47.4601 9.74001 49.4601 13.1C49.9501 15.6 49.6901 18.14 48.3301 20.34C44.2801 20.82 40.2001 21.18 36.1301 20.69C35.7801 20.58 35.0801 20.36 34.7201 20.25C35.4501 19.15 36.1501 18.04 36.8201 16.91C33.1901 12.55 29.9801 7.76001 28.8601 2.10001Z" fill="#BEFA91" stroke="#BEFA91" stroke-width="0.09375"/>
<path d="M49.4601 13.1C51.0201 8.67999 53.4301 4.39999 57.1301 1.42999C57.6301 1.52999 58.6301 1.74999 59.1301 1.85999L59.3801 2.84999C57.4701 6.60999 54.0401 9.54999 52.8701 13.76C52.3201 15.75 51.9101 17.77 51.6101 19.81C51.4501 22.64 51.6701 25.47 51.9501 28.28C50.6001 28.78 49.1601 28.74 47.8101 28.28C47.8501 25.63 47.8701 22.96 48.3301 20.34C49.6901 18.14 49.9501 15.6 49.4601 13.1Z" fill="#9CEB63" stroke="#9CEB63" stroke-width="0.09375"/>
<path d="M7.39 21.43C11.63 15.9 18.4 13.34 25.03 12.08C27.28 15.76 30.57 18.88 34.72 20.25C35.08 20.36 35.78 20.58 36.13 20.69C31.33 20.72 25.88 22.8 24 27.57C21.56 27.09 19.46 28.02 19.07 30.65C19.76 30.77 21.14 31.02 21.83 31.14C20.5 32.22 19.1 33.21 17.7 34.2C13.77 35.82 13.51 40.38 12.93 44.01C12.25 48.53 12.51 53.17 13.95 57.52C15.01 62.4 15.46 67.39 16.83 72.21C17.37 74.8 18.56 78.12 16.2 80.2C14.33 82.27 11.36 81.41 8.94 81.28C3.87 72.81 1.47 63.08 0 53.4V40.59C1.09 33.8 2.93 26.83 7.39 21.43Z" fill="#FF6D7A" stroke="#FF6D7A" stroke-width="0.09375"/>
<path d="M52.8701 13.76C60.3201 12.68 67.8801 11.14 75.4101 12.48C75.3601 14.86 76.5801 18.52 73.5401 19.57C66.4901 22.14 58.8701 20.19 51.6101 19.81C51.9101 17.77 52.3201 15.75 52.8701 13.76Z" fill="#FF6D7A" stroke="#FF6D7A" stroke-width="0.09375"/>
<path d="M75.4099 12.48C81.4199 13.41 87.4399 15.8 91.5399 20.45C97.1099 26.43 99.0399 34.69 99.9999 42.56V51.41C98.4199 65.64 93.9699 80.3 83.8299 90.83C78.3899 96.6 70.0999 100.06 62.1899 98.04C56.8599 97.22 51.7599 92.71 46.2599 95.24C40.3399 97.72 33.7299 99.75 27.3299 97.86C19.0099 95.49 13.2199 88.41 8.93994 81.28C11.3599 81.41 14.3299 82.27 16.1999 80.2C18.5599 78.12 17.3699 74.8 16.8299 72.21C15.4599 67.39 15.0099 62.4 13.9499 57.52C14.5299 57.11 15.6899 56.28 16.2599 55.86C16.2599 52.9 16.0699 49.94 16.2599 46.98C16.3799 42.68 17.9699 38.53 17.6999 34.2C19.0999 33.21 20.4999 32.22 21.8299 31.14C22.8299 30.13 23.3999 28.83 23.9999 27.57C25.8799 22.8 31.3299 20.72 36.1299 20.69C40.1999 21.18 44.2799 20.82 48.3299 20.34C47.8699 22.96 47.8499 25.63 47.8099 28.28C45.5099 27.84 42.6799 24.83 40.6899 27.05C41.4699 29.96 44.6399 31.08 47.2099 31.92C51.0499 33.25 55.2299 31.58 58.1999 29.1C59.5799 28.16 58.4399 26.45 58.3299 25.19C56.1799 26.19 54.0999 27.31 51.9499 28.28C51.6699 25.47 51.4499 22.64 51.6099 19.81C58.8699 20.19 66.4899 22.14 73.5399 19.57C76.5799 18.52 75.3599 14.86 75.4099 12.48Z" fill="#FE4F60" stroke="#FE4F60" stroke-width="0.09375"/>
<path d="M51.9499 28.28C54.0999 27.31 56.1799 26.19 58.3299 25.19C58.4399 26.45 59.5799 28.16 58.1999 29.1C55.2299 31.58 51.0499 33.25 47.2099 31.92C44.6399 31.08 41.4699 29.96 40.6899 27.05C42.6799 24.83 45.5099 27.84 47.8099 28.28C49.1599 28.74 50.5999 28.78 51.9499 28.28Z" fill="#E84857" stroke="#E84857" stroke-width="0.09375"/>
<path d="M19.0701 30.65C19.4601 28.02 21.5601 27.09 24.0001 27.57C23.4001 28.83 22.8301 30.13 21.8301 31.14C21.1401 31.02 19.7601 30.77 19.0701 30.65Z" fill="white" stroke="white" stroke-width="0.09375"/>
<path d="M12.9301 44.01C13.5101 40.38 13.7701 35.82 17.7001 34.2C17.9701 38.53 16.3801 42.68 16.2601 46.98C16.0701 49.94 16.2601 52.9 16.2601 55.86C15.6901 56.28 14.5301 57.11 13.9501 57.52C12.5101 53.17 12.2501 48.53 12.9301 44.01Z" fill="white" stroke="white" stroke-width="0.09375"/>
</g>
<defs>
<clipPath id="clip0_124_2135">
<rect width="100" height="100" fill="white"/>
</clipPath>
</defs>
</svg>
