<svg width="100" height="100" viewBox="0 0 100 100" fill="none" xmlns="http://www.w3.org/2000/svg">
<path d="M58.6701 7.1C60.3901 4.89 63.3901 1.93 66.4001 3.55C70.0201 4.83 70.3001 9.12 71.6701 12.16C70.4101 13.78 69.1101 15.37 67.6601 16.83C66.6501 17.8 65.6101 18.73 64.5701 19.67C63.1101 19.55 61.6401 19.48 60.2001 19.22C58.3801 17.83 59.2901 15.44 59.5501 13.58C60.3401 11.34 58.3201 9.33 58.6701 7.1Z" fill="#724B46" stroke="#724B46" stroke-width="0.09375"/>
<path d="M67.6599 16.83C69.1099 15.37 70.4099 13.78 71.6699 12.16C74.2399 17.01 80.5499 17.07 83.7899 21.21C89.6499 27.97 90.9099 37.4 90.9199 46.03C90.8499 59.23 84.1599 71.78 74.1899 80.22C62.0099 90.6 46.1999 97.71 29.9499 96.74C25.6899 96.59 21.6199 95.18 17.8999 93.18C19.1499 91.49 20.3899 89.78 21.5599 88.03C27.4999 87.65 33.5699 87.9 39.3299 86.17C51.7399 82.81 63.4599 75.41 70.2999 64.33C74.0099 58.57 75.3099 51.74 77.0899 45.23C78.1199 42.18 78.2599 38.9 77.0099 35.88C75.0699 29.01 71.5399 22.77 67.6599 16.83Z" fill="#EDB740" stroke="#EDB740" stroke-width="0.09375"/>
<path d="M64.5699 19.67C65.6099 18.73 66.6499 17.8 67.6599 16.83C71.5399 22.77 75.0699 29.01 77.0099 35.88C77.1199 39 77.1399 42.12 77.0899 45.23C75.3099 51.74 74.0099 58.57 70.2999 64.33C63.4599 75.41 51.7399 82.81 39.3299 86.17C33.5699 87.9 27.4999 87.65 21.5599 88.03C21.3599 87.3 20.9399 85.84 20.7399 85.1C20.6499 84.6 20.4799 83.6 20.3999 83.09C21.0399 82.95 22.3199 82.65 22.9599 82.51C34.6899 79.32 47.1699 75.91 55.9899 66.99C58.7699 64.51 60.7899 61.33 62.2299 57.91C62.8699 56.61 63.4699 55.29 64.0399 53.96C67.2199 47.72 68.9599 40.61 67.6399 33.63C68.7999 28.76 68.2799 23.37 64.5699 19.67Z" fill="#F9D438" stroke="#F9D438" stroke-width="0.09375"/>
<path d="M67.6399 33.63C68.9599 40.61 67.22 47.72 64.04 53.96C64.03 53.46 64 52.45 63.9799 51.95C59.52 55.84 55.67 60.55 50.34 63.34C45.4 66.22 39.76 67.52 34.15 68.27C27.55 69.16 21.11 70.96 14.88 73.31C13.8 72.38 12.76 71.41 11.7 70.46C22.12 64.26 35.17 66.58 45.66 60.63C56.2 54.96 63.4599 44.62 67.6399 33.63Z" fill="#DBCE6E" stroke="#DBCE6E" stroke-width="0.09375"/>
<path opacity="0.79" d="M77.01 35.88C78.26 38.9 78.12 42.18 77.09 45.23C77.14 42.12 77.12 39 77.01 35.88Z" fill="#BE9930" stroke="#BE9930" stroke-width="0.09375"/>
<path d="M50.3399 63.34C55.6699 60.55 59.5199 55.84 63.9799 51.95C63.9999 52.45 64.0299 53.46 64.0399 53.96C63.4699 55.29 62.8699 56.61 62.2299 57.91C56.8899 62.17 51.3899 66.38 45.0399 69.04C39.6199 71.35 33.8899 72.88 28.1099 74.02C23.7299 74.1 19.0399 75.21 14.8799 73.31C21.1099 70.96 27.5499 69.16 34.1499 68.27C39.7599 67.52 45.3999 66.22 50.3399 63.34Z" fill="#FFF27D" stroke="#FFF27D" stroke-width="0.09375"/>
<path d="M45.0401 69.04C51.3901 66.38 56.8901 62.17 62.2301 57.91C60.7901 61.33 58.7701 64.51 55.9901 66.99C47.1701 75.91 34.6901 79.32 22.9601 82.51C19.0501 83.12 15.2201 81.59 12.5601 78.71C13.4501 77.4 14.3301 76.1 15.2001 74.79C19.5101 74.72 23.8601 74.83 28.1101 74.02C33.8901 72.88 39.6201 71.35 45.0401 69.04Z" fill="#EDB740" stroke="#EDB740" stroke-width="0.09375"/>
<path d="M9.14006 74.8C8.59006 72.79 10.4001 71.58 11.7001 70.46C12.7601 71.41 13.8001 72.38 14.8801 73.31C19.0401 75.21 23.7301 74.1 28.1101 74.02C23.8601 74.83 19.5101 74.72 15.2001 74.79C14.3301 76.1 13.4501 77.4 12.5601 78.71C11.3901 77.43 10.1101 76.24 9.14006 74.8Z" fill="#774E49" stroke="#774E49" stroke-width="0.09375"/>
<path d="M15.8501 85.8C17.1201 85 20.0001 82.68 20.7401 85.1C20.9401 85.84 21.3601 87.3 21.5601 88.03C20.3901 89.78 19.1501 91.49 17.9001 93.18C15.2601 91.69 13.4101 88.37 15.8501 85.8Z" fill="#774E49" stroke="#774E49" stroke-width="0.09375"/>
</svg>
