<svg width="100" height="100" viewBox="0 0 100 100" fill="none" xmlns="http://www.w3.org/2000/svg">
<path d="M8.27002 3.10998C12.54 0.979983 17.4 1.62998 22 1.52998C26.52 1.60998 31.3 1.01998 35.5 3.10998C26.72 5.63998 17.03 5.79998 8.27002 3.10998Z" fill="#FFFEF2" stroke="#FFFEF2" stroke-width="0.09375"/>
<path d="M4.38 7.35001C5.14 5.67001 6.3 4.23001 7.56 2.89001L8.27001 3.11001C17.03 5.80001 26.72 5.64001 35.5 3.11001L36.18 2.92001C37.59 4.30001 38.88 5.85001 39.34 7.82001C38.52 7.84001 36.89 7.87001 36.07 7.89001C34.01 7.90001 31.95 7.91001 29.89 7.91001C29.46 7.91001 28.62 7.92001 28.19 7.92001C27.46 8.37001 26.74 8.84001 26.03 9.34001C22.22 7.52001 17.93 7.80001 13.82 7.78001C10.67 7.76002 7.52 7.63001 4.38 7.35001Z" fill="#F3ECD9" stroke="#F3ECD9" stroke-width="0.09375"/>
<path d="M1.69995 19.62C1.95995 15.41 2.83995 11.27 4.37995 7.34998C7.51995 7.62998 10.67 7.75998 13.82 7.77998C12.6 11.84 11.63 15.97 10.88 20.14C7.80995 20.13 4.74995 19.93 1.69995 19.62Z" fill="#B07E53" stroke="#B07E53" stroke-width="0.09375"/>
<path d="M13.82 7.78001C17.93 7.80001 22.22 7.52001 26.03 9.34001C26.56 13 27.36 16.6 28.02 20.23C22.31 19.99 16.59 20.09 10.88 20.14C11.63 15.97 12.6 11.84 13.82 7.78001Z" fill="#CD9361" stroke="#CD9361" stroke-width="0.09375"/>
<path d="M26.03 9.33998C26.74 8.83998 27.46 8.36998 28.19 7.91998C29.39 11.99 30.19 16.15 31.03 20.31C30.28 20.29 28.77 20.25 28.02 20.23C27.36 16.6 26.56 13 26.03 9.33998Z" fill="white" stroke="white" stroke-width="0.09375"/>
<path d="M28.1899 7.91997C28.6199 7.91997 29.4599 7.90997 29.8899 7.90997C31.2399 11.96 32.0199 16.17 32.8799 20.35C32.4099 20.34 31.4899 20.32 31.0299 20.31C30.1899 16.15 29.3899 11.99 28.1899 7.91997Z" fill="#CD9361" stroke="#CD9361" stroke-width="0.09375"/>
<path d="M29.89 7.91001C31.95 7.91001 34.01 7.90001 36.07 7.89001C37.16 12.01 38.07 16.17 39.01 20.33C36.97 20.35 34.92 20.37 32.88 20.35C32.02 16.17 31.24 11.96 29.89 7.91001Z" fill="white" stroke="white" stroke-width="0.09375"/>
<path d="M36.0699 7.89001C36.8899 7.87001 38.5199 7.84001 39.3399 7.82001C40.8899 11.68 41.6099 15.79 41.8899 19.92C41.1699 20.02 39.7299 20.23 39.0099 20.33C38.0699 16.17 37.1599 12.01 36.0699 7.89001Z" fill="#CD9361" stroke="#CD9361" stroke-width="0.09375"/>
<path d="M48.18 18.22C50.67 16.34 53.8599 17.44 56.2099 18.95C59.0699 16.74 62.8299 16.81 65.6999 18.96C68.4799 16.7 72.2299 16.8 75.0199 18.98C78.3499 16.14 84.15 16.86 85.55 21.37C86.42 25.97 85.61 30.71 86.08 35.36C83.95 37.48 81.1299 37.89 78.3099 37.07C77.8399 38.84 77.3599 40.6 76.8799 42.37C76.1899 42.34 74.81 42.29 74.12 42.27C73.17 41.25 72.2299 40.23 71.3099 39.19C70.0599 39.02 68.82 38.85 67.57 38.69C66.8099 37.72 66.06 36.74 65.3 35.77C63.02 35.89 60.73 36.04 58.45 35.83C56.85 32.86 56.5399 29.23 54.4199 26.55C51.5999 23.88 47.96 26.42 45.2 27.8C45.37 24.48 44.8 20.2 48.18 18.22Z" fill="#FFFBF0" stroke="#FFFBF0" stroke-width="0.09375"/>
<path d="M5.59002 55.43C2.64002 43.75 0.460018 31.7 1.70002 19.62C4.75002 19.93 7.81002 20.13 10.88 20.14C16.59 20.09 22.31 19.99 28.02 20.23C28.77 20.25 30.28 20.29 31.03 20.31C31.49 20.32 32.41 20.34 32.88 20.35C34.92 20.37 36.97 20.35 39.01 20.33C29.77 21.74 20.42 20.25 11.13 21.04C9.96002 33.66 12.94 46.05 15.74 58.25C17.49 65.04 15.89 73.33 21.32 78.68C25.03 82.74 30.86 82.88 35.95 83.21C35.99 85.16 35.99 87.12 35.98 89.08C29.15 89.07 22.32 89.1 15.48 89.07C12.85 89.03 10.22 88.99 7.59002 88.97C7.49002 77.78 8.62002 66.36 5.59002 55.43Z" fill="#402514" stroke="#402514" stroke-width="0.09375"/>
<path d="M39.01 20.33C39.73 20.23 41.17 20.02 41.89 19.92C43.06 32.41 40.7 44.8 37.66 56.86C35.31 65.45 36.02 74.41 35.95 83.21C30.86 82.88 25.03 82.74 21.32 78.68C15.89 73.33 17.49 65.04 15.74 58.25C12.94 46.05 9.95999 33.66 11.13 21.04C20.42 20.25 29.77 21.74 39.01 20.33ZM34.26 24.87L34.6 25.53C33.13 26.63 32.79 28.32 32.7 30.05C32.2 38.89 29.77 47.44 28.05 56.09C26.52 63.64 26.19 71.41 27.07 79.06C28.83 79.22 31.11 80.36 32.2 78.31C33.16 75.32 32.75 72.1 32.9 69.01C32.85 55.09 39.05 41.95 38.9 28.04C39.25 25.22 36.19 25.3 34.26 24.87Z" fill="#57321B" stroke="#57321B" stroke-width="0.09375"/>
<path d="M34.26 24.87C36.19 25.3 39.25 25.22 38.9 28.04C39.05 41.95 32.85 55.09 32.9 69.01C32.75 72.1 33.16 75.32 32.2 78.31C31.11 80.36 28.83 79.22 27.07 79.06C26.19 71.41 26.52 63.64 28.05 56.09C29.77 47.44 32.2 38.89 32.7 30.05C33.6 29.86 35.41 29.49 36.31 29.31C35.79 28.03 35.24 26.76 34.6 25.53L34.26 24.87ZM32.81 32.81C32.81 33.61 32.82 35.21 32.83 36C33.61 35.99 35.18 35.97 35.96 35.96C35.97 35.17 35.99 33.61 36 32.83C35.2 32.82 33.6 32.81 32.81 32.81Z" fill="#825031" stroke="#825031" stroke-width="0.09375"/>
<path d="M45.2 27.8C47.96 26.42 51.6 23.88 54.42 26.55C56.54 29.23 56.85 32.86 58.45 35.83C60.73 36.04 63.02 35.89 65.3 35.77C66.06 36.74 66.81 37.72 67.57 38.69C68.82 38.85 70.06 39.02 71.31 39.19C72.23 40.23 73.17 41.25 74.12 42.27C74.81 42.29 76.19 42.34 76.88 42.37C77.36 40.6 77.84 38.84 78.31 37.07C81.13 37.89 83.95 37.48 86.08 35.36L86.07 36.02C86.04 37.64 86.02 39.25 86.01 40.87C85.99 42.35 85.98 43.83 85.96 45.32C84.35 45.3 82.74 45.28 81.13 45.26C78.17 45.18 75.2 45.2 72.25 45.5C65.86 44.81 59.42 44.99 53.01 45.26C53.04 41.25 53.01 37.24 52.9 33.23C52.16 33.17 50.67 33.05 49.92 32.99C48.45 32.95 46.98 32.87 45.52 32.73L44.85 32.66C45.01 31.04 45.11 29.42 45.2 27.8Z" fill="#F0DDB1" stroke="#F0DDB1" stroke-width="0.09375"/>
<path d="M32.7 30.05C32.79 28.32 33.1299 26.63 34.5999 25.53C35.2399 26.76 35.79 28.03 36.31 29.31C35.41 29.49 33.6 29.86 32.7 30.05Z" fill="white" stroke="white" stroke-width="0.09375"/>
<path d="M32.8101 32.81C33.6001 32.81 35.2001 32.82 36.0001 32.83C35.9901 33.61 35.9701 35.17 35.9601 35.96C35.1801 35.97 33.6101 35.99 32.8301 36C32.8201 35.21 32.8101 33.61 32.8101 32.81Z" fill="#FAF8F5" stroke="#FAF8F5" stroke-width="0.09375"/>
<path d="M45.52 32.73C46.98 32.87 48.45 32.95 49.92 32.99C49.95 37.15 50.07 41.31 50.43 45.45C48.72 45.37 47.01 45.35 45.3 45.38C45.39 41.16 45.13 36.94 45.52 32.73Z" fill="#F3ECD9" stroke="#F3ECD9" stroke-width="0.09375"/>
<path d="M49.92 32.99C50.67 33.05 52.16 33.17 52.9 33.23C53.01 37.24 53.04 41.25 53.01 45.26C52.36 45.3 51.07 45.4 50.43 45.45C50.07 41.31 49.95 37.15 49.92 32.99Z" fill="#E6D09F" stroke="#E6D09F" stroke-width="0.09375"/>
<path d="M86.07 36.02C86.76 35.98 88.13 35.89 88.82 35.85C89.92 37.49 91.03 39.13 92.11 40.78C90.08 40.79 88.04 40.83 86.01 40.87C86.02 39.25 86.04 37.64 86.07 36.02Z" fill="#A3B7B6" stroke="#A3B7B6" stroke-width="0.09375"/>
<path d="M88.8199 35.85C91.3799 36.03 94.41 35.6 96.41 37.59C98.3 39.13 98.3899 41.71 98.5199 43.95C96.9599 43.85 95.3999 43.75 93.8499 43.64C93.2899 42.67 92.7199 41.72 92.1099 40.78C91.0299 39.13 89.9199 37.49 88.8199 35.85Z" fill="#CEDADA" stroke="#CEDADA" stroke-width="0.09375"/>
<path d="M93.85 43.64C95.4 43.75 96.96 43.85 98.52 43.95C98.73 51.12 98.85 58.32 98.44 65.49C96.78 65.3 95.12 65.11 93.47 64.91C93.81 57.82 93.24 50.71 93.85 43.64Z" fill="#DEEBEB" stroke="#DEEBEB" stroke-width="0.09375"/>
<path opacity="0.87" d="M50.43 45.45C51.07 45.4 52.36 45.3 53.01 45.26C59.42 44.99 65.86 44.81 72.25 45.5L71.19 45.9C67.78 46.1 64.36 46.02 60.95 45.93C58.31 45.86 55.66 45.77 53.02 45.67C52.22 45.63 50.63 45.55 49.83 45.51L50.43 45.45Z" fill="#D5AC4C" stroke="#D5AC4C" stroke-width="0.09375"/>
<path opacity="0.95" d="M72.2499 45.5C75.1999 45.2 78.1699 45.18 81.1299 45.26L81.1099 46.26C77.8599 47.57 74.2999 47.64 71.1899 45.9L72.2499 45.5Z" fill="#DCAC16" stroke="#DCAC16" stroke-width="0.09375"/>
<path d="M45.38 45.63C46.86 45.63 48.35 45.59 49.83 45.51C50.21 59.97 49.91 74.45 49.98 88.91C48.42 88.9 46.86 88.88 45.31 88.87C45.08 74.46 44.84 60.03 45.38 45.63Z" fill="#F5FFFF" stroke="#F5FFFF" stroke-width="0.09375"/>
<path d="M49.83 45.51C50.63 45.55 52.22 45.63 53.02 45.67C53.12 61.16 53.05 76.65 53.06 92.14C52.3 92.13 50.78 92.09 50.02 92.08C50.01 91.29 49.99 89.7 49.98 88.91C49.91 74.45 50.21 59.97 49.83 45.51Z" fill="#F37924" stroke="#F37924" stroke-width="0.09375"/>
<path d="M53.02 45.67C55.66 45.77 58.31 45.86 60.95 45.93C60.96 56.97 60.93 68.02 60.86 79.06C61.05 82.31 60.8 87.05 64.61 88.33C70.01 89.78 75.7 89 81.22 88.99C81.22 89.78 81.22 91.36 81.22 92.15C71.83 92.21 62.44 92.25 53.06 92.14C53.05 76.65 53.12 61.16 53.02 45.67ZM54.71 49.96C54.71 50.76 54.71 52.36 54.72 53.16C55.51 53.14 57.09 53.09 57.88 53.07C57.89 52.31 57.91 50.8 57.92 50.04C57.12 50.02 55.51 49.98 54.71 49.96ZM54.86 56.07C54.82 56.89 54.75 58.55 54.71 59.38C55.54 59.36 57.19 59.31 58.02 59.29C57.98 58.51 57.9 56.94 57.86 56.15C57.11 56.13 55.61 56.09 54.86 56.07Z" fill="#FF9B00" stroke="#FF9B00" stroke-width="0.09375"/>
<path d="M60.95 45.93C64.36 46.02 67.78 46.1 71.19 45.9C74.3 47.64 77.86 47.57 81.11 46.26C81.1 46.73 81.1 47.66 81.1 48.13C81.1 60.01 80.97 71.88 81.18 83.75C81.21 85.5 81.21 87.24 81.22 88.99C75.7 89 70.01 89.78 64.61 88.33C60.8 87.05 61.05 82.31 60.86 79.06C60.93 68.02 60.96 56.97 60.95 45.93ZM76.14 78.61C74.47 78.74 72.81 78.87 71.15 79.01C71.05 80.32 70.94 81.63 70.83 82.95C73.03 83.45 75.21 84.03 77.32 84.84L77.43 86.19C80.15 85.36 79.69 82.29 79.75 80.05C79.61 69.73 79.7 59.42 79.7 49.1C78.98 48.99 77.52 48.77 76.79 48.66C75.61 58.6 76.9 68.64 76.14 78.61ZM69.11 61.14C67.55 64.12 72.45 61.3 69.11 61.14V61.14ZM67.25 68.09C65.42 68.85 65.55 71.95 67.34 72.68C68.6 72.85 69.87 72.95 71.14 72.98C71.16 71.24 71.13 69.51 71.22 67.78C69.89 67.82 68.57 67.92 67.25 68.09ZM66.56 77.24C67.45 78.39 68.43 79.46 69.59 80.36C69.75 79.44 70.07 77.6 70.24 76.68C69.32 76.82 67.48 77.1 66.56 77.24ZM65.18 81.25C63.26 81.67 64.08 84.8 65.96 84.2C67.88 83.79 67.05 80.64 65.18 81.25Z" fill="#FBCB00" stroke="#FBCB00" stroke-width="0.09375"/>
<path d="M81.33 45.46C82.86 45.49 84.4 45.52 85.93 45.55C86.07 55.15 85.94 64.76 86.01 74.36C86.03 77.23 86.1 80.09 86.03 82.95C85.99 83.4 85.92 84.3 85.88 84.75C85.56 86.06 85.19 87.36 84.84 88.66C84.27 88.65 83.14 88.63 82.58 88.62C82.09 87 81.6 85.39 81.18 83.75C80.97 71.88 81.1 60.01 81.1 48.13C81.16 47.46 81.27 46.12 81.33 45.46Z" fill="#F5FFFF" stroke="#F5FFFF" stroke-width="0.09375"/>
<path d="M76.14 78.61C76.9 68.64 75.61 58.6 76.79 48.66C77.25 60.72 76.46 72.8 77.32 84.84C75.21 84.03 73.03 83.45 70.83 82.95C70.94 81.63 71.05 80.32 71.15 79.01C72.81 78.87 74.47 78.74 76.14 78.61Z" fill="#FFDD52" stroke="#FFDD52" stroke-width="0.09375"/>
<path d="M76.79 48.66C77.52 48.77 78.98 48.99 79.7 49.1C79.7 59.42 79.61 69.73 79.75 80.05C79.69 82.29 80.15 85.36 77.43 86.19L77.32 84.84C76.46 72.8 77.25 60.72 76.79 48.66Z" fill="#FFE580" stroke="#FFE580" stroke-width="0.09375"/>
<path d="M54.71 49.96C55.51 49.98 57.12 50.02 57.92 50.04C57.91 50.8 57.89 52.31 57.88 53.07C57.09 53.09 55.51 53.14 54.72 53.16C54.71 52.36 54.71 50.76 54.71 49.96Z" fill="#FFF9ED" stroke="#FFF9ED" stroke-width="0.09375"/>
<path d="M54.86 56.07C55.61 56.09 57.11 56.13 57.86 56.15C57.9 56.94 57.98 58.51 58.02 59.29C57.19 59.31 55.54 59.36 54.71 59.38C54.75 58.55 54.82 56.89 54.86 56.07Z" fill="#FFF1DA" stroke="#FFF1DA" stroke-width="0.09375"/>
<path d="M69.11 61.14C72.45 61.3 67.55 64.12 69.11 61.14V61.14Z" fill="#FEE686" stroke="#FEE686" stroke-width="0.09375"/>
<path d="M88.84 72.12C90.96 70.15 92.6 67.68 93.47 64.91C95.12 65.11 96.78 65.3 98.44 65.49C97.75 69.57 95.67 73.23 92.79 76.17C91.47 74.83 90.15 73.48 88.84 72.12Z" fill="#CEDADA" stroke="#CEDADA" stroke-width="0.09375"/>
<path d="M67.25 68.09C68.57 67.92 69.89 67.82 71.22 67.78C71.13 69.51 71.16 71.24 71.14 72.98C69.87 72.95 68.6 72.85 67.34 72.68C65.55 71.95 65.42 68.85 67.25 68.09Z" fill="#FFDD52" stroke="#FFDD52" stroke-width="0.09375"/>
<path d="M86.01 74.36C86.96 73.63 87.91 72.89 88.84 72.12C90.15 73.48 91.47 74.83 92.79 76.17C90.59 78.48 88.32 80.73 86.03 82.95C86.1 80.09 86.03 77.23 86.01 74.36Z" fill="#A3B7B6" stroke="#A3B7B6" stroke-width="0.09375"/>
<path d="M66.5601 77.2401C67.4801 77.1001 69.3201 76.8201 70.2401 76.6801C70.0701 77.6001 69.7501 79.4401 69.5901 80.3601C68.4301 79.4601 67.4501 78.3901 66.5601 77.2401Z" fill="#FEEB9E" stroke="#FEEB9E" stroke-width="0.09375"/>
<path d="M65.1801 81.25C67.0501 80.64 67.8801 83.79 65.9601 84.2C64.0801 84.8 63.2601 81.67 65.1801 81.25Z" fill="#FFEEB0" stroke="#FFEEB0" stroke-width="0.09375"/>
<path d="M81.18 83.75C81.6 85.39 82.09 87 82.58 88.62C83.14 88.63 84.27 88.65 84.84 88.66C85.19 87.36 85.56 86.06 85.88 84.75C85.97 87.08 86 89.42 86 91.75C87.9 91.95 89.93 92.48 90.85 94.35C91.57 96.69 89.24 98.91 86.97 98.82C73.3 98.93 59.62 98.81 45.95 98.88C44 98.94 41.29 98.72 40.64 96.48C39.21 93.8 42.63 91.76 44.98 91.72C45.06 91.01 45.22 89.58 45.31 88.87C46.86 88.88 48.42 88.9 49.98 88.91C49.99 89.7 50.01 91.29 50.02 92.08C50.78 92.09 52.3 92.13 53.06 92.14C62.44 92.25 71.83 92.21 81.22 92.15C81.22 91.36 81.22 89.78 81.22 88.99C81.21 87.24 81.21 85.5 81.18 83.75Z" fill="#D3DFDF" stroke="#D3DFDF" stroke-width="0.09375"/>
<path d="M7.58998 88.97C10.22 88.99 12.85 89.03 15.48 89.07C16.26 90.44 16.99 91.86 18.05 93.04C23.9 94.45 30.02 93.53 35.98 93.88C36.01 95.54 36.01 97.19 35.99 98.85C26.54 98.87 17.09 98.89 7.64998 98.84C7.44998 95.56 7.46998 92.26 7.58998 88.97Z" fill="#CEDADA" stroke="#CEDADA" stroke-width="0.09375"/>
<path d="M15.48 89.0699C22.32 89.0999 29.15 89.0699 35.98 89.0799C36 90.6799 36 92.2799 35.98 93.8799C30.02 93.5299 23.9 94.4499 18.05 93.0399C16.99 91.8599 16.26 90.4399 15.48 89.0699Z" fill="#F5FFFF" stroke="#F5FFFF" stroke-width="0.09375"/>
</svg>
