<svg width="100" height="100" viewBox="0 0 100 100" fill="none" xmlns="http://www.w3.org/2000/svg">
<path d="M34.9899 18.99C41.2899 16.2 48.3399 16.52 55.0399 17.08C64.4599 17.87 73.9299 18.07 83.3399 18.91C70.1299 21.41 56.6699 22.29 43.4299 24.61C33.9199 26.34 24.3299 27.71 14.8999 29.87C19.9099 23.73 28.0199 21.97 34.9899 18.99Z" fill="#FFA000" stroke="#FFA000" stroke-width="0.09375"/>
<path d="M83.3401 18.91C84.5301 18.83 85.7201 18.82 86.9101 18.87C86.9001 20.25 86.8701 21.63 86.8301 23.01C67.6901 24.67 48.6601 27.4 29.7501 30.73C25.5701 31.34 21.4301 32.21 17.3801 33.39C15.9701 40.81 16.7301 48.43 18.1501 55.78C19.2701 61.41 21.7401 67.03 26.2401 70.77C29.2401 73.32 33.3801 73.4 37.1001 73.76C53.6601 74.91 70.3201 75.72 86.8701 74.12C86.8801 75.59 86.8601 77.06 86.8201 78.54C70.5901 79.7 54.2601 79.26 38.0401 77.98C33.6001 77.77 28.7101 77.89 24.9501 75.11C18.2401 70.47 14.7001 62.49 13.5701 54.61C12.7001 48.14 11.6201 41.54 12.7201 35.02C13.0201 33.19 13.4501 31.17 14.9001 29.87C24.3301 27.71 33.9201 26.34 43.4301 24.61C56.6701 22.29 70.1301 21.41 83.3401 18.91Z" fill="#FFB300" stroke="#FFB300" stroke-width="0.09375"/>
<path d="M29.7501 30.73C48.6601 27.4 67.6901 24.67 86.8301 23.01C86.8901 27.05 87.0901 31.07 87.2501 35.1C83.6401 35.97 79.8601 38.22 79.3201 42.24C78.2301 47.21 82.4401 51.87 87.3301 52.2C87.5801 59.5 86.9501 66.81 86.8701 74.12C70.3201 75.72 53.6601 74.91 37.1001 73.76C33.3801 73.4 29.2401 73.32 26.2401 70.77C21.7401 67.03 19.2701 61.41 18.1501 55.78C16.7301 48.43 15.9701 40.81 17.3801 33.39C21.4301 32.21 25.5701 31.34 29.7501 30.73ZM67.4501 29.38C63.9001 30.22 63.6401 36.2 67.2201 37.14C69.8601 38.3 73.2401 36.02 72.8401 33.08C72.8101 30.42 69.9101 28.6 67.4501 29.38ZM42.3201 38.29C36.2501 40.66 35.9901 50.37 41.8801 53.13C47.0101 56.16 54.3201 52.02 54.1101 46C54.5201 40.04 47.6201 35.65 42.3201 38.29ZM23.4001 42.38C23.3101 43.87 23.2001 45.35 23.0801 46.84C24.8001 47.59 26.6501 47.8 28.4901 47.55C28.8401 45.83 28.8901 44.08 28.6901 42.34C26.9401 41.85 25.1401 41.84 23.4001 42.38ZM67.3601 52.3C62.0501 53.08 60.8201 61.18 65.4901 63.64C69.4301 66.4 75.4601 62.82 74.9301 58.06C74.9801 54.25 70.9901 51.31 67.3601 52.3ZM33.3801 56.38C29.3501 56.92 27.8201 62.56 30.7901 65.22C33.2901 67.85 38.2601 66.71 39.2601 63.19C40.6901 59.62 37.1501 55.41 33.3801 56.38Z" fill="#FFE57F" stroke="#FFE57F" stroke-width="0.09375"/>
<path d="M67.4501 29.38C69.9101 28.6 72.8101 30.42 72.8401 33.08C73.2401 36.02 69.8601 38.3 67.2201 37.14C63.6401 36.2 63.9001 30.22 67.4501 29.38Z" fill="#FFC400" stroke="#FFC400" stroke-width="0.09375"/>
<path d="M42.3199 38.29C47.6199 35.65 54.5199 40.04 54.1099 46C54.3199 52.02 47.0099 56.16 41.8799 53.13C35.9899 50.37 36.2499 40.66 42.3199 38.29Z" fill="#FFC400" stroke="#FFC400" stroke-width="0.09375"/>
<path d="M23.4001 42.38C25.1401 41.84 26.9401 41.85 28.6901 42.34C28.8901 44.08 28.8401 45.83 28.4901 47.55C26.6501 47.8 24.8001 47.59 23.0801 46.84C23.2001 45.35 23.3101 43.87 23.4001 42.38Z" fill="#FFC400" stroke="#FFC400" stroke-width="0.09375"/>
<path d="M67.36 52.3C70.99 51.31 74.98 54.25 74.93 58.06C75.46 62.82 69.43 66.4 65.49 63.64C60.82 61.18 62.05 53.08 67.36 52.3Z" fill="#FFC400" stroke="#FFC400" stroke-width="0.09375"/>
<path d="M33.3801 56.38C37.1501 55.41 40.6901 59.62 39.2601 63.19C38.2601 66.71 33.2901 67.85 30.7901 65.22C27.8201 62.56 29.3501 56.92 33.3801 56.38Z" fill="#FFC400" stroke="#FFC400" stroke-width="0.09375"/>
</svg>
