<svg width="100" height="100" viewBox="0 0 100 100" fill="none" xmlns="http://www.w3.org/2000/svg">
<path d="M4.76009 50.94C4.88009 44.59 10.6001 39.07 16.9501 39.11C38.6601 39.01 60.3701 39.09 82.0701 39.07C88.3901 38.68 94.5401 43.61 95.1401 49.98C95.4301 55.17 95.4901 60.42 95.0301 65.61C94.3601 65.32 93.0001 64.74 92.3301 64.45C92.0901 58.64 92.9601 52.56 90.9501 46.99C88.9001 42.5 83.3501 42.15 79.0601 42.1C62.7001 42.22 46.3501 42.24 30.0001 42.16C24.8601 42.19 19.6401 41.69 14.5701 42.75C11.7001 43.33 9.20009 45.54 8.53009 48.42C7.32009 53.69 7.80009 59.15 7.68009 64.52C6.96009 64.81 5.52009 65.4 4.80009 65.7C4.65009 60.78 4.59009 55.86 4.76009 50.94Z" fill="#EDB88E" stroke="#EDB88E" stroke-width="0.09375"/>
<path d="M14.5701 42.75C19.6401 41.69 24.8601 42.19 30.0001 42.16C46.3501 42.24 62.7001 42.22 79.0601 42.1C83.3501 42.15 88.9001 42.5 90.9501 46.99C92.9601 52.56 92.0901 58.64 92.3301 64.45C93.0001 64.74 94.3601 65.32 95.0301 65.61L95.4201 65.77C93.6701 65.8 91.9301 65.83 90.1901 65.83C90.2201 65.51 90.2701 64.88 90.2901 64.57C90.7901 59.98 90.6001 54.46 86.5901 51.39C84.6401 49.57 81.8601 50.26 79.5901 50.95C78.5501 51.44 77.5301 51.97 76.5101 52.5C76.4001 52.24 76.2001 51.72 76.1001 51.45C72.9801 49.65 69.5501 50.62 66.5401 52.08C63.7301 50.93 60.6701 49.59 57.6601 50.95C56.6201 51.47 55.5901 52.03 54.5601 52.58C54.4701 52.29 54.3101 51.71 54.2301 51.42C51.8401 50.41 49.1801 50 46.7001 51C46.0801 51.41 45.4601 51.84 44.8501 52.28C41.9801 50.75 38.7801 50.07 35.6001 51.04C31.3101 51.62 26.7901 49.55 22.8301 52.16C19.9001 50.83 16.7301 49.85 13.4901 50.54C9.45011 54.66 8.74011 60.55 9.50011 66.03C8.93011 66.04 7.79011 66.07 7.22011 66.09C6.44011 66.06 4.89011 66.01 4.11011 65.98L4.80011 65.7C5.52011 65.4 6.96011 64.81 7.68011 64.52C7.80011 59.15 7.32011 53.69 8.53011 48.42C9.20011 45.54 11.7001 43.33 14.5701 42.75Z" fill="#DA9367" stroke="#DA9367" stroke-width="0.09375"/>
<path d="M13.49 50.54C16.73 49.85 19.9 50.83 22.83 52.16C23.72 56.13 24.46 60.13 24.97 64.17C22.16 63.57 18.55 63.94 16.65 61.34C14.43 58.2 14.21 54.19 13.49 50.54Z" fill="#E9F1F2" stroke="#E9F1F2" stroke-width="0.09375"/>
<path d="M22.83 52.16C26.79 49.55 31.31 51.62 35.6 51.04C36.27 54.74 36.28 59.05 39.07 61.92C41.07 64.16 44.33 63.38 46.98 63.45C47.04 64 47.17 65.12 47.23 65.67C34.65 65.78 22.07 65.29 9.50001 66.03C8.74001 60.55 9.45001 54.66 13.49 50.54C14.21 54.19 14.43 58.2 16.65 61.34C18.55 63.94 22.16 63.57 24.97 64.17C24.46 60.13 23.72 56.13 22.83 52.16Z" fill="#D0D8DA" stroke="#D0D8DA" stroke-width="0.09375"/>
<path d="M35.6001 51.04C38.7801 50.07 41.9801 50.75 44.8501 52.28C45.8201 55.94 46.5801 59.67 46.9801 63.45C44.3301 63.38 41.0701 64.16 39.0701 61.92C36.2801 59.05 36.2701 54.74 35.6001 51.04Z" fill="#E9F1F2" stroke="#E9F1F2" stroke-width="0.09375"/>
<path d="M46.7 51C49.18 50 51.8399 50.41 54.2299 51.42C52.53 54.78 50.73 58.09 48.83 61.34C48 57.92 47.28 54.47 46.7 51Z" fill="#D0D8DA" stroke="#D0D8DA" stroke-width="0.09375"/>
<path d="M57.6599 50.95C60.6699 49.59 63.7299 50.93 66.5399 52.08C66.9999 55.92 68.8199 59.9 67.7399 63.74C65.4399 64.61 62.9399 63.19 61.0399 61.94C58.1299 59.1 58.2099 54.69 57.6599 50.95Z" fill="#E9F1F2" stroke="#E9F1F2" stroke-width="0.09375"/>
<path d="M66.54 52.08C69.55 50.62 72.98 49.65 76.1 51.45C74.52 54.56 72.92 57.65 71.32 60.74C70.6 59.89 69.89 59.04 69.18 58.19C68.89 60.71 68.66 63.25 68.21 65.75C63.05 65.72 57.89 65.68 52.72 65.68C52.97 61.26 53.85 56.93 54.56 52.58C55.59 52.03 56.62 51.47 57.66 50.95C58.21 54.69 58.13 59.1 61.04 61.94C62.94 63.19 65.44 64.61 67.74 63.74C68.82 59.9 67 55.92 66.54 52.08Z" fill="#D0D8DA" stroke="#D0D8DA" stroke-width="0.09375"/>
<path d="M79.5901 50.95C81.8601 50.26 84.6401 49.57 86.5901 51.39C90.6001 54.46 90.7901 59.98 90.2901 64.57C87.4901 63.64 84.0801 63.35 82.0801 60.93C80.0801 58.02 80.0701 54.32 79.5901 50.95Z" fill="#E9F1F2" stroke="#E9F1F2" stroke-width="0.09375"/>
<path d="M44.8501 52.28C45.4601 51.84 46.0801 51.41 46.7001 51C47.2801 54.47 48.0001 57.92 48.8301 61.34C50.7301 58.09 52.5301 54.78 54.2301 51.42C54.3101 51.71 54.4701 52.29 54.5601 52.58C53.8501 56.93 52.9701 61.26 52.7201 65.68C50.8901 65.67 49.0601 65.68 47.2301 65.67C47.1701 65.12 47.0401 64 46.9801 63.45C46.5801 59.67 45.8201 55.94 44.8501 52.28Z" fill="#B8BEBF" stroke="#B8BEBF" stroke-width="0.09375"/>
<path d="M76.51 52.5C77.53 51.97 78.55 51.44 79.59 50.95C80.07 54.32 80.08 58.02 82.08 60.93C84.08 63.35 87.49 63.64 90.29 64.57C90.27 64.88 90.22 65.51 90.19 65.83C85.03 65.75 79.88 65.64 74.72 65.69C74.91 61.24 75.78 56.87 76.51 52.5Z" fill="#D0D8DA" stroke="#D0D8DA" stroke-width="0.09375"/>
<path d="M76.1 51.45C76.2 51.72 76.4 52.24 76.51 52.5C75.78 56.87 74.91 61.24 74.72 65.69C72.55 65.7 70.38 65.73 68.21 65.75C68.66 63.25 68.89 60.71 69.18 58.19C69.89 59.04 70.6 59.89 71.32 60.74C72.92 57.65 74.52 54.56 76.1 51.45Z" fill="#B8BEBF" stroke="#B8BEBF" stroke-width="0.09375"/>
<path d="M4.11011 65.98C4.89011 66.01 6.44011 66.06 7.22011 66.09C9.80011 67.8 12.7301 69.09 15.9101 68.89C37.9401 68.59 59.9701 68.86 82.0001 68.72C86.5001 68.67 91.0001 68.81 95.4901 69.24C94.6801 70.59 93.8901 72.43 91.9601 71.97C63.9001 71.86 35.8301 71.85 7.77011 71.98C4.50011 72.18 4.56011 68.25 4.11011 65.98Z" fill="#EDB88E" stroke="#EDB88E" stroke-width="0.09375"/>
<path d="M7.21997 66.09C7.78997 66.07 8.92997 66.04 9.49997 66.03C22.07 65.29 34.65 65.78 47.23 65.67C49.06 65.68 50.89 65.67 52.72 65.68C57.89 65.68 63.05 65.72 68.21 65.75C70.38 65.73 72.55 65.7 74.72 65.69C79.88 65.64 85.03 65.75 90.19 65.83C91.93 65.83 93.67 65.8 95.42 65.77C95.43 66.64 95.47 68.37 95.49 69.24C91 68.81 86.5 68.67 82 68.72C59.97 68.86 37.94 68.59 15.91 68.89C12.73 69.09 9.79997 67.8 7.21997 66.09Z" fill="#F9DBAF" stroke="#F9DBAF" stroke-width="0.09375"/>
<path d="M7.77002 71.98C35.83 71.85 63.9 71.86 91.96 71.97C91.97 72.69 91.97 74.15 91.97 74.87L91.22 74.89C75.15 75.15 59.07 74.92 43 75.01C34.69 75.12 26.33 74.46 18.07 75.66C21.33 77.6 25.09 78.16 28.78 78.71C33.27 79.21 35 84.53 39.02 85.85C43.37 84.54 45.2 78.62 50 78.19C54.82 78.6 56.61 84.59 60.99 85.85C65.1 84.49 66.95 79.41 71.22 78.25C74.38 77.72 76.38 80.74 78.51 82.53C81.03 85.28 84.61 86.53 88.01 87.82C85.14 89.98 81.36 88.99 78.05 88.88C76.63 86.24 75.64 83.39 74.21 80.76C73.51 79.19 71.17 78.43 70.08 80.04C68.1 82.62 67.62 86.06 65.62 88.65C62.54 89.57 59.26 89.07 56.12 88.85C54.56 85.99 53.71 82.76 51.84 80.1C50.97 78.83 49.01 78.8 48.16 80.1C46.29 82.77 45.44 86 43.88 88.84C40.73 89.07 37.46 89.57 34.38 88.65C32.39 86.05 31.9 82.62 29.92 80.04C28.83 78.42 26.48 79.19 25.79 80.77C24.36 83.4 23.36 86.24 21.95 88.89C19.05 89.1 16.11 89.38 13.23 88.87C11.78 87.72 11.44 85.81 10.94 84.15C9.89002 80.09 8.68002 76.07 7.77002 71.98Z" fill="#DA9367" stroke="#DA9367" stroke-width="0.09375"/>
<path d="M18.0701 75.66C26.3301 74.46 34.6901 75.12 43.0001 75.01C59.0701 74.92 75.1501 75.15 91.2201 74.89C90.3401 79.25 88.8501 83.45 88.0101 87.82C84.6101 86.53 81.0301 85.28 78.5101 82.53C76.3801 80.74 74.3801 77.72 71.2201 78.25C66.9501 79.41 65.1001 84.49 60.9901 85.85C56.6101 84.59 54.8201 78.6 50.0001 78.19C45.2001 78.62 43.3701 84.54 39.0201 85.85C35.0001 84.53 33.2701 79.21 28.7801 78.71C25.0901 78.16 21.3301 77.6 18.0701 75.66Z" fill="#EDB88E" stroke="#EDB88E" stroke-width="0.09375"/>
</svg>
