<svg width="100" height="100" viewBox="0 0 100 100" fill="none" xmlns="http://www.w3.org/2000/svg">
<path opacity="0.47" d="M1.90991 2.00001C32.2799 -0.309991 66.2099 1.60001 97.9399 1.04001L98.0899 1.99001C66.0299 2.01001 33.9699 2.00001 1.90991 2.00001Z" fill="#6F6D69" stroke="#6F6D69" stroke-width="0.09375"/>
<path d="M1.90991 1.99999C33.9699 1.99999 66.0299 2.00999 98.0899 1.98999C97.8399 2.53999 97.3299 3.64999 97.0699 4.19999C65.7999 5.41999 34.0999 5.69999 2.91991 4.16999C2.66991 3.62999 2.15991 2.53999 1.90991 1.99999Z" fill="#E9E5DC" stroke="#E9E5DC" stroke-width="0.09375"/>
<path d="M2.91992 4.17001C34.0999 5.70001 65.7999 5.42001 97.0699 4.20001C96.9299 5.19001 96.5299 6.05001 95.8699 6.79001C95.6299 7.09001 95.1599 7.70001 94.9199 8.01001C93.3799 8.04001 91.8399 8.06001 90.2999 8.11001C63.4299 7.94001 36.5599 7.92001 9.69992 8.09001C8.15992 8.05001 6.61992 8.03001 5.07992 8.01001C4.83992 7.71001 4.36992 7.10001 4.12992 6.79001C3.47992 6.03001 3.06992 5.16001 2.91992 4.17001Z" fill="#CCC0B2" stroke="#CCC0B2" stroke-width="0.09375"/>
<path opacity="0.47" d="M4.13012 6.79001C4.37012 7.10001 4.84012 7.71001 5.08012 8.01001C5.06012 9.34001 5.05012 10.67 5.04012 12V13C4.99012 16.01 5.02012 19.02 4.99012 22.02L4.02012 21.98C3.94012 16.92 3.83012 11.84 4.13012 6.79001Z" fill="#68544D" stroke="#68544D" stroke-width="0.09375"/>
<path opacity="0.48" d="M94.9199 8.01001C95.1599 7.70001 95.6299 7.09001 95.8699 6.79001C95.9599 12.19 96.1799 17.59 95.9499 22.99L94.9699 23.01C94.9399 19.67 95.0399 16.34 94.9699 13L94.9599 12C94.9499 10.67 94.9399 9.34001 94.9199 8.01001Z" fill="#6B5851" stroke="#6B5851" stroke-width="0.09375"/>
<path d="M5.08004 8.01001C6.62004 8.03001 8.16004 8.05001 9.70004 8.09001C10.99 10.26 11.82 13.71 16 11.01C39.97 10.95 63.95 11.11 87.92 10.95C89.44 11.08 89.51 8.99001 90.3 8.11001C91.84 8.06001 93.38 8.04001 94.92 8.01001C94.94 9.34001 94.95 10.67 94.96 12C64.99 12 35.02 12 5.04004 12C5.05004 10.67 5.06004 9.34001 5.08004 8.01001Z" fill="#BD4C3D" stroke="#BD4C3D" stroke-width="0.09375"/>
<path d="M9.69995 8.08999C36.56 7.91999 63.43 7.93999 90.3 8.10999C89.51 8.98999 89.4399 11.08 87.92 10.95C63.95 11.11 39.97 10.95 16 11.01C11.82 13.71 10.99 10.26 9.69995 8.08999Z" fill="#D9674E" stroke="#D9674E" stroke-width="0.09375"/>
<path opacity="0.87" d="M5.04004 12C35.02 12 64.99 12 94.96 12L94.97 13C84.03 13.02 73.1 12.91 62.17 13.08C51.5 12.99 40.83 12.91 30.17 13.09C21.79 13 13.41 12.99 5.04004 13V12Z" fill="#B05A4B" stroke="#B05A4B" stroke-width="0.09375"/>
<path d="M5.03997 13C13.41 12.99 21.79 13 30.17 13.09C21.93 21.53 13.79 30.12 5.11997 38.12C5.03997 36.74 4.99997 35.37 4.96997 33.99C4.99997 30 4.99997 26.01 4.98997 22.02C5.01997 19.02 4.98997 16.01 5.03997 13Z" fill="#E8E4DC" stroke="#E8E4DC" stroke-width="0.09375"/>
<path d="M30.1699 13.09C40.8299 12.91 51.4999 12.99 62.1699 13.08C56.5599 19.19 50.3999 24.78 44.8199 30.93C44.3999 30.96 43.5699 31.03 43.1599 31.06C35.2499 30.43 26.3199 30.21 20.1699 36.17C14.4699 42.69 13.9099 51.86 13.9599 60.14C13.9399 63.9 15.0899 67.52 15.8799 71.16C13.4499 66.19 8.19988 63.04 5.45988 69.71L4.95988 70.4C4.43988 66.62 4.10988 62.83 3.96988 59.02C3.99988 55.01 4.00988 51 3.98988 46.99C4.01988 42.67 3.83988 38.34 4.01988 34.02L4.96988 33.99C4.99988 35.37 5.03988 36.74 5.11988 38.12C13.7899 30.12 21.9299 21.53 30.1699 13.09ZM9.24988 50.17C5.50988 52.91 5.14988 62.62 10.8199 62.96C13.8599 59.61 15.0899 50.37 9.24988 50.17Z" fill="#DCD6CD" stroke="#DCD6CD" stroke-width="0.09375"/>
<path d="M62.1701 13.08C73.1001 12.91 84.0301 13.02 94.9701 13C95.0401 16.34 94.9401 19.67 94.9701 23.01C94.9701 27.11 95.1701 31.22 95.6101 35.3C95.9301 38.86 96.0801 42.43 96.0201 46C95.9701 49.67 95.9701 53.34 96.0101 57C95.9901 58.95 95.9801 60.89 95.9101 62.83C88.1401 70.44 80.1501 77.86 72.8901 85.96C66.2201 86.06 59.5601 85.99 52.9001 85.91C56.5701 77.36 65.5601 76.44 73.6901 76.62C84.3801 74.1 87.8801 62.42 85.9001 52.77C86.3301 44.08 81.9501 34.43 73.2101 31.65C63.7901 30.49 54.2801 31.1 44.8201 30.93C50.4001 24.78 56.5601 19.19 62.1701 13.08ZM81.3301 14.5C78.4701 14.57 74.0101 16.02 75.1501 19.72C80.5501 22.89 84.0501 28.61 89.0601 31.99C96.0401 32.81 92.9301 22.19 92.3401 18.66C92.0201 12.62 85.6501 14.09 81.3301 14.5Z" fill="#EBE7DF" stroke="#EBE7DF" stroke-width="0.09375"/>
<path d="M81.33 14.5C85.65 14.09 92.02 12.62 92.34 18.66C92.93 22.19 96.04 32.81 89.06 31.99C84.05 28.61 80.55 22.89 75.15 19.72C74.01 16.02 78.47 14.57 81.33 14.5Z" fill="#FEFAF2" stroke="#FEFAF2" stroke-width="0.09375"/>
<path opacity="0.69" d="M4.01988 21.98L4.98988 22.02C4.99988 26.01 4.99988 30 4.96988 33.99L4.01988 34.02C3.89988 30 3.90988 25.99 4.01988 21.98Z" fill="#9F9C97" stroke="#9F9C97" stroke-width="0.09375"/>
<path opacity="0.71" d="M94.97 23.01L95.95 22.99C96.09 27.1 95.98 31.21 95.61 35.3C95.17 31.22 94.97 27.11 94.97 23.01Z" fill="#A9A6A0" stroke="#A9A6A0" stroke-width="0.09375"/>
<path d="M20.1701 36.17C26.3201 30.21 35.2501 30.43 43.1601 31.06C41.7101 32.7 40.2701 34.34 38.8101 35.96L37.8501 36.01C24.8701 32.88 17.8701 45.76 18.2201 56.87C16.7801 57.94 15.3601 59.03 13.9601 60.14C13.9101 51.86 14.4701 42.69 20.1701 36.17Z" fill="#CB403C" stroke="#CB403C" stroke-width="0.09375"/>
<path d="M43.1601 31.06C43.5701 31.03 44.4001 30.96 44.8201 30.93C54.2801 31.1 63.7901 30.49 73.2101 31.65C68.6901 30.59 65.2001 32.44 62.7801 35.87C54.7901 36.07 46.8001 35.97 38.8101 35.96C40.2701 34.34 41.7101 32.7 43.1601 31.06Z" fill="#F58480" stroke="#F58480" stroke-width="0.09375"/>
<path d="M62.7799 35.87C65.1999 32.44 68.6899 30.59 73.2099 31.65C81.9499 34.43 86.3299 44.08 85.8999 52.77C84.2199 58.58 80.6399 64.92 74.3499 66.34C66.2199 67.93 56.2999 66.46 49.9399 72.91C46.7099 79.89 39.2299 83.32 31.9699 84.25C28.5099 83.56 25.0699 82.42 22.3299 80.13C21.9099 79.65 21.0799 78.69 20.6599 78.21C21.7999 76.8 22.9799 75.41 24.1099 74C29.7499 80.45 41.7699 79.7 45.2699 71.32C52.3799 58.31 71.6399 68.69 79.4899 56.48C84.8499 48.97 78.6599 37.5 70.0399 36.08C68.2299 36.03 64.5899 35.92 62.7799 35.87Z" fill="#E65A56" stroke="#E65A56" stroke-width="0.09375"/>
<path d="M18.22 56.87C17.87 45.76 24.87 32.88 37.85 36.01L38.25 36.91L37.33 37.03C27.01 34.98 19.06 44.72 20.04 54.32C19.92 58.4 23.4 62.21 27.48 62.51C32.73 62.83 33.48 63.4 29.75 64.22C22.49 64.22 24.27 76.1 30.64 76.43C35.79 78.88 41.13 75.9 43.34 71.26C44.95 68.9 46.69 66.59 49.04 64.92C56.8 61.9 65.31 62.94 73.17 60.47C71.3 60.25 69.41 59.95 70.82 57.8C73.66 55.82 78.24 56.07 79.78 52.64C82.06 45.33 75.61 39.68 69.73 36.98L70.04 36.08C78.66 37.5 84.85 48.97 79.49 56.48C71.64 68.69 52.38 58.31 45.27 71.32C41.77 79.7 29.75 80.45 24.11 74C20.05 69.12 19.04 62.93 18.22 56.87Z" fill="#F6A29B" stroke="#F6A29B" stroke-width="0.09375"/>
<path d="M37.8501 36.01L38.8101 35.96C46.8001 35.97 54.7901 36.07 62.7801 35.87C64.5901 35.92 68.2301 36.03 70.0401 36.08L69.7301 36.98C66.8701 37 64.0301 37.01 61.1701 37.07C58.1001 38.65 47.4901 33.4 49.7001 39.95C50.1101 43.73 45.1001 40.45 45.4301 38.35C45.9001 34.81 40.4001 37.6 38.2501 36.91L37.8501 36.01Z" fill="#FDCCC7" stroke="#FDCCC7" stroke-width="0.09375"/>
<path d="M20.04 54.32C19.06 44.72 27.01 34.98 37.33 37.03C36.42 38.71 35.27 40.25 33.88 41.57C32.36 42.47 30.93 43.54 29.81 44.92C26.75 48.24 23.55 51.47 20.04 54.32Z" fill="#D22D28" stroke="#D22D28" stroke-width="0.09375"/>
<path d="M37.3301 37.03L38.2501 36.91C40.4001 37.6 45.9001 34.81 45.4301 38.35C45.1001 40.45 50.1101 43.73 49.7001 39.95C47.4901 33.4 58.1001 38.65 61.1701 37.07C56.8201 42.62 48.4801 47.1 48.2501 54.65C53.3601 61.99 63.4101 59.41 70.8201 57.8C69.4101 59.95 71.3001 60.25 73.1701 60.47C65.3101 62.94 56.8001 61.9 49.0401 64.92C51.4501 61.74 47.9001 55.31 43.5001 58.49C39.9201 60.55 36.4901 62.88 32.9701 65.04C31.8901 64.79 30.8201 64.51 29.7501 64.22C33.4801 63.4 32.7301 62.83 27.4801 62.51C23.4001 62.21 19.9201 58.4 20.0401 54.32C23.5501 51.47 26.7501 48.24 29.8101 44.92C28.1301 49.38 33.9301 54.59 37.3201 50.34C41.2101 47.45 37.9401 42.05 33.8801 41.57C35.2701 40.25 36.4201 38.71 37.3301 37.03Z" fill="#F9756E" stroke="#F9756E" stroke-width="0.09375"/>
<path d="M61.17 37.07C64.03 37.01 66.87 37 69.73 36.98C75.61 39.68 82.06 45.33 79.78 52.64C78.24 56.07 73.66 55.82 70.82 57.8C63.41 59.41 53.36 61.99 48.25 54.65C48.48 47.1 56.82 42.62 61.17 37.07ZM66.26 39.21C63.33 41.79 72.04 51.53 75.93 46.79C75.74 42.24 70.38 38.9 66.26 39.21Z" fill="#E94641" stroke="#E94641" stroke-width="0.09375"/>
<path d="M66.26 39.21C70.38 38.9 75.74 42.24 75.93 46.79C72.04 51.53 63.33 41.79 66.26 39.21Z" fill="#F58C7E" stroke="#F58C7E" stroke-width="0.09375"/>
<path d="M29.8101 44.92C30.9301 43.54 32.3601 42.47 33.8801 41.57C37.9401 42.05 41.2101 47.45 37.3201 50.34C33.9301 54.59 28.1301 49.38 29.8101 44.92ZM32.2401 44.11C28.8801 46.47 32.9601 52.57 36.3001 49.31C39.9701 47.56 36.2301 40.72 32.2401 44.11Z" fill="#FCCEC9" stroke="#FCCEC9" stroke-width="0.09375"/>
<path d="M32.2399 44.11C36.2299 40.72 39.9699 47.56 36.2999 49.31C32.9599 52.57 28.8799 46.47 32.2399 44.11Z" fill="#FDF9F8" stroke="#FDF9F8" stroke-width="0.09375"/>
<path opacity="0.27" d="M96.0201 46C97.3101 48.78 97.6301 52.45 96.9801 57H96.0101C95.9701 53.34 95.9701 49.67 96.0201 46Z" fill="#3F3E3C" stroke="#3F3E3C" stroke-width="0.09375"/>
<path opacity="0.29" d="M3.02009 58.99C4.33009 56.12 0.630088 48.07 3.99009 46.99C4.01009 51 4.00009 55.01 3.97009 59.02L3.02009 58.99Z" fill="#41403D" stroke="#41403D" stroke-width="0.09375"/>
<path d="M9.24988 50.17C15.0899 50.37 13.8599 59.61 10.8199 62.96C5.14988 62.62 5.50988 52.91 9.24988 50.17Z" fill="#FDF9F1" stroke="#FDF9F1" stroke-width="0.09375"/>
<path d="M74.3499 66.34C80.6399 64.92 84.2199 58.58 85.8999 52.77C87.8799 62.42 84.3799 74.1 73.6899 76.62C65.5599 76.44 56.5699 77.36 52.8999 85.91C49.9899 88.09 46.9399 90.07 43.7999 91.89C39.2099 92.76 34.6299 94.7 29.8799 93.52C31.6899 92.35 32.0699 90.39 32.0799 88.38C37.3999 87.1 44.2699 92.51 47.7299 86.55C44.2399 84.95 51.4899 82.24 47.8599 79.99C42.5099 81.45 37.8599 85.57 32.0399 85.11L31.9699 84.25C39.2299 83.32 46.7099 79.89 49.9399 72.91C56.2999 66.46 66.2199 67.93 74.3499 66.34ZM83.0599 63.29C78.3699 67.87 72.1599 69.2 65.9299 70.23C70.4199 76.17 86.7799 67.64 83.0599 63.29Z" fill="#FCCAC2" stroke="#FCCAC2" stroke-width="0.09375"/>
<path d="M13.96 60.14C15.36 59.03 16.78 57.94 18.22 56.87C19.04 62.93 20.05 69.12 24.11 74C22.98 75.41 21.8 76.8 20.66 78.21C18.64 76.17 17.23 73.66 15.88 71.16C15.09 67.52 13.94 63.9 13.96 60.14Z" fill="#F68581" stroke="#F68581" stroke-width="0.09375"/>
<path opacity="0.57" d="M96.0099 57H96.9799C97.0499 61.66 97.1899 66.33 96.9599 71L96.0099 71.01C95.9599 68.93 95.9199 66.86 95.8899 64.79C95.8899 64.3 95.9099 63.32 95.9099 62.83C95.9799 60.89 95.9899 58.95 96.0099 57Z" fill="#817E79" stroke="#817E79" stroke-width="0.09375"/>
<path d="M43.5 58.49C47.9 55.31 51.45 61.74 49.04 64.92C46.69 66.59 44.95 68.9 43.34 71.26C40.6 73.35 39.7 72.69 40.44 69.42C36.58 68.46 32.78 69.32 29 70.02C29.62 67.83 30.78 65.91 32.97 65.04C36.49 62.88 39.92 60.55 43.5 58.49Z" fill="#EA413C" stroke="#EA413C" stroke-width="0.09375"/>
<path opacity="0.6" d="M3.02011 58.99L3.97011 59.02C4.11011 62.83 4.44011 66.62 4.96011 70.4C4.70011 70.78 4.18011 71.55 3.92011 71.94L3.05011 72.14C2.95011 67.76 2.83011 63.37 3.02011 58.99Z" fill="#85837D" stroke="#85837D" stroke-width="0.09375"/>
<path d="M83.0599 63.29C86.7799 67.64 70.4199 76.17 65.9299 70.23C72.1599 69.2 78.3699 67.87 83.0599 63.29Z" fill="#FFE9E7" stroke="#FFE9E7" stroke-width="0.09375"/>
<path opacity="0.96" d="M72.89 85.96C80.15 77.86 88.14 70.44 95.91 62.83C95.91 63.32 95.89 64.3 95.89 64.79C88.82 71.8 81.49 78.59 74.78 85.94C81.83 86.07 88.88 86.17 95.93 85.93C96.06 80.95 96.01 75.98 96.01 71.01L96.96 71C97.19 78.7 97.14 86.46 95.9 94.09C88.43 89.05 76.84 93.53 67.96 91.95C69.57 89.92 71.25 87.96 72.89 85.96Z" fill="#CAC2B5" stroke="#CAC2B5" stroke-width="0.09375"/>
<path d="M30.6399 76.43C24.2699 76.1 22.4899 64.22 29.7499 64.22C30.8199 64.51 31.8899 64.79 32.9699 65.04C30.7799 65.91 29.6199 67.83 28.9999 70.02C32.7799 69.32 36.5799 68.46 40.4399 69.42C39.6999 72.69 40.5999 73.35 43.3399 71.26C41.1299 75.9 35.7899 78.88 30.6399 76.43Z" fill="#F15A52" stroke="#F15A52" stroke-width="0.09375"/>
<path d="M5.46003 69.71C8.20003 63.04 13.45 66.19 15.88 71.16C17.23 73.66 18.64 76.17 20.66 78.21C21.08 78.69 21.91 79.65 22.33 80.13C21.39 82.19 19.71 83.72 17.89 85.01C13.97 84.2 9.19003 84.86 6.25003 81.73C4.13003 78.13 5.31003 73.67 5.46003 69.71Z" fill="#FEF9F1" stroke="#FEF9F1" stroke-width="0.09375"/>
<path d="M74.78 85.94C81.49 78.59 88.82 71.8 95.89 64.79C95.92 66.86 95.96 68.93 96.01 71.01C96.01 75.98 96.06 80.95 95.93 85.93C88.88 86.17 81.83 86.07 74.78 85.94Z" fill="#DED9D0" stroke="#DED9D0" stroke-width="0.09375"/>
<path d="M4.9601 70.4L5.4601 69.71C5.3101 73.67 4.1301 78.13 6.2501 81.73C9.1901 84.86 13.9701 84.2 17.8901 85.01C21.1301 88.78 24.8101 92.52 29.8801 93.52C34.6301 94.7 39.2101 92.76 43.8001 91.89C51.2301 91.93 58.6601 91.93 66.1001 92.09C64.4101 94.08 62.6401 96.02 60.8701 97.94C41.2001 98.08 21.5201 97.97 1.8501 97.99C2.5101 96.93 3.1801 95.85 4.0601 94.96C6.7801 92.03 9.5801 89.18 12.1501 86.11C0.960097 89.8 4.3001 78.85 3.9201 71.94C4.1801 71.55 4.7001 70.78 4.9601 70.4Z" fill="#EAE5DD" stroke="#EAE5DD" stroke-width="0.09375"/>
<path opacity="0.93" d="M3.0501 72.14L3.9201 71.94C4.3001 78.85 0.960102 89.8 12.1501 86.11C9.5801 89.18 6.7801 92.03 4.0601 94.96C3.6601 87.36 2.5001 79.77 3.0501 72.14Z" fill="#C8C0B5" stroke="#C8C0B5" stroke-width="0.09375"/>
<path d="M22.3299 80.13C25.0699 82.42 28.5099 83.56 31.9699 84.25L32.0399 85.11C29.8199 86.01 23.2099 83.02 24.1299 86.85C26.6999 87.72 29.4099 87.94 32.0799 88.38C32.0699 90.39 31.6899 92.35 29.8799 93.52C24.8099 92.52 21.1299 88.78 17.8899 85.01C19.7099 83.72 21.3899 82.19 22.3299 80.13Z" fill="#FAA89D" stroke="#FAA89D" stroke-width="0.09375"/>
<path d="M32.04 85.11C37.86 85.57 42.51 81.45 47.86 79.99C51.49 82.24 44.24 84.95 47.73 86.55C44.27 92.51 37.4 87.1 32.08 88.38C29.41 87.94 26.7 87.72 24.13 86.85C23.21 83.02 29.82 86.01 32.04 85.11Z" fill="#FFDCD7" stroke="#FFDCD7" stroke-width="0.09375"/>
<path d="M43.8 91.89C46.94 90.07 49.9901 88.09 52.9001 85.91C59.5601 85.99 66.22 86.06 72.89 85.96C71.25 87.96 69.57 89.92 67.96 91.95C76.84 93.53 88.43 89.05 95.9001 94.09C96.7401 95.32 97.42 96.66 98.06 98C85.66 97.99 73.27 98.03 60.87 97.94C62.64 96.02 64.41 94.08 66.1 92.09C58.66 91.93 51.23 91.93 43.8 91.89Z" fill="#DDD8CF" stroke="#DDD8CF" stroke-width="0.09375"/>
<path opacity="0.47" d="M1.8501 97.99C21.5201 97.97 41.2001 98.08 60.8701 97.94C73.2701 98.03 85.6601 97.99 98.0601 98C67.7801 100.3 33.7701 98.4 2.0601 98.95L1.8501 97.99Z" fill="#6C6966" stroke="#6C6966" stroke-width="0.09375"/>
</svg>
