<svg width="100" height="100" viewBox="0 0 100 100" fill="none" xmlns="http://www.w3.org/2000/svg">
<g clip-path="url(#clip0_124_2141)">
<path d="M28.7801 0H70.39L71.17 0.8C69.55 1.72 67.9701 3.01 66.0101 2.99C57.0201 3.4 48 2.49 39.0201 3.16C35.64 3.08 34.91 6.97 32.92 8.94C31.31 9.63 29.51 9.59 27.8 9.84C28.03 6.55 27.8001 3.19 28.7801 0Z" fill="#C2D6FF" stroke="#C2D6FF" stroke-width="0.09375"/>
<path d="M71.1699 0.799988C72.4299 3.59999 71.8799 6.75999 72.1999 9.72999C63.7899 9.91999 55.3699 9.67999 46.9499 9.70999C44.7899 9.85999 42.0399 9.56999 40.7899 11.77C37.7199 16.03 34.5399 20.2 31.3299 24.34C26.7699 24.26 22.2099 24.39 17.6599 24.27C21.0299 19.45 24.1599 14.46 27.7999 9.83999C29.5099 9.58999 31.3099 9.62999 32.9199 8.93999C34.9099 6.96999 35.6399 3.07999 39.0199 3.15999C47.9999 2.48999 57.0199 3.39999 66.0099 2.98999C67.9699 3.00999 69.5499 1.71999 71.1699 0.799988Z" fill="#9CBCFF" stroke="#9CBCFF" stroke-width="0.09375"/>
<path d="M40.7901 11.77C42.0401 9.56997 44.7901 9.85997 46.9501 9.70997C55.3701 9.67997 63.7901 9.91997 72.2001 9.72997C69.1801 14.4 65.9201 18.93 63.1001 23.73C69.3701 23.68 75.6601 23.39 81.8901 24.33C75.2801 25.03 68.6001 24.5 61.9601 24.69C51.7501 24.63 41.5301 24.99 31.3301 24.34C34.5401 20.2 37.7201 16.03 40.7901 11.77Z" fill="#80AAFF" stroke="#80AAFF" stroke-width="0.09375"/>
<path d="M72.2001 9.72998C75.5801 14.48 79.3101 19.08 81.8901 24.33C75.6601 23.39 69.3701 23.68 63.1001 23.73C65.9201 18.93 69.1801 14.4 72.2001 9.72998Z" fill="#719EFA" stroke="#719EFA" stroke-width="0.09375"/>
<path d="M17.6599 24.27C22.2099 24.39 26.7699 24.26 31.3299 24.34C41.5299 24.99 51.7499 24.63 61.9599 24.69C61.9299 26.54 61.9399 28.4 61.9399 30.26C56.8499 31.17 51.6499 30.89 46.5399 31.58C40.9599 32.38 36.5599 36.2 32.5799 39.9C27.6999 38.24 22.4999 38.02 17.3899 37.9C17.5999 33.36 17.2499 28.8 17.6599 24.27Z" fill="#EEF7FF" stroke="#EEF7FF" stroke-width="0.09375"/>
<path d="M81.8901 24.33C82.5801 25.77 82.5601 27.38 82.5801 28.93C82.5401 50.62 82.5501 72.32 82.5801 94.01C82.6901 96.11 82.0701 98.14 81.1301 100H60.3501C62.8301 93.27 61.6101 86 61.8001 79C61.9801 72.99 61.7601 66.98 61.5401 60.97C61.6501 55.27 61.6601 49.58 61.5201 43.88C61.6201 39.34 61.9501 34.8 61.9401 30.26C61.9401 28.4 61.9301 26.54 61.9601 24.69C68.6001 24.5 75.2801 25.03 81.8901 24.33Z" fill="#B5D5F5" stroke="#B5D5F5" stroke-width="0.09375"/>
<path d="M46.5401 31.58C51.6501 30.89 56.8501 31.17 61.9401 30.26C61.9501 34.8 61.6201 39.34 61.5201 43.88C55.8001 45.45 49.6801 46.89 43.8201 45.16C40.2101 44.21 36.9901 42.26 33.7701 40.45C33.4701 40.31 32.8801 40.03 32.5801 39.9C36.5601 36.2 40.9601 32.38 46.5401 31.58Z" fill="#CBE3FA" stroke="#CBE3FA" stroke-width="0.09375"/>
<path d="M17.39 37.9C22.5 38.02 27.7 38.24 32.58 39.9C32.88 40.03 33.47 40.31 33.77 40.45C28.84 43.93 28.76 50.41 28.01 55.81C24.47 55.79 20.93 55.76 17.39 55.8C17.24 49.84 17.25 43.87 17.39 37.9Z" fill="#9CBCFF" stroke="#9CBCFF" stroke-width="0.09375"/>
<path d="M28.01 55.81C28.76 50.41 28.84 43.93 33.77 40.45C36.99 42.26 40.21 44.21 43.82 45.16C49.68 46.89 55.8 45.45 61.52 43.88C61.66 49.58 61.65 55.27 61.54 60.97C55.55 62.81 48.96 64.36 42.85 62.08C37.83 60.17 33.09 57.57 28.01 55.81Z" fill="#80AAFF" stroke="#80AAFF" stroke-width="0.09375"/>
<path d="M17.3899 55.8C20.9299 55.76 24.4699 55.79 28.0099 55.81C28.3999 63.23 28.7999 70.72 27.8399 78.11C27.6699 79.45 27.5199 80.78 27.3799 82.12C28.5899 88.01 28.5999 94.03 28.1099 100H19.0299C18.1499 98.48 17.3399 96.84 17.4699 95.03C17.3999 81.95 17.5699 68.88 17.3899 55.8Z" fill="#EEF7FF" stroke="#EEF7FF" stroke-width="0.09375"/>
<path d="M28.0099 55.81C33.0899 57.57 37.8299 60.17 42.8499 62.08C48.9599 64.36 55.5499 62.81 61.5399 60.97C61.7599 66.98 61.9799 72.99 61.7999 79C61.6099 86 62.8299 93.27 60.3499 100H28.1099C28.5999 94.03 28.5899 88.01 27.3799 82.12C28.6799 81.95 29.9799 81.77 31.2799 81.57C30.2099 80.35 29.1199 79.13 27.8399 78.11C28.7999 70.72 28.3999 63.23 28.0099 55.81ZM34.8599 79.05C34.8499 79.81 34.8299 81.34 34.8199 82.1C40.5699 82.52 46.3299 82.4 52.0899 82.23C52.6899 81.22 53.1799 79.76 51.7999 79.12C46.1799 78.49 40.4999 78.86 34.8599 79.05Z" fill="#CBE3FA" stroke="#CBE3FA" stroke-width="0.09375"/>
<path d="M27.3799 82.12C27.5199 80.78 27.6699 79.45 27.8399 78.11C29.1199 79.13 30.2099 80.35 31.2799 81.57C29.9799 81.77 28.6799 81.95 27.3799 82.12Z" fill="#757889" stroke="#757889" stroke-width="0.09375"/>
<path d="M34.8601 79.05C40.5001 78.86 46.1801 78.49 51.8001 79.12C53.1801 79.76 52.6901 81.22 52.0901 82.23C46.3301 82.4 40.5701 82.52 34.8201 82.1C34.8301 81.34 34.8501 79.81 34.8601 79.05Z" fill="#6E6F80" stroke="#6E6F80" stroke-width="0.09375"/>
</g>
<defs>
<clipPath id="clip0_124_2141">
<rect width="100" height="100" fill="white"/>
</clipPath>
</defs>
</svg>
