<svg width="100" height="100" viewBox="0 0 100 100" fill="none" xmlns="http://www.w3.org/2000/svg">
<g clip-path="url(#clip0_124_2139)">
<path d="M56.4 0H60.2C60.82 1.48 61.94 2.96 61.36 4.65C58.68 7.22 55.91 9.77 53.99 13C50.9 17.74 49.44 23.25 47.41 28.47C45.97 31.52 44.18 34.38 42.65 37.37C42.29 34.11 42.09 30.84 41.73 27.58C43.68 22.06 45.56 16.5 48.01 11.18C50.28 7.1 52.99 3.22 56.4 0Z" fill="#DAFFBF" stroke="#DAFFBF" stroke-width="0.09375"/>
<path d="M38.3 5.07001C41.67 4.19001 44.08 7.23001 46.23 9.29001C43.9 12.77 41.85 16.43 40.03 20.2C39.13 16.29 37.38 12.66 36.26 8.82001C35.71 7.25001 37.18 5.91001 38.3 5.07001Z" fill="#BEFA91" stroke="#BEFA91" stroke-width="0.09375"/>
<path d="M53.9899 13C55.9099 9.77002 58.6799 7.22002 61.3599 4.65002C59.8599 13.73 57.7099 22.73 57.3799 31.97C56.7199 30.54 56.4199 28.73 55.0499 27.77C52.5099 27.22 49.9299 28.1 47.4099 28.47C49.4399 23.25 50.8999 17.74 53.9899 13Z" fill="#BEFA91" stroke="#BEFA91" stroke-width="0.09375"/>
<path d="M40.03 20.2C41.85 16.43 43.9 12.77 46.23 9.28998C46.68 9.75998 47.56 10.71 48.01 11.18C45.56 16.5 43.68 22.06 41.73 27.58C41.18 25.11 40.64 22.65 40.03 20.2Z" fill="#9CEB63" stroke="#9CEB63" stroke-width="0.09375"/>
<path d="M47.4101 28.47C49.9301 28.1 52.5101 27.22 55.0501 27.77C56.4201 28.73 56.7201 30.54 57.3801 31.97C57.3401 32.62 57.2601 33.91 57.2201 34.56C55.6701 36.17 53.7901 37.63 52.9201 39.75C51.6601 43.21 51.6501 47 50.3201 50.43C48.9001 53.37 45.9901 55.16 43.3701 56.92C40.1901 58.75 36.8301 60.63 34.8501 63.84C31.8201 68.29 31.5401 73.96 32.2601 79.14C30.5001 81.71 27.7601 83.13 24.7301 83.67C20.6201 73.46 23.1001 60.79 31.2901 53.28C33.8701 50.72 37.3001 49.33 40.0701 47.04C42.7601 44.62 42.8801 40.73 42.6501 37.37C44.1801 34.38 45.9701 31.52 47.4101 28.47Z" fill="#FFEBD2" stroke="#FFEBD2" stroke-width="0.09375"/>
<path d="M52.92 39.75C53.79 37.63 55.67 36.17 57.22 34.56C57.21 38.79 56.29 43.99 59.85 47.16C62.99 49.71 66.88 51.3 69.58 54.4C79.16 64.14 79.7 81.34 70.46 91.47C65.9 96.59 59.18 99.19 52.5 100H46.68C37.24 98.67 28.1 92.89 24.73 83.67C27.76 83.13 30.5 81.71 32.26 79.14C33.82 83.25 36.4 87.37 41.04 88.32C38.89 82.87 34.22 77.8 35.48 71.55C36.68 65.99 41.76 62.36 43.37 56.92C45.99 55.16 48.9 53.37 50.32 50.43C51.65 47 51.66 43.21 52.92 39.75ZM52.83 52.73C54.29 57.02 57.1 60.58 60.32 63.69C64.14 67.3 65.62 73.01 64.14 78.03C63.05 81.24 60.61 83.73 59.27 86.82C59.48 87.15 59.91 87.81 60.12 88.14C63.37 87.45 65.28 84.41 66.58 81.62C69.29 75.36 68.61 67.31 63.72 62.29C60.87 59.37 58.49 56.06 56.01 52.83C55.28 51.6 53.84 52.64 52.83 52.73ZM49.17 72C47.58 76.15 47.7 80.95 49.14 85.13C49.57 85.14 50.44 85.15 50.87 85.15C52.31 80.96 52.45 76.14 50.83 71.98C50.42 71.98 49.59 71.99 49.17 72Z" fill="#FFDFBA" stroke="#FFDFBA" stroke-width="0.09375"/>
<path d="M52.8301 52.73C53.8401 52.64 55.2801 51.6 56.0101 52.83C58.4901 56.06 60.8701 59.37 63.7201 62.29C68.6101 67.31 69.2901 75.36 66.5801 81.62C65.2801 84.41 63.3701 87.45 60.1201 88.14C59.9101 87.81 59.4801 87.15 59.2701 86.82C60.6101 83.73 63.0501 81.24 64.1401 78.03C65.6201 73.01 64.1401 67.3 60.3201 63.69C57.1001 60.58 54.2901 57.02 52.8301 52.73Z" fill="#FFC685" stroke="#FFC685" stroke-width="0.09375"/>
<path d="M34.8499 63.84C36.8299 60.63 40.1899 58.75 43.3699 56.92C41.7599 62.36 36.6799 65.99 35.4799 71.55C34.2199 77.8 38.8899 82.87 41.0399 88.32C36.3999 87.37 33.8199 83.25 32.2599 79.14C31.5399 73.96 31.8199 68.29 34.8499 63.84Z" fill="#FFC685" stroke="#FFC685" stroke-width="0.09375"/>
<path d="M49.1701 72C49.5901 71.99 50.4201 71.98 50.8301 71.98C52.4501 76.14 52.3101 80.96 50.8701 85.15C50.4401 85.15 49.5701 85.14 49.1401 85.13C47.7001 80.95 47.5801 76.15 49.1701 72Z" fill="#FFC685" stroke="#FFC685" stroke-width="0.09375"/>
</g>
<defs>
<clipPath id="clip0_124_2139">
<rect width="100" height="100" fill="white"/>
</clipPath>
</defs>
</svg>
