<svg width="100" height="100" viewBox="0 0 100 100" fill="none" xmlns="http://www.w3.org/2000/svg">
<path d="M3.69995 14.84C9.80995 14.4 15.2899 11.53 21.1399 10.07C30.75 8.87999 39.54 14.15 47.3899 19.01C46.9199 19.93 46.45 20.84 46.02 21.78C42.29 23.08 38.59 24.45 34.8499 25.7C31.6699 26.4 28.43 26.82 25.2 27.25C16.41 27.2 9.21995 21.08 3.69995 14.84Z" fill="#5FCDA4" stroke="#5FCDA4" stroke-width="0.09375"/>
<path d="M45.14 13C46.6 13.06 48.07 13.13 49.53 13.18C49.73 15.18 49.98 17.18 50.37 19.15C48.77 21.9 46.72 24.34 44.3 26.4C44.84 24.85 45.3901 23.3 46.0201 21.78C46.4501 20.84 46.92 19.93 47.39 19.01L47.71 18.38C46.86 16.59 45.96 14.81 45.14 13Z" fill="#6F624B" stroke="#6F624B" stroke-width="0.09375"/>
<path d="M50.37 19.15C60.12 18.64 69.99 23.4 75.56 31.44C80.99 39.07 82.57 48.91 81.1 58.05C78.23 58.87 75.34 59.67 72.42 60.27C69.14 60.81 65.85 61.21 62.59 61.87C56.25 63.17 49.84 64.26 43.64 66.18C42.36 66.57 41.08 66.99 39.8 67.4C39.94 74.32 44.85 79.67 49.3 84.44C48.55 84.47 47.05 84.52 46.3 84.55C42.38 82.61 38.46 80.62 34.81 78.19C29.85 74.89 26.32 69.9 23.65 64.66C24.06 63.18 24.39 61.63 23.97 60.11C22.87 55.31 22.8 50.28 21.02 45.65L21.13 45.01C22.14 43.73 24.55 41.61 21.76 40.75C25.11 34.97 29.48 29.72 34.85 25.7C38.59 24.45 42.29 23.08 46.02 21.78C45.39 23.3 44.84 24.85 44.3 26.4C46.72 24.34 48.77 21.9 50.37 19.15Z" fill="#F09B4D" stroke="#F09B4D" stroke-width="0.09375"/>
<path d="M25.2001 27.25C28.4301 26.82 31.6701 26.4 34.8501 25.7C29.4801 29.72 25.1101 34.97 21.7601 40.75C21.5001 42.17 21.2901 43.58 21.1301 45.01L21.0201 45.65C19.1701 52.01 20.2701 59 23.6501 64.66C26.3201 69.9 29.8501 74.89 34.8101 78.19C38.4601 80.62 42.3801 82.61 46.3001 84.55C36.2301 83.91 26.4601 78.65 20.8801 70.16C12.3701 57.33 13.3501 37.68 25.2001 27.25Z" fill="#C17E48" stroke="#C17E48" stroke-width="0.09375"/>
<path d="M21.7599 40.75C24.5499 41.61 22.1399 43.73 21.1299 45.01C21.2899 43.58 21.4999 42.17 21.7599 40.75Z" fill="#F3F3F4" stroke="#F3F3F4" stroke-width="0.09375"/>
<path d="M23.6499 64.66C20.2699 59 19.1699 52.01 21.0199 45.65C22.7999 50.28 22.8699 55.31 23.9699 60.11C24.3899 61.63 24.0599 63.18 23.6499 64.66Z" fill="#F4F8FC" stroke="#F4F8FC" stroke-width="0.09375"/>
<path d="M91.25 55.74C92.9001 55.68 95.26 54.74 96.2 56.69C99.15 71.59 87.84 87.19 72.95 89.64C64.66 91.5 56.39 88.59 49.3 84.44C44.85 79.67 39.94 74.32 39.8 67.4C41.08 66.99 42.36 66.57 43.64 66.18C44.55 71.06 47.0101 75.47 51.0401 78.44C55.6701 73.67 62.3701 69.15 62.59 61.87C65.85 61.21 69.14 60.81 72.42 60.27C77.42 65.15 84.1801 67.51 90.8001 69.26C92.7801 64.94 92.8601 60.19 91.25 55.74ZM70.9101 64.83C70.9401 71.07 72.62 77.11 74.3601 83.05C80.3 81.97 85.4301 78.04 88.4401 72.86C83.2801 68.95 77.1901 66.35 70.9101 64.83ZM54.4501 80.25C58.43 85.13 65.55 85.64 71.25 84.08C70.24 77.86 69.3901 71.53 66.8601 65.7C61.7001 69.56 58.3901 75.26 54.4501 80.25Z" fill="#EDBF70" stroke="#EDBF70" stroke-width="0.09375"/>
<path d="M81.0999 58.05C84.4299 57.07 87.8499 56.44 91.2499 55.74C92.8599 60.19 92.7799 64.94 90.7999 69.26C84.1799 67.51 77.4199 65.15 72.4199 60.27C75.3399 59.67 78.2299 58.87 81.0999 58.05Z" fill="#E19541" stroke="#E19541" stroke-width="0.09375"/>
<path d="M43.6399 66.18C49.8399 64.26 56.2499 63.17 62.5899 61.87C62.3699 69.15 55.6699 73.67 51.0399 78.44C47.0099 75.47 44.5499 71.06 43.6399 66.18Z" fill="#EFA760" stroke="#EFA760" stroke-width="0.09375"/>
<path d="M70.9099 64.83C77.1899 66.35 83.2799 68.95 88.4399 72.86C85.4299 78.04 80.2999 81.97 74.3599 83.05C72.6199 77.11 70.9399 71.07 70.9099 64.83Z" fill="#EFA760" stroke="#EFA760" stroke-width="0.09375"/>
<path d="M54.45 80.25C58.39 75.26 61.7 69.56 66.86 65.7C69.39 71.53 70.24 77.86 71.25 84.08C65.55 85.64 58.43 85.13 54.45 80.25Z" fill="#E19541" stroke="#E19541" stroke-width="0.09375"/>
</svg>
