<svg width="94" height="82" viewBox="0 0 94 82" fill="none" xmlns="http://www.w3.org/2000/svg">
<path d="M0.699951 5.83999C6.80995 5.39999 12.2899 2.52999 18.1399 1.06999C27.75 -0.120006 36.54 5.14999 44.3899 10.01C43.9199 10.93 43.45 11.84 43.02 12.78C39.29 14.08 35.59 15.45 31.8499 16.7C28.6699 17.4 25.43 17.82 22.2 18.25C13.41 18.2 6.21995 12.08 0.699951 5.83999Z" fill="#5FCDA4" stroke="#5FCDA4" stroke-width="0.09375"/>
<path d="M42.14 4C43.6 4.06 45.07 4.13 46.53 4.18C46.73 6.18 46.98 8.18 47.37 10.15C45.77 12.9 43.72 15.34 41.3 17.4C41.84 15.85 42.3901 14.3 43.0201 12.78C43.4501 11.84 43.92 10.93 44.39 10.01L44.71 9.38C43.86 7.59 42.96 5.81 42.14 4Z" fill="#6F624B" stroke="#6F624B" stroke-width="0.09375"/>
<path d="M47.37 10.15C57.12 9.64001 66.99 14.4 72.56 22.44C77.99 30.07 79.57 39.91 78.1 49.05C75.23 49.87 72.34 50.67 69.42 51.27C66.14 51.81 62.85 52.21 59.59 52.87C53.25 54.17 46.84 55.26 40.64 57.18C39.36 57.57 38.08 57.99 36.8 58.4C36.94 65.32 41.85 70.67 46.3 75.44C45.55 75.47 44.05 75.52 43.3 75.55C39.38 73.61 35.46 71.62 31.81 69.19C26.85 65.89 23.32 60.9 20.65 55.66C21.06 54.18 21.39 52.63 20.97 51.11C19.87 46.31 19.8 41.28 18.02 36.65L18.13 36.01C19.14 34.73 21.55 32.61 18.76 31.75C22.11 25.97 26.48 20.72 31.85 16.7C35.59 15.45 39.29 14.08 43.02 12.78C42.39 14.3 41.84 15.85 41.3 17.4C43.72 15.34 45.77 12.9 47.37 10.15Z" fill="#F09B4D" stroke="#F09B4D" stroke-width="0.09375"/>
<path d="M22.2001 18.25C25.4301 17.82 28.6701 17.4 31.8501 16.7C26.4801 20.72 22.1101 25.97 18.7601 31.75C18.5001 33.17 18.2901 34.58 18.1301 36.01L18.0201 36.65C16.1701 43.01 17.2701 50 20.6501 55.66C23.3201 60.9 26.8501 65.89 31.8101 69.19C35.4601 71.62 39.3801 73.61 43.3001 75.55C33.2301 74.91 23.4601 69.65 17.8801 61.16C9.37012 48.33 10.3501 28.68 22.2001 18.25Z" fill="#C17E48" stroke="#C17E48" stroke-width="0.09375"/>
<path d="M18.7599 31.75C21.5499 32.61 19.1399 34.73 18.1299 36.01C18.2899 34.58 18.4999 33.17 18.7599 31.75Z" fill="#F3F3F4" stroke="#F3F3F4" stroke-width="0.09375"/>
<path d="M20.6499 55.66C17.2699 50 16.1699 43.01 18.0199 36.65C19.7999 41.28 19.8699 46.31 20.9699 51.11C21.3899 52.63 21.0599 54.18 20.6499 55.66Z" fill="#F4F8FC" stroke="#F4F8FC" stroke-width="0.09375"/>
<path d="M88.25 46.74C89.9001 46.68 92.26 45.74 93.2 47.69C96.15 62.59 84.84 78.19 69.95 80.64C61.66 82.5 53.39 79.59 46.3 75.44C41.85 70.67 36.94 65.32 36.8 58.4C38.08 57.99 39.36 57.57 40.64 57.18C41.55 62.06 44.0101 66.47 48.0401 69.44C52.6701 64.67 59.3701 60.15 59.59 52.87C62.85 52.21 66.14 51.81 69.42 51.27C74.42 56.15 81.1801 58.51 87.8001 60.26C89.7801 55.94 89.8601 51.19 88.25 46.74ZM67.9101 55.83C67.9401 62.07 69.62 68.11 71.3601 74.05C77.3 72.97 82.4301 69.04 85.4401 63.86C80.2801 59.95 74.1901 57.35 67.9101 55.83ZM51.4501 71.25C55.43 76.13 62.55 76.64 68.25 75.08C67.24 68.86 66.3901 62.53 63.8601 56.7C58.7001 60.56 55.3901 66.26 51.4501 71.25Z" fill="#EDBF70" stroke="#EDBF70" stroke-width="0.09375"/>
<path d="M78.0999 49.05C81.4299 48.07 84.8499 47.44 88.2499 46.74C89.8599 51.19 89.7799 55.94 87.7999 60.26C81.1799 58.51 74.4199 56.15 69.4199 51.27C72.3399 50.67 75.2299 49.87 78.0999 49.05Z" fill="#E19541" stroke="#E19541" stroke-width="0.09375"/>
<path d="M40.6399 57.18C46.8399 55.26 53.2499 54.17 59.5899 52.87C59.3699 60.15 52.6699 64.67 48.0399 69.44C44.0099 66.47 41.5499 62.06 40.6399 57.18Z" fill="#EFA760" stroke="#EFA760" stroke-width="0.09375"/>
<path d="M67.9099 55.83C74.1899 57.35 80.2799 59.95 85.4399 63.86C82.4299 69.04 77.2999 72.97 71.3599 74.05C69.6199 68.11 67.9399 62.07 67.9099 55.83Z" fill="#EFA760" stroke="#EFA760" stroke-width="0.09375"/>
<path d="M51.45 71.25C55.39 66.26 58.7 60.56 63.86 56.7C66.39 62.53 67.24 68.86 68.25 75.08C62.55 76.64 55.43 76.13 51.45 71.25Z" fill="#E19541" stroke="#E19541" stroke-width="0.09375"/>
</svg>
