<svg width="100" height="100" viewBox="0 0 100 100" fill="none" xmlns="http://www.w3.org/2000/svg">
<path d="M32.72 31.75C38.7 25.55 47.46 21.8 56.12 23.25C48.55 23.84 41.57 27.97 36.89 33.87C34.92 36.42 35.05 39.82 33.9 42.73C32.66 43.35 31.26 43.59 29.91 43.86C29.51 43.9 28.7 43.99 28.3 44.03L28.32 43.24C28.1 38.98 29.5 34.65 32.72 31.75Z" fill="#A87965" stroke="#A87965" stroke-width="0.09375"/>
<path d="M36.8899 33.87C41.5699 27.97 48.5499 23.84 56.1199 23.25C63.4599 24.16 70.0799 27.65 76.9999 30C83.0199 32.26 89.6199 34.05 94.2599 38.75C97.1699 41.61 97.4599 46.17 95.7599 49.73C91.4699 59.35 81.6599 66.2 71.2099 67.23C67.7099 65.39 64.2799 63.37 61.0299 61.11C55.8699 49.42 42.2199 43.25 29.9099 43.86C31.2599 43.59 32.6599 43.35 33.8999 42.73C35.0499 39.82 34.9199 36.42 36.8899 33.87Z" fill="#C79A83" stroke="#C79A83" stroke-width="0.09375"/>
<path d="M5.46993 55.43C10.2399 47.64 19.5099 43.82 28.3199 43.24L28.2999 44.03C22.5999 45.74 17.0099 48.5 13.1499 53.15C9.25993 57.63 7.73993 64.38 10.1499 69.9C11.9499 73.82 16.4699 75.01 20.2699 76.05C15.0999 75.99 9.01993 75.86 5.26993 71.72C1.58993 67.07 2.63993 60.25 5.46993 55.43Z" fill="#B2855D" stroke="#B2855D" stroke-width="0.09375"/>
<path d="M13.15 53.15C17.01 48.5 22.6 45.74 28.3 44.03C28.7 43.99 29.51 43.9 29.91 43.86C42.22 43.25 55.87 49.42 61.03 61.11C61.09 62.36 61.13 63.62 61.16 64.88C60.47 69.43 56.8 73.03 52.57 74.52C46 76.91 38.89 76.91 31.99 76.85C28.08 76.74 24.12 76.87 20.27 76.05C16.47 75.01 11.95 73.82 10.15 69.9C7.74002 64.38 9.26002 57.63 13.15 53.15Z" fill="#DAAA79" stroke="#DAAA79" stroke-width="0.09375"/>
<path opacity="0.96" d="M61.03 61.11C64.28 63.37 67.71 65.39 71.21 67.23C67.79 67.14 63.94 67.19 61.16 64.88C61.13 63.62 61.09 62.36 61.03 61.11Z" fill="#A67964" stroke="#A67964" stroke-width="0.09375"/>
</svg>
