<svg width="273" height="273" viewBox="0 0 273 273" fill="none" xmlns="http://www.w3.org/2000/svg">
<g clip-path="url(#clip0_147_2638)">
<path d="M9.08423 57.0476C11.0611 41.609 31.3008 50.0344 41.9384 48.7635C58.8832 50.1285 58.3654 70.0857 60.0599 82.7944C63.0723 111.695 66.6496 140.454 69.8973 169.307C71.5918 183.851 73.2863 198.443 74.8396 212.987C76.6753 225.79 75.0749 242.594 90.0428 247.771C96.9149 239.299 105.67 231.015 117.625 233.321C108.353 240.758 99.2213 248.336 90.5135 256.479C79.6877 253.984 68.7206 247.159 68.2028 234.827C60.9542 176.462 54.7882 117.908 47.6337 59.5423C34.878 57.7537 21.9811 57.1888 9.08423 57.0476Z" fill="#6E6F80" stroke="#6E6F80" stroke-width="0.09375"/>
<path d="M213.599 82.2765C224.142 81.9941 234.686 81.4763 245.276 81.3822C251.678 81.4293 257.985 82.7943 264.339 83.5944C258.079 121.579 251.066 159.423 243.911 197.219C242.076 207.48 232.144 213.834 222.071 212.799C172.979 213.316 123.933 212.846 74.8397 212.987C73.2864 198.443 71.5919 183.851 69.8975 169.307C101.292 175.002 135.841 172.555 162.058 152.645C186.205 136.547 197.925 108.965 207.198 82.606C208.798 82.5118 211.999 82.3706 213.599 82.2765Z" fill="#CBE3FA" stroke="#CBE3FA" stroke-width="0.09375"/>
<path d="M60.0601 82.7944C68.2501 82.8414 76.393 82.7944 84.583 82.8885C125.439 83.1238 166.342 84.4888 207.198 82.6061C197.925 108.965 186.205 136.547 162.059 152.645C135.841 172.555 101.292 175.002 69.8975 169.307C66.6497 140.454 63.0725 111.695 60.0601 82.7944Z" fill="#EEF7FF" stroke="#EEF7FF" stroke-width="0.09375"/>
<path d="M117.625 233.321C122.85 237.133 127.698 241.511 131.887 246.5C132.123 248.901 132.593 253.702 132.829 256.055C129.487 263.163 124.403 269.234 117.39 273H107.647C99.7863 269.988 95.1735 263.068 90.5137 256.479C99.2214 248.336 108.353 240.758 117.625 233.321Z" fill="#42434D" stroke="#42434D" stroke-width="0.09375"/>
<path d="M185.216 246.547C191.806 238.263 200.749 231.156 212.046 233.415C202.491 240.475 193.171 247.865 184.416 255.914C167.236 256.102 150.056 256.055 132.829 256.055C132.593 253.702 132.123 248.901 131.887 246.5C149.679 246.735 167.424 246.735 185.216 246.547Z" fill="#6E6F80" stroke="#6E6F80" stroke-width="0.09375"/>
<path d="M212.046 233.415C229.838 240.617 229.838 266.41 211.575 273H201.832C193.689 269.988 189.17 262.692 184.416 255.914C193.171 247.865 202.491 240.475 212.046 233.415Z" fill="#42434D" stroke="#42434D" stroke-width="0.09375"/>
</g>
<defs>
<clipPath id="clip0_147_2638">
<rect width="273" height="273" fill="white"/>
</clipPath>
</defs>
</svg>
