<svg width="567" height="507" viewBox="0 0 567 507" fill="none" xmlns="http://www.w3.org/2000/svg">
<path d="M7.04367 34.1929C-6.09774 22.8037 4.02601 -0.461469 21.1585 0.804C49.5829 10.2463 77.4232 21.3435 104.485 33.9982C122.688 45.8742 121.423 69.4313 125.316 88.316C155.396 88.2187 185.377 88.2187 215.457 88.2187C234.633 88.316 253.713 88.1213 272.889 88.1213C351.056 88.316 429.224 88.2187 507.293 88.2187C522.966 88.024 538.638 87.9266 554.31 89.4841C550.222 189.456 535.62 289.428 526.762 389.303C546.717 383.657 578.938 399.913 560.443 422.692C536.302 436.515 503.691 424.639 476.435 430.187C472.541 430.479 464.754 430.966 460.763 431.258C467.48 417.435 474.099 403.71 480.913 390.082H487.922C492.789 389.984 502.426 389.887 507.196 389.887C516.736 295.853 526.081 201.819 535.426 107.882C528.417 107.785 514.399 107.59 507.391 107.493C495.612 107.59 483.833 108.077 472.152 108.953C470.984 134.554 469.524 160.156 467.966 185.66C466.896 201.721 465.63 217.686 464.365 233.748C463.391 246.889 462.612 260.03 461.931 273.172C460.763 299.163 459.011 325.153 457.648 351.144C457.064 363.993 456.48 376.843 455.993 389.692C451.515 389.692 442.56 389.595 437.984 389.595C438.179 376.746 438.471 363.993 438.861 351.144C440.126 325.251 441.976 299.26 443.533 273.366C444.312 260.322 445.188 247.376 445.967 234.332C446.94 218.27 447.816 202.111 448.887 186.049C450.639 159.961 452.489 133.873 453.462 107.687C430.976 107.493 408.489 107.493 386.003 107.785C384.932 133.484 384.835 159.085 384.445 184.784C384.056 201.235 383.764 217.686 383.569 234.137C383.472 247.181 383.18 260.128 382.791 273.172C382.012 299.065 381.622 325.056 381.038 351.047C380.746 363.993 380.357 376.94 379.87 389.887C375.392 389.887 366.437 389.79 361.959 389.79C361.862 377.427 361.764 365.064 361.764 352.702C362.056 326.224 362.738 299.649 363.127 273.172C363.322 260.225 363.516 247.181 363.809 234.234C364.295 215.058 364.587 195.881 364.879 176.704C365.463 153.731 365.95 130.758 365.95 107.785C346.676 107.59 327.305 107.493 308.031 107.687C308.42 120.147 308.809 132.51 309.101 144.873C309.685 174.66 310.367 204.447 311.34 234.234C311.73 247.181 312.022 260.128 312.314 273.172C312.703 295.756 314.066 318.437 314.747 341.02C314.845 357.277 314.261 373.436 313.774 389.692C309.296 389.692 300.34 389.79 295.96 389.79C294.792 337.905 292.65 286.119 291.969 234.234C290.898 192.474 289.146 150.616 289.535 108.856C266.757 107.298 243.881 107.201 221.005 107.687C223.439 150.032 228.306 192.182 231.908 234.429C235.899 286.216 242.226 337.808 244.952 389.692C240.377 389.692 231.226 389.692 226.651 389.692C221.395 337.905 217.111 286.021 212.342 234.234C208.545 192.182 204.651 150.129 201.147 108.174C176.616 107.493 152.183 107.59 127.653 107.687C129.113 113.333 131.936 124.528 133.299 130.174C119.768 144.873 108.184 161.226 99.0335 179.04C93.7769 141.466 88.6177 103.891 81.9984 66.6084C57.6624 54.2457 30.7955 47.6263 7.04367 34.1929Z" fill="#95A5A6" stroke="#95A5A6" stroke-width="0.09375"/>
<path d="M99.0337 179.04C108.184 161.226 119.768 144.873 133.299 130.174C143.812 203.863 155.785 277.358 166.201 351.144C168.927 364.091 165.617 380.445 175.741 390.666C192.678 390.471 209.616 389.984 226.651 389.692C231.227 389.692 240.377 389.692 244.952 389.692C261.987 389.79 278.925 389.887 295.96 389.79C300.341 389.79 309.296 389.692 313.774 389.692C329.836 389.692 345.897 389.79 361.959 389.79C366.437 389.79 375.393 389.887 379.87 389.887C399.242 389.984 418.613 389.692 437.985 389.595C442.56 389.595 451.515 389.692 455.993 389.692C462.223 389.79 474.683 389.984 480.913 390.082C474.099 403.71 467.48 417.435 460.763 431.258C459.887 431.258 458.135 431.453 457.259 431.453C387.171 427.267 316.208 427.364 246.12 431.453C238.625 431.55 231.227 431.55 223.731 431.453C192.873 422.887 145.953 443.718 132.131 403.418C119.865 329.242 107.6 253.8 99.0337 179.04Z" fill="#758384" stroke="#758384" stroke-width="0.09375"/>
<path d="M223.731 431.453C231.226 431.55 238.624 431.55 246.12 431.453C277.367 438.364 283.11 484.116 256.341 499.691C235.996 516.239 202.413 502.027 197.059 477.302C191.413 458.222 204.457 436.32 223.731 431.453ZM228.209 449.948C224.12 461.435 239.987 469.612 247.677 475.452C266.659 469.612 242.81 438.267 228.209 449.948Z" fill="#C5C5C5" stroke="#C5C5C5" stroke-width="0.09375"/>
<path d="M460.763 431.258C464.754 430.966 472.541 430.48 476.435 430.188C521.603 437.586 512.842 508.841 468.064 506.894C426.011 508.257 414.233 441.382 457.259 431.453C458.135 431.453 459.887 431.258 460.763 431.258ZM461.444 450.143C458.621 461.727 473.807 469.709 481.497 475.842C500.382 469.32 476.046 438.267 461.444 450.143Z" fill="#C5C5C5" stroke="#C5C5C5" stroke-width="0.09375"/>
<path d="M228.209 449.948C242.81 438.267 266.659 469.612 247.677 475.452C239.987 469.612 224.12 461.435 228.209 449.948Z" fill="#9B9B9B" stroke="#9B9B9B" stroke-width="0.09375"/>
<path d="M461.444 450.143C476.046 438.267 500.382 469.319 481.497 475.841C473.807 469.709 458.621 461.727 461.444 450.143Z" fill="#9B9B9B" stroke="#9B9B9B" stroke-width="0.09375"/>
</svg>
