<svg width="460" height="405" viewBox="0 0 460 405" fill="none" xmlns="http://www.w3.org/2000/svg">
<path d="M217.246 21.1562C220.3 18.8527 224.268 18.5541 227.948 18.3667C231.345 18.3313 234.949 18.1896 238.083 19.7437C241.783 21.5865 244.568 24.8012 246.894 28.1475C250.063 32.5772 248.799 38.3332 248.784 43.4059C247.51 44.3779 246.297 45.4359 245.241 46.6459C243.057 49.1872 240.62 51.516 238.659 54.2447C238.897 54.3409 239.377 54.5332 239.615 54.6345C240.186 54.8826 240.757 55.1407 241.328 55.404C235.282 55.5356 229.211 56.0925 223.171 55.5508C222.17 55.3584 221.194 55.0446 220.178 54.9382C219.182 54.837 218.182 54.7965 217.186 54.8319C215.988 53.0297 214.512 51.4552 213.005 49.9213C212.373 49.0303 211.752 48.1393 211.069 47.2989C210.316 46.4332 209.482 45.6486 208.633 44.8841C207.92 40.9455 207.93 36.8752 208.244 32.8961C209.361 27.8944 213.202 24.0317 217.246 21.1562ZM231.936 21.708C233.736 23.6014 236.111 24.8316 237.886 26.7401C239.028 28.6487 239.812 30.7648 240.641 32.8252C242.021 37.3005 239.822 42.0491 236.925 45.4157C233.958 48.114 229.939 49.6479 225.936 49.7137C222.797 50.0732 219.845 48.6405 216.731 48.6C218.384 50.949 221.386 51.1869 223.838 52.2247C228.979 54.2497 234.949 53.0347 239.372 49.8808C241.904 48.0178 244.755 45.9371 245.534 42.7072C246.216 39.9836 246.964 37.1284 246.348 34.3237C245.605 30.6838 243.259 27.5704 240.535 25.1505C237.896 23.5558 235.166 21.5814 231.936 21.708ZM218.647 24.1734C215.548 25.7782 213.116 28.7196 212.025 32.0355C211.373 34.8907 211.469 37.9434 212.141 40.7886C213.167 44.0286 216.544 45.3853 219.425 46.5244C223.009 48.0634 227.336 48.4026 230.824 46.4181C233.978 44.6766 237.542 42.5452 238.305 38.7079C239.665 35.2299 238.3 31.4533 236.389 28.4867C234.327 25.9251 231.415 23.6874 227.988 23.6469C224.879 23.5558 221.659 23.2926 218.647 24.1734Z" fill="#094F48" stroke="#094F48" stroke-width="0.09375"/>
<path d="M231.936 21.708C235.166 21.5814 237.896 23.5558 240.535 25.1505C243.259 27.5704 245.605 30.6838 246.348 34.3237C246.964 37.1284 246.216 39.9836 245.534 42.7072C244.755 45.9371 241.904 48.0178 239.372 49.8808C234.949 53.0347 228.979 54.2497 223.838 52.2247C221.386 51.1869 218.384 50.949 216.731 48.6C219.845 48.6405 222.797 50.0732 225.936 49.7137C229.939 49.6479 233.958 48.114 236.925 45.4157C239.822 42.0491 242.021 37.3005 240.641 32.8252C239.812 30.7648 239.028 28.6487 237.886 26.7401C236.111 24.8316 233.736 23.6014 231.936 21.708Z" fill="#0C675E" stroke="#0C675E" stroke-width="0.09375"/>
<path d="M218.647 24.1734C221.659 23.2926 224.879 23.5558 227.988 23.6469C231.415 23.6874 234.327 25.9251 236.389 28.4867C238.3 31.4533 239.665 35.2299 238.305 38.7079C237.542 42.5452 233.978 44.6766 230.824 46.4181C227.336 48.4026 223.009 48.0634 219.425 46.5244C216.544 45.3853 213.167 44.0286 212.141 40.7886C211.469 37.9434 211.372 34.8907 212.025 32.0355C213.116 28.7196 215.548 25.7782 218.647 24.1734ZM218.08 25.596C215.725 26.7958 214.097 29.6814 214.926 32.3139C215.659 35.154 218.667 36.7588 221.407 36.9967C224.687 37.4068 227.291 34.0402 227.447 31.023C227.215 26.5832 221.963 24.0924 218.08 25.596Z" fill="#12A291" stroke="#12A291" stroke-width="0.09375"/>
<path d="M218.08 25.596C221.963 24.0925 227.215 26.5832 227.447 31.023C227.291 34.0403 224.687 37.4068 221.407 36.9968C218.667 36.7588 215.659 35.154 214.926 32.314C214.097 29.6815 215.725 26.7958 218.08 25.596Z" fill="#38ECD9" stroke="#38ECD9" stroke-width="0.09375"/>
<path d="M245.241 46.6459C246.297 45.4359 247.51 44.3779 248.784 43.4059C248.663 43.8008 248.42 44.5854 248.299 44.9803C247.601 46.1903 246.737 47.2989 245.847 48.3722C244.755 49.6783 243.588 50.9136 242.375 52.0982C241.475 52.9689 240.565 53.8245 239.615 54.6345C239.377 54.5333 238.897 54.3409 238.659 54.2447C240.62 51.516 243.057 49.1873 245.241 46.6459Z" fill="#325128" stroke="#325128" stroke-width="0.09375"/>
<path d="M208.633 44.8841C209.482 45.6486 210.316 46.4332 211.069 47.2989C204.119 52.7512 196.668 57.51 189.672 62.9016C183.414 67.4325 177.095 71.8824 170.978 76.6058C164.154 81.3493 157.613 86.4675 150.971 91.4591C148.6 93.1348 146.118 94.6586 143.849 96.4761C136.751 102.07 129.295 107.188 122.183 112.762C113.64 119.409 104.622 125.434 96.226 132.268C91.1255 135.721 86.4244 139.705 81.4655 143.35C78.382 145.765 75.066 147.891 72.1897 150.569C69.6976 150.614 67.2207 150.326 64.7336 150.22C67.3925 148.746 70.193 147.501 72.6244 145.638C76.911 142.469 81.5868 139.862 85.742 136.515C90.5139 132.997 95.4424 129.691 100.214 126.173C102.691 124.249 105.198 122.366 107.787 120.594C112.073 117.637 115.966 114.094 120.566 111.618C122.618 110.57 124.104 108.773 125.878 107.36C132.975 101.766 140.381 96.5925 147.539 91.0896C150.85 88.2799 154.58 86.0271 157.906 83.2326C164.129 78.2865 170.756 73.8821 176.999 68.9563C181.786 65.7062 186.098 61.8283 190.849 58.5225C195.465 55.2217 199.736 51.4401 204.518 48.3621C206.045 47.4002 207.45 46.2561 208.633 44.8841Z" fill="#EB8B2D" stroke="#EB8B2D" stroke-width="0.09375"/>
<path d="M245.847 48.3722C246.737 47.2989 247.601 46.1903 248.299 44.9803C250.326 47.2787 253.071 48.7013 255.583 50.3871C265.349 56.8873 274.782 63.8786 284.447 70.5358C289.578 73.9783 294.446 77.7954 299.642 81.1418C306.906 86.3612 314.408 91.2414 321.56 96.6178C344.388 112.17 367.019 128.005 389.645 143.841C392.254 145.835 395.231 147.304 397.789 149.359C398.911 150.483 399.932 151.703 400.968 152.908C399.255 152.791 397.546 152.69 395.843 152.513C395.661 152.493 395.292 152.447 395.11 152.427C394.614 150.903 393.467 149.774 392.112 148.984C388.725 146.893 385.702 144.286 382.422 142.044C377.129 138.601 371.877 135.078 366.858 131.245C363.456 128.684 359.71 126.633 356.247 124.163C353.174 121.966 349.863 120.133 346.805 117.916C338.919 112.109 330.614 106.895 322.799 100.992C319.468 98.7896 316.212 96.471 313.108 93.9499C308.933 91.044 304.924 87.9002 300.638 85.1614C297.008 82.7871 293.925 79.6888 290.235 77.4006C285.503 74.4339 281.131 70.9459 276.506 67.8274C272.593 65.1848 268.802 62.3751 264.884 59.7476C261.649 57.5859 258.591 55.1509 255.158 53.2879C252.065 51.6274 249.421 49.005 245.847 48.3722Z" fill="#EB8D2D" stroke="#EB8D2D" stroke-width="0.09375"/>
<path d="M189.672 62.9016C196.668 57.51 204.119 52.7513 211.069 47.299C211.752 48.1393 212.373 49.0303 213.005 49.9213C213.43 50.6756 213.829 51.4553 214.234 52.2248C210.564 55.4648 206.656 58.4162 202.622 61.1854C198.149 64.4153 193.903 67.9388 189.54 71.3104C184.298 75.1781 179.097 79.0914 173.895 83.0149C170.321 85.4651 167.137 88.4267 163.538 90.8415C157.876 94.5523 152.745 98.9972 147.154 102.814C142.125 106.12 137.55 110.059 132.682 113.592C127.814 117.577 122.507 120.963 117.543 124.816C113.58 127.965 109.48 130.926 105.345 133.853C101.791 136.323 98.6321 139.325 95.0026 141.684C90.8222 144.438 86.9956 147.683 82.8354 150.463C79.2868 150.62 75.7382 150.589 72.1897 150.569C75.0659 147.891 78.382 145.765 81.4655 143.35C86.4244 139.705 91.1255 135.721 96.2259 132.268C104.622 125.434 113.64 119.409 122.183 112.762C129.295 107.188 136.751 102.07 143.849 96.4761C146.118 94.6586 148.6 93.1348 150.971 91.4591C157.613 86.4675 164.154 81.3493 170.978 76.6058C177.095 71.8825 183.414 67.4325 189.672 62.9016Z" fill="#FCC531" stroke="#FCC531" stroke-width="0.09375"/>
<path d="M242.375 52.0982C243.588 50.9136 244.755 49.6783 245.847 48.3722C249.421 49.005 252.065 51.6274 255.158 53.2879C258.591 55.1509 261.649 57.5859 264.884 59.7476C268.802 62.3751 272.593 65.1848 276.505 67.8274C281.131 70.9459 285.503 74.4339 290.235 77.4006C293.925 79.6888 297.008 82.7871 300.638 85.1614C304.924 87.9002 308.933 91.044 313.108 93.9499C316.212 96.471 319.467 98.7896 322.799 100.992C330.614 106.895 338.919 112.109 346.805 117.916C349.863 120.133 353.174 121.966 356.247 124.163C359.71 126.633 363.456 128.684 366.858 131.245C371.877 135.078 377.129 138.601 382.422 142.044C385.702 144.286 388.725 146.894 392.112 148.984C393.467 149.774 394.614 150.903 395.11 152.427C391.667 152.199 388.23 151.916 384.823 151.389C369.926 141.75 355.671 131.169 341.052 121.12C332.929 115.415 324.598 110.013 316.601 104.126C312.537 101.063 308.175 98.4302 304.111 95.3724C300.997 93.0589 297.59 91.1655 294.557 88.7406C290.851 85.7942 286.828 83.3034 282.89 80.6963C278.613 77.9372 274.65 74.7225 270.369 71.9685C267.508 70.1409 264.743 68.1767 262.018 66.1466C255.411 61.5549 248.668 57.1303 242.375 52.0982Z" fill="#FDC531" stroke="#FDC531" stroke-width="0.09375"/>
<path d="M213.005 49.9213C214.512 51.4553 215.988 53.0297 217.186 54.8319C212.571 57.1202 208.759 60.6741 204.655 63.7217C197.441 68.9816 190.374 74.434 183.161 79.6838C174.527 86.2346 165.63 92.421 157.007 98.977C152.103 102.516 147.326 106.226 142.347 109.659C138.177 112.944 133.855 116.022 129.604 119.197C124.468 123.368 118.968 127.049 113.787 131.154C106.452 136.591 99.2539 142.216 92.0607 147.835C91.2165 148.539 90.3976 149.268 89.5939 150.017C87.3343 150.047 85.0899 150.361 82.8354 150.463C86.9956 147.683 90.8222 144.438 95.0026 141.684C98.6321 139.325 101.791 136.323 105.345 133.853C109.48 130.926 113.58 127.965 117.543 124.816C122.507 120.963 127.814 117.577 132.682 113.592C137.55 110.059 142.125 106.12 147.155 102.814C152.745 98.9972 157.876 94.5523 163.538 90.8415C167.137 88.4267 170.321 85.4651 173.895 83.0149C179.097 79.0915 184.298 75.1781 189.54 71.3104C193.903 67.9388 198.149 64.4153 202.622 61.1854C206.656 58.4162 210.564 55.4648 214.234 52.2248C213.829 51.4553 213.43 50.6756 213.005 49.9213Z" fill="#EC8B2D" stroke="#EC8B2D" stroke-width="0.09375"/>
<path d="M239.615 54.6345C240.565 53.8245 241.475 52.969 242.375 52.0982C248.668 57.1303 255.411 61.555 262.018 66.1466C264.743 68.1767 267.508 70.141 270.369 71.9685C274.65 74.7225 278.613 77.9372 282.89 80.6963C286.828 83.3035 290.851 85.7942 294.557 88.7406C297.59 91.1655 300.997 93.0589 304.111 95.3725C308.175 98.4302 312.537 101.063 316.601 104.126C324.598 110.013 332.929 115.415 341.052 121.12C355.671 131.169 369.926 141.75 384.823 151.389C381.234 151.166 377.635 151.171 374.041 151.283C374.849 150.954 375.658 150.63 376.477 150.301C373.879 147.471 370.543 145.511 367.479 143.249C362.283 139.715 357.375 135.761 352.036 132.435C335.648 121.014 319.326 109.492 302.948 98.0556C289.037 88.1635 274.792 78.7472 261.093 68.5615C256.786 65.4278 252.383 62.4257 248.021 59.3629C245.893 57.8846 243.714 56.4368 241.328 55.404C240.757 55.1408 240.186 54.8826 239.615 54.6345Z" fill="#EB8B2E" stroke="#EB8B2E" stroke-width="0.09375"/>
<path opacity="0.67" d="M220.178 54.9382C221.194 55.0445 222.17 55.3584 223.171 55.5508C222.16 55.3989 221.154 55.242 220.178 54.9382Z" fill="#526E6D" stroke="#526E6D" stroke-width="0.09375"/>
<path opacity="0.49" d="M89.5938 150.017C90.3976 149.268 91.2165 148.539 92.0606 147.835C91.7574 148.387 91.4591 148.944 91.171 149.511C95.6598 149.622 100.149 149.455 104.637 149.516C111.674 149.45 118.72 149.673 125.752 149.253C129.942 149.248 134.138 149.161 138.318 149.536L138.743 149.561C134.841 149.769 130.923 149.678 127.021 149.936C122.764 149.678 118.503 149.627 114.242 149.703C108.954 149.815 103.621 149.232 98.3844 150.22C95.4525 150.523 92.5156 150.295 89.5938 150.017Z" fill="#35281C" stroke="#35281C" stroke-width="0.09375"/>
<path opacity="0.33" d="M125.752 149.253C135.594 148.736 145.461 148.448 155.313 148.822C149.667 149.475 143.97 148.944 138.318 149.536C134.138 149.162 129.942 149.248 125.752 149.253Z" fill="#413931" stroke="#413931" stroke-width="0.09375"/>
<path opacity="0.76" d="M155.313 148.822C158.862 148.589 162.415 148.696 165.969 148.832C163.078 149.318 160.166 149.708 157.234 149.678C151.072 149.678 144.9 149.956 138.743 149.561L138.318 149.536C143.97 148.944 149.667 149.475 155.313 148.822Z" fill="#533E2C" stroke="#533E2C" stroke-width="0.09375"/>
<path d="M165.969 148.832C170.291 148.6 174.618 148.711 178.945 148.701C196.132 148.691 213.319 148.686 230.506 148.686C253.136 148.782 275.767 148.433 298.393 149.081C305.086 149.045 311.764 149.582 318.462 149.536C325.038 149.577 331.62 149.546 338.201 149.561C341.406 149.551 344.58 150.042 347.78 150.128C357.339 150.321 366.913 150.756 376.477 150.301C375.658 150.63 374.849 150.954 374.041 151.283C377.635 151.171 381.234 151.166 384.823 151.389C388.23 151.916 391.667 152.199 395.11 152.427C395.292 152.447 395.661 152.493 395.843 152.513C398.345 153.201 400.877 153.758 403.46 154.082C406.797 154.659 409.466 156.897 412.276 158.628C416.613 161.281 420.582 164.481 424.509 167.7C426.152 169.108 427.997 170.52 428.755 172.636C430.272 176.327 429.787 180.387 429.857 184.275C429.807 186.943 430.08 189.656 429.529 192.294C428.695 195.372 427.006 198.121 425.879 201.083C425.535 201.984 425.5 202.956 425.753 203.887C427.83 210.458 427.562 217.48 427.037 224.269C426.936 228.05 425.773 231.675 425.182 235.391C424.979 236.829 424.494 238.201 423.943 239.537C423.17 240.904 423.246 242.453 423.923 243.84C424.55 245.516 425.131 247.242 425.182 249.055C425.429 254.294 425.525 259.57 425.055 264.799C424.251 269.634 422.452 274.367 419.348 278.2C418.271 279.384 418.762 280.883 419.429 282.128C422.31 288.147 421.289 295.048 420.101 301.361C419.485 304.474 418.084 307.334 416.406 310.002C415.289 311.435 415.658 313.192 416.356 314.72C417.624 317.55 417.635 320.684 418.175 323.691C418.908 330.04 418.241 336.499 416.512 342.635C416.067 344.23 415.254 345.683 414.5 347.146C413.783 348.533 413.232 350.001 412.731 351.479C413.126 351.358 413.525 351.236 413.929 351.12C413.591 355.793 414.162 360.455 414.167 365.123C413.909 367.548 413.07 369.897 411.938 372.048C411.493 372.919 410.76 373.638 409.855 374.012C407.049 375.354 403.86 375.03 400.852 375.248C390.914 375.455 380.971 375.344 371.033 375.04C347.952 374.934 324.866 375 301.785 374.954C265.248 374.883 228.716 375.096 192.184 375.055C167.384 374.853 142.58 375.01 117.78 375.071C105.482 375.288 93.1829 375.207 80.8791 375.212C74.7374 375.238 68.5956 374.893 62.4488 375.086C58.9912 374.939 55.5185 375.106 52.0609 374.929C50.6607 374.893 49.7407 373.683 48.7802 372.828C45.7928 369.745 42.4312 367.062 39.287 364.146C37.7149 362.875 38.3013 360.683 38.1952 358.931C38.4075 355.145 37.8818 351.297 38.5743 347.551C39.3629 344.751 40.5811 342.104 41.4506 339.334C42.0521 337.74 41.9156 336.034 41.5365 334.409C40.7075 329.604 39.3275 324.861 39.287 319.955C39.2618 316.994 39.1556 313.996 39.7117 311.075C40.2475 308.686 41.0866 306.377 41.8802 304.064C42.2593 303.051 42.7952 302.105 43.2248 301.112C43.8668 300.065 43.7404 298.87 43.2299 297.802C41.1725 292.81 40.015 287.388 40.1919 281.981C40.2626 278.645 39.9947 275.284 40.5457 271.983C41.4556 266.227 42.6284 260.466 44.802 255.039C45.8382 252.077 47.2132 249.176 47.567 246.032C47.6328 242.59 46.5055 239.284 45.9596 235.918C45.5602 232.556 45.818 229.169 45.7826 225.798C45.7018 221.429 46.551 217.131 47.1525 212.822C48.0826 208.297 49.0633 203.735 50.7567 199.427C51.7323 197.716 51.5352 195.757 50.8275 193.995C49.7204 190.107 48.5831 186.214 47.8754 182.24C47.5822 177.856 47.4963 173.386 48.4668 169.077C49.4626 164.217 50.5495 159.241 53.0769 154.923C54.3306 152.867 56.8985 152.569 59.0266 152.067C60.998 151.678 62.7925 150.701 64.7336 150.22C67.2207 150.326 69.6976 150.614 72.1897 150.569C75.7382 150.589 79.2868 150.62 82.8354 150.463C85.0899 150.361 87.3343 150.047 89.5939 150.017C92.5156 150.296 95.4525 150.523 98.3844 150.22C102.651 150.594 106.937 150.604 111.214 150.468C116.486 150.26 121.784 150.726 127.021 149.936C130.923 149.678 134.841 149.769 138.743 149.561C144.9 149.956 151.072 149.678 157.234 149.678C160.166 149.708 163.078 149.318 165.969 148.832ZM131.929 152.751C124.706 153.449 117.442 153.07 110.193 153.237C102.433 153.368 94.664 153.039 86.9147 153.611C77.7703 153.698 68.5147 153.47 59.5321 155.444C57.2321 156.163 55.2708 157.935 54.4064 160.203C52.8191 164.278 51.7222 168.536 50.8679 172.819C49.8266 178.838 51.7171 184.786 52.9809 190.613C53.8706 193.241 54.927 196.628 57.8134 197.6C61.5389 197.832 65.1835 198.683 68.8989 198.992C64.7336 200.384 60.4369 198.992 56.1958 199.169C54.9119 199.042 54.4266 200.313 53.911 201.234C52.0103 209.329 49.4222 217.399 49.3717 225.798C49.2908 231.346 49.2301 237.021 50.9033 242.372C51.4897 244.038 52.2429 245.638 52.8596 247.293C57.5101 248.174 62.2618 248.341 66.9073 249.267C62.0899 250.882 57.04 248.771 52.1519 249.566C50.873 249.708 50.4989 251.044 50.0541 252.042C49.1745 254.365 47.9664 256.562 47.3042 258.967C45.9292 264.212 44.1802 269.436 43.9224 274.899C43.7708 278.276 43.7859 281.662 43.9831 285.034C44.3117 290.071 45.904 294.906 47.7591 299.563C52.5917 300.738 57.591 300.793 62.5347 300.95C62.5297 301.214 62.5196 301.735 62.5145 301.993C58.9356 302.084 55.3567 302.176 51.7829 301.963C50.4989 301.953 49.1644 301.755 47.9209 302.145C44.069 306.595 42.1481 312.569 42.1936 318.431C42.138 322.901 43.6242 327.169 44.4785 331.508C44.8879 332.849 44.9941 334.54 46.2881 335.375C48.1281 336.641 50.4484 336.439 52.5664 336.469C56.3323 336.403 60.0932 336.515 63.8541 336.646C60.624 338.428 56.9086 337.375 53.4662 338.2C51.0752 338.195 48.6235 337.851 46.273 338.438C45.0345 339.881 44.5796 341.81 43.7607 343.501C41.3191 348.862 40.3991 355.099 42.1229 360.815C44.9182 361.301 47.744 361.68 50.5848 361.781L50.0035 361.807C51.2875 362.369 52.6624 362.718 54.0728 362.678C61.3215 362.622 68.5703 362.672 75.8191 362.49C77.5479 362.429 79.2717 362.536 80.9853 362.738C78.2607 363.002 75.5259 362.991 72.7912 362.946C70.7339 362.951 68.5552 362.693 66.6646 363.7C59.6939 364.748 52.6473 363.882 45.6411 363.999C46.6673 366.611 48.9622 368.393 51.2066 369.927C53.6936 371.552 56.762 371.739 59.6484 371.724C112.725 371.815 165.807 371.906 218.879 371.461C241.803 371.496 264.727 371.42 287.647 371.365C296.21 370.459 304.818 371.086 313.407 371.193C325.372 371.264 337.332 371.415 349.297 371.496C358.729 371.456 368.172 371.906 377.604 371.501C383.857 371.243 390.06 372.382 396.308 372.286C399.593 372.281 402.889 372.413 406.17 372.084C405.614 371.046 405.118 369.937 404.229 369.147C404.421 368.834 404.81 368.206 405.002 367.892C406.044 368.768 407.272 369.375 408.475 370.003C409.481 368.282 410.558 366.515 410.815 364.5C411.407 360.475 410.608 356.415 409.724 352.502C409.451 351.089 408.323 350.112 407.181 349.368C407.454 348.857 407.732 348.346 408.02 347.844C408.172 347.885 408.485 347.961 408.642 348.001C411.649 345.445 413.075 341.607 414.197 337.932C416.841 330.045 415.582 321.236 412.003 313.855C411.73 313.399 411.467 312.949 411.205 312.498C412.024 312.296 412.847 312.093 413.676 311.891C413.201 311.723 412.731 311.561 412.266 311.399C412.135 311.207 411.872 310.827 411.74 310.635C414.091 306.727 416.34 302.651 417.392 298.176C418.201 292.375 418.095 285.905 414.44 281.019C411.801 277.643 407.216 277.121 403.895 274.681C404.658 274.367 405.397 273.988 406.14 273.613C408.495 274.63 410.836 275.699 413.166 276.777C413.889 276.99 414.834 277.587 415.471 276.878C417.705 274.706 419.591 272.023 420.359 268.961C421.193 265.877 421.582 262.693 421.987 259.529C422.624 254.937 421.542 250.371 420.723 245.886C420.379 244.726 420.354 243.025 418.918 242.696C415.279 241.436 411.341 241.34 407.712 240.028C407.727 239.456 407.747 238.889 407.777 238.322C409.845 239.097 412.003 239.669 414.227 239.72C415.587 240.089 417.063 240.332 418.458 239.963C420.031 238.96 420.855 237.158 421.618 235.523C424.342 228.395 424.605 220.629 424.12 213.096C423.832 209.446 422.674 205.907 421.006 202.662C417.64 202.11 414.278 201.356 410.856 201.361C411.124 200.931 411.397 200.5 411.675 200.075C415.168 199.989 418.681 200.176 422.078 201.067C422.406 200.424 422.735 199.787 423.079 199.154C424.292 197.007 425.54 194.795 425.915 192.319C426.481 188.654 426.258 184.933 426.349 181.243C426.334 178.782 426.567 176.16 425.374 173.912C423.604 170.419 420.329 168.075 417.129 165.999C414.465 164.349 412.003 162.395 409.233 160.922C409.4 162.572 409.744 164.202 410.178 165.802C410.062 167.225 409.946 168.647 409.885 170.08C409.491 169.26 409.097 168.45 408.692 167.645C408.071 165.422 407.11 163.316 406.266 161.175C405.771 160.233 405.437 158.952 404.315 158.598C402.106 157.839 399.75 157.641 397.46 157.267C391.344 156.517 385.237 155.717 379.131 154.928C374.9 154.821 370.725 153.895 366.484 154.077C359.831 153.946 353.184 153.546 346.542 153.171C341.047 153.08 335.547 153.166 330.073 152.634C316.596 152.558 303.125 152.209 289.648 152.224C248.536 152.199 207.425 152.057 166.313 152.209C154.848 152.209 143.394 152.705 131.929 152.751ZM188.474 374.347C206.014 374.924 223.57 374.797 241.121 374.812C267.068 374.807 293.02 374.822 318.967 374.828C328.263 374.767 337.569 374.969 346.855 374.357C334.021 374.235 321.191 373.921 308.352 374.007C281.222 374.078 254.092 373.926 226.967 374.24C214.133 374.372 201.298 374.2 188.474 374.347Z" fill="#543217" stroke="#543217" stroke-width="0.09375"/>
<path opacity="0.84" d="M397.789 149.359C399.917 150.614 401.984 152.057 403.46 154.082C400.877 153.758 398.345 153.201 395.843 152.513C397.546 152.69 399.255 152.791 400.968 152.908C399.932 151.703 398.911 150.483 397.789 149.359Z" fill="#975F27" stroke="#975F27" stroke-width="0.09375"/>
<path opacity="0.95" d="M98.3844 150.22C103.621 149.232 108.954 149.815 114.242 149.703C118.503 149.627 122.764 149.678 127.021 149.936C121.784 150.726 116.486 150.26 111.214 150.468C106.937 150.604 102.651 150.594 98.3844 150.22Z" fill="#5F4834" stroke="#5F4834" stroke-width="0.09375"/>
<path d="M131.929 152.751C143.394 152.705 154.848 152.209 166.313 152.209C207.425 152.057 248.536 152.199 289.648 152.224C303.125 152.209 316.596 152.558 330.073 152.634C335.547 153.166 341.047 153.08 346.542 153.171C353.184 153.546 359.831 153.946 366.483 154.077C370.725 153.895 374.9 154.821 379.131 154.928C385.237 155.717 391.344 156.517 397.46 157.267C399.75 157.641 402.106 157.839 404.315 158.598C405.437 158.952 405.771 160.233 406.266 161.175C407.11 163.316 408.071 165.422 408.692 167.645C409.39 172.13 409.258 176.696 409.188 181.222C409.157 184.715 408.162 188.097 406.867 191.312C406.059 193.271 405.326 195.326 403.956 196.972C403.354 197.756 402.298 197.767 401.408 197.837C397.592 198.03 393.674 197.296 389.959 198.49C394.341 199.397 399.73 198.197 403.198 201.675C406.387 205.75 407.55 211.086 407.656 216.179C407.772 221.525 408.03 227.139 405.669 232.095C404.81 233.867 403.678 236.15 401.454 236.302C394.043 236.024 386.612 234.935 379.197 235.705C380.314 236.378 381.482 237.087 382.831 237.148C386.85 237.462 390.889 237.107 394.912 237.391C397.197 237.669 399.528 237.902 401.701 238.697C403.101 239.127 403.582 240.651 404.047 241.886C405.599 246.473 405.765 251.404 405.412 256.198C404.982 261.625 402.763 266.774 399.71 271.229C391.051 271.35 382.407 269.654 373.753 270.505C374.688 271.34 375.709 272.256 377.058 272.195C383.311 272.565 389.6 272.525 395.827 273.319C396.894 273.507 398.016 273.664 398.962 274.241C400.443 276.119 400.928 278.559 401.58 280.817C403.45 287.839 402.197 295.286 399.785 302.014C399.174 303.608 398.724 305.309 397.758 306.742C396.222 307.516 394.437 307.471 392.764 307.567C384.297 307.562 375.825 307.724 367.373 307.106C367.378 307.527 367.388 308.367 367.398 308.792C371.134 308.924 374.88 308.964 378.62 308.98C383.129 308.944 387.608 309.628 392.117 309.607C394.003 309.724 396.485 309.709 397.425 311.713C400.488 317.809 401.165 324.866 400.362 331.574C399.831 334.702 398.739 337.77 397.101 340.489C396.399 341.891 394.634 341.764 393.31 341.871C388.235 341.855 383.165 341.805 378.095 341.78C376.482 341.764 374.89 341.997 373.323 342.357C380.309 344.726 387.831 342.726 394.958 344.174C396.576 344.483 397.031 346.29 397.41 347.657C397.94 350.446 398.097 353.606 396.56 356.127C395.433 358.005 393.396 359.124 391.313 359.6C387.123 360.582 382.765 360.131 378.58 359.377C373.247 358.395 367.818 359.017 362.44 358.855C315.09 358.906 267.745 358.536 220.396 358.709C197.648 358.774 174.896 358.784 152.149 359.058C147.928 359.119 143.747 359.898 139.516 359.726C124.842 359.513 110.198 360.728 95.5233 360.708C89.6444 361.214 83.7352 361.189 77.8512 361.564C68.7624 361.812 59.6686 361.564 50.5848 361.781C47.744 361.68 44.9182 361.3 42.1229 360.814C40.3991 355.099 41.3191 348.862 43.7607 343.501C44.5796 341.81 45.0345 339.881 46.273 338.438C48.6235 337.851 51.0752 338.195 53.4662 338.2C58.5565 338.423 63.6519 338.286 68.7473 338.352C70.5721 338.433 72.3868 338.079 74.0246 337.264C70.7086 336.383 67.251 336.418 63.8541 336.646C60.0932 336.514 56.3323 336.403 52.5664 336.469C50.4484 336.439 48.1281 336.641 46.2881 335.375C44.9941 334.54 44.8879 332.849 44.4785 331.508C43.6242 327.169 42.138 322.901 42.1936 318.431C42.1481 312.569 44.069 306.595 47.9209 302.145C49.1644 301.755 50.4989 301.953 51.7829 301.963C55.3567 302.176 58.9356 302.084 62.5145 301.993C62.5196 301.735 62.5297 301.214 62.5347 300.95C57.591 300.793 52.5917 300.738 47.7591 299.563C45.904 294.906 44.3117 290.071 43.9831 285.034C43.7859 281.662 43.7708 278.276 43.9224 274.899C44.1802 269.436 45.9292 264.212 47.3042 258.967C47.9664 256.562 49.1745 254.365 50.0541 252.042C50.4989 251.044 50.873 249.708 52.1519 249.566C57.04 248.771 62.0899 250.882 66.9073 249.267C62.2618 248.341 57.5101 248.174 52.8596 247.293C52.2429 245.638 51.4897 244.038 50.9033 242.372C49.2301 237.021 49.2908 231.346 49.3716 225.798C49.4222 217.399 52.0103 209.329 53.911 201.234C54.8411 200.536 55.8723 199.857 57.0754 199.802C63.116 199.28 69.1163 201.169 75.1468 200.318C73.3371 198.977 71.0725 198.784 68.8989 198.992C65.1835 198.683 61.5389 197.832 57.8134 197.6C54.927 196.628 53.8706 193.241 52.9809 190.613C51.7171 184.786 49.8266 178.838 50.8679 172.819C51.7222 168.536 52.8191 164.278 54.4064 160.203C55.2708 157.935 57.2321 156.163 59.5321 155.444C68.5147 153.47 77.7703 153.697 86.9147 153.611C94.664 153.039 102.433 153.368 110.193 153.237C117.442 153.07 124.705 153.449 131.929 152.751ZM356.04 270.444C357.031 271.142 358.198 271.477 359.412 271.492C363.031 271.639 366.655 272.317 370.275 271.77C370.315 271.401 370.401 270.667 370.442 270.302C365.649 270.11 360.812 269.857 356.04 270.444ZM369.122 313.764C372.438 315.151 376.093 315.131 379.631 315.11C381.522 315.034 383.766 315.156 385.02 313.435C382.725 313.121 380.41 313.151 378.11 313.171C375.107 313.227 372.034 312.857 369.122 313.764ZM60.1589 330.105C60.3308 330.723 60.4976 331.351 60.6694 331.984C65.1633 332.601 69.6673 333.183 74.2167 333.097C79.0391 334.403 84.0637 333.669 88.9721 334.171C93.2486 334.51 97.5756 335.158 101.847 334.454C100.002 332.905 97.4644 332.961 95.2048 333.188C91.9545 332.824 88.6688 333.082 85.4387 332.561C81.142 331.892 76.7796 331.908 72.4475 331.963C72.6749 331.715 72.9075 331.467 73.14 331.224C68.7624 331.574 64.4708 330.677 60.1589 330.105ZM53.9514 342.817C55.3971 344.078 57.3787 343.759 59.1429 343.764C65.7598 343.506 72.4424 343.794 78.9785 342.595C79.2818 342.569 79.8782 342.524 80.1815 342.503C78.3618 341.562 76.2741 341.936 74.3127 341.891C68.4086 341.972 62.5044 341.547 56.6002 341.572C55.5286 341.461 54.6996 342.159 53.9514 342.817ZM353.103 342.377C356.313 343.025 359.619 342.681 362.824 343.318C364.679 343.658 366.564 343.729 368.45 343.734C368.425 343.111 368.404 342.488 368.389 341.871C365.74 341.567 363.076 341.425 360.418 341.506C357.966 341.592 355.398 341.324 353.103 342.377ZM326.211 353.469C322.687 353.383 319.164 353.438 315.651 353.59C315.611 354.127 315.575 354.664 315.545 355.21C316.146 355.296 316.753 355.393 317.365 355.489C321.267 355.474 325.164 355.261 329.057 354.977C335.269 354.243 341.537 354.613 347.78 354.527C353.341 354.436 358.906 354.623 364.467 354.324C364.269 353.828 364.077 353.332 363.89 352.841C351.329 352.355 338.752 352.78 326.211 353.469ZM296.518 353.656C297.216 354.208 297.827 355.058 298.803 355.094C301.886 355.337 305 355.56 308.094 355.256C307.361 354.613 306.648 353.848 305.647 353.671C302.65 352.983 299.526 353.12 296.518 353.656Z" fill="#EDBE85" stroke="#EDBE85" stroke-width="0.09375"/>
<path d="M409.233 160.922C412.003 162.395 414.465 164.349 417.129 165.999C420.329 168.075 423.604 170.419 425.374 173.912C426.567 176.16 426.334 178.782 426.349 181.243C426.258 184.933 426.481 188.654 425.915 192.319C425.54 194.795 424.292 197.007 423.079 199.154C421.087 199.599 419.045 199.862 417.008 199.635C413.474 199.28 409.936 199.007 406.392 198.784C407.56 195.448 409.446 192.41 410.517 189.044C412.524 181.45 412.291 173.35 410.178 165.802C409.744 164.202 409.4 162.572 409.233 160.922Z" fill="#AB7953" stroke="#AB7953" stroke-width="0.09375"/>
<path d="M410.178 165.802C412.291 173.35 412.524 181.45 410.517 189.044C409.445 192.41 407.56 195.448 406.392 198.784C409.936 199.007 413.474 199.28 417.008 199.635C419.045 199.862 421.087 199.599 423.079 199.154C422.735 199.787 422.406 200.424 422.078 201.067C418.681 200.176 415.168 199.989 411.675 200.075C411.397 200.5 411.124 200.931 410.856 201.361C409.395 201.361 407.939 201.422 406.488 201.488C407.53 205.451 408.925 209.334 409.607 213.384C410.613 221.221 409.304 229.23 406.327 236.515C408.884 237.75 411.513 238.854 414.227 239.719C412.003 239.669 409.845 239.097 407.777 238.322C407.747 238.889 407.727 239.456 407.712 240.028C407.383 240.069 406.731 240.155 406.402 240.2C406.594 244.205 408.081 248.068 407.808 252.107C407.59 255.575 407.156 259.028 406.68 262.47C406.236 265.857 404.294 268.748 403.005 271.846C404.037 272.449 405.073 273.066 406.14 273.613C405.396 273.988 404.658 274.367 403.895 274.681C403.41 274.874 402.93 275.061 402.449 275.248C403.769 282.067 405.356 289.064 404.173 296.03C403.471 300.075 401.216 303.664 400.513 307.704C401.302 308.549 402.444 308.904 403.526 309.238C406.205 309.997 408.97 310.382 411.74 310.635C411.872 310.827 412.135 311.207 412.266 311.399C412.731 311.561 413.201 311.723 413.676 311.891C412.847 312.093 412.023 312.296 411.205 312.498C411.467 312.949 411.73 313.399 412.003 313.855C408.071 312.518 404.123 311.02 399.917 310.908C400.716 315.125 402.687 319.125 402.576 323.499C402.545 327.048 402.768 330.612 402.434 334.155C402.146 336.945 400.296 339.228 399.669 341.921C399.331 342.888 400.276 343.612 400.918 344.169C403.076 345.743 405.543 346.857 408.02 347.844C407.732 348.346 407.454 348.857 407.181 349.368C404.916 347.824 402.414 346.68 399.856 345.728C399.553 349.373 399.619 353.12 398.441 356.628C398.092 357.853 397.531 359.043 397.435 360.323C397.844 361.346 398.739 362.07 399.487 362.85C401.317 364.535 403.117 366.262 405.002 367.892C404.81 368.206 404.421 368.834 404.229 369.147C401.954 367.198 399.467 365.518 397.01 363.822C392.961 361.032 387.79 361.852 383.165 361.579C372.211 361.052 361.247 361.331 350.287 361.285C326.201 360.916 302.114 360.673 278.022 360.749C249.209 360.749 220.396 360.723 191.582 360.769C186.032 360.825 180.477 360.789 174.936 361.103C169.366 361.407 163.79 361.204 158.22 361.371C152.493 361.533 146.765 361.665 141.038 361.609C137.313 361.564 133.638 362.338 129.917 362.318C117.937 362.186 105.967 362.769 93.9916 362.693C84.913 363.629 75.7837 363.685 66.6646 363.7C68.5552 362.693 70.7338 362.951 72.7912 362.946C75.5259 362.991 78.2607 363.002 80.9853 362.738C79.2716 362.536 77.5479 362.429 75.8191 362.49C68.5703 362.672 61.3215 362.622 54.0727 362.678C52.6624 362.718 51.2875 362.369 50.0035 361.807L50.5848 361.781C59.6686 361.564 68.7624 361.812 77.8512 361.564C83.7352 361.189 89.6444 361.214 95.5233 360.708C110.198 360.728 124.842 359.513 139.516 359.726C143.747 359.898 147.928 359.119 152.149 359.058C174.896 358.784 197.648 358.774 220.396 358.709C267.745 358.536 315.09 358.906 362.44 358.855C367.818 359.017 373.247 358.395 378.58 359.377C382.765 360.131 387.123 360.582 391.313 359.6C393.396 359.124 395.433 358.005 396.56 356.127C398.097 353.606 397.94 350.446 397.41 347.657C397.031 346.29 396.576 344.483 394.958 344.174C387.831 342.726 380.309 344.726 373.323 342.357C374.89 341.997 376.482 341.764 378.095 341.78C383.165 341.805 388.235 341.855 393.31 341.871C394.634 341.764 396.399 341.891 397.101 340.489C398.739 337.77 399.831 334.702 400.362 331.574C401.165 324.866 400.488 317.809 397.425 311.713C396.485 309.709 394.003 309.724 392.117 309.607C387.608 309.628 383.129 308.944 378.62 308.98C374.88 308.964 371.134 308.924 367.398 308.792C367.388 308.367 367.378 307.527 367.373 307.106C375.825 307.724 384.297 307.562 392.764 307.567C394.437 307.471 396.222 307.516 397.758 306.742C398.724 305.309 399.174 303.608 399.785 302.014C402.197 295.286 403.45 287.839 401.58 280.817C400.928 278.559 400.443 276.119 398.962 274.241C398.016 273.664 396.894 273.507 395.827 273.319C389.6 272.525 383.311 272.565 377.058 272.195C375.709 272.256 374.688 271.34 373.753 270.505C382.407 269.654 391.051 271.35 399.71 271.229C402.763 266.774 404.982 261.625 405.412 256.198C405.765 251.404 405.599 246.473 404.047 241.886C403.582 240.651 403.102 239.127 401.701 238.697C399.528 237.902 397.197 237.669 394.913 237.391C392.648 237.122 390.383 236.859 388.114 236.631C392.557 236.348 397.01 236.545 401.454 236.302C403.678 236.15 404.81 233.867 405.669 232.095C408.03 227.139 407.772 221.525 407.656 216.179C407.55 211.086 406.387 205.75 403.198 201.675C399.73 198.197 394.341 199.397 389.959 198.49C393.674 197.296 397.592 198.03 401.408 197.837C402.298 197.767 403.354 197.756 403.956 196.972C405.326 195.326 406.059 193.271 406.867 191.312C408.162 188.097 409.157 184.715 409.188 181.222C409.258 176.696 409.39 172.13 408.692 167.645C409.097 168.45 409.491 169.26 409.885 170.08C409.946 168.647 410.062 167.225 410.178 165.802Z" fill="#5B3413" stroke="#5B3413" stroke-width="0.09375"/>
<path d="M50.8275 193.995C51.5352 195.757 51.7323 197.716 50.7567 199.427C50.4686 197.625 50.4837 195.787 50.8275 193.995Z" fill="#7F6C55" stroke="#7F6C55" stroke-width="0.09375"/>
<path d="M53.911 201.234C54.4266 200.313 54.9119 199.042 56.1958 199.169C60.4369 198.992 64.7336 200.384 68.8989 198.992C71.0725 198.784 73.3371 198.976 75.1468 200.318C69.1163 201.169 63.116 199.28 57.0754 199.802C55.8723 199.857 54.8411 200.536 53.911 201.234Z" fill="#9F7341" stroke="#9F7341" stroke-width="0.09375"/>
<path d="M406.488 201.487C407.939 201.422 409.395 201.361 410.856 201.361C414.278 201.356 417.64 202.11 421.006 202.662C422.674 205.907 423.832 209.446 424.12 213.096C424.605 220.629 424.342 228.395 421.618 235.523C420.855 237.158 420.031 238.96 418.458 239.962C417.063 240.332 415.587 240.089 414.227 239.719C411.513 238.854 408.884 237.75 406.327 236.515C409.304 229.23 410.613 221.221 409.607 213.384C408.925 209.334 407.53 205.451 406.488 201.487Z" fill="#BB895C" stroke="#BB895C" stroke-width="0.09375"/>
<path opacity="0.88" d="M425.753 203.887C425.5 202.956 425.535 201.984 425.879 201.083C425.859 202.014 425.813 202.951 425.753 203.887Z" fill="#8F7861" stroke="#8F7861" stroke-width="0.09375"/>
<path d="M379.197 235.705C386.612 234.935 394.043 236.024 401.454 236.302C397.01 236.545 392.557 236.348 388.114 236.631C390.383 236.859 392.648 237.122 394.913 237.391C390.889 237.107 386.85 237.462 382.831 237.148C381.482 237.087 380.314 236.378 379.197 235.705Z" fill="#8B5F33" stroke="#8B5F33" stroke-width="0.09375"/>
<path d="M406.402 240.2C406.731 240.155 407.383 240.069 407.712 240.028C411.341 241.34 415.279 241.436 418.918 242.696C420.354 243.025 420.379 244.726 420.723 245.886C421.542 250.371 422.624 254.937 421.987 259.529C421.582 262.693 421.193 265.877 420.359 268.961C419.591 272.023 417.705 274.706 415.471 276.878C414.834 277.587 413.889 276.99 413.166 276.777C410.836 275.699 408.495 274.63 406.14 273.613C405.073 273.066 404.037 272.449 403.005 271.846C404.295 268.748 406.236 265.857 406.68 262.47C407.156 259.028 407.59 255.575 407.808 252.107C408.081 248.068 406.594 244.205 406.402 240.2Z" fill="#AB7954" stroke="#AB7954" stroke-width="0.09375"/>
<path d="M423.923 243.84C423.246 242.453 423.17 240.904 423.943 239.537C424.201 240.96 424.181 242.418 423.923 243.84Z" fill="#8A7157" stroke="#8A7157" stroke-width="0.09375"/>
<path d="M356.04 270.444C360.812 269.857 365.649 270.11 370.442 270.302C370.401 270.667 370.315 271.401 370.275 271.77C366.655 272.317 363.031 271.639 359.412 271.492C358.198 271.477 357.031 271.142 356.04 270.444Z" fill="#563211" stroke="#563211" stroke-width="0.09375"/>
<path d="M402.449 275.248C402.93 275.061 403.41 274.874 403.895 274.681C407.216 277.121 411.801 277.643 414.44 281.019C418.094 285.905 418.201 292.375 417.392 298.176C416.34 302.651 414.091 306.727 411.74 310.635C408.97 310.382 406.205 309.997 403.526 309.238C402.444 308.904 401.302 308.549 400.513 307.704C401.216 303.664 403.471 300.075 404.173 296.03C405.356 289.064 403.769 282.067 402.449 275.248Z" fill="#BB895C" stroke="#BB895C" stroke-width="0.09375"/>
<path opacity="0.56" d="M419.429 282.128C418.762 280.883 418.271 279.384 419.348 278.2C419.394 279.506 419.419 280.817 419.429 282.128Z" fill="#54463C" stroke="#54463C" stroke-width="0.09375"/>
<path opacity="0.69" d="M43.2299 297.802C43.7405 298.87 43.8668 300.064 43.2249 301.112C43.1996 300.004 43.1996 298.9 43.2299 297.802Z" fill="#73604F" stroke="#73604F" stroke-width="0.09375"/>
<path opacity="0.48" d="M40.3738 306.706C40.753 305.76 41.3191 304.909 41.8802 304.064C41.0866 306.377 40.2475 308.686 39.7116 311.075C39.1556 313.996 39.2618 316.993 39.287 319.955C39.3275 324.861 40.7075 329.604 41.5365 334.408C41.582 336.049 41.5618 337.694 41.4505 339.334C40.5811 342.103 39.3629 344.751 38.5743 347.551C38.5541 344.701 39.8734 342.159 40.7277 339.517C41.9156 334.596 39.7167 329.756 39.2163 324.891C38.18 318.851 38.2305 312.513 40.3738 306.706Z" fill="#2E231A" stroke="#2E231A" stroke-width="0.09375"/>
<path opacity="0.76" d="M416.356 314.72C415.658 313.192 415.289 311.435 416.406 310.002C416.517 311.572 416.497 313.151 416.356 314.72Z" fill="#725F4D" stroke="#725F4D" stroke-width="0.09375"/>
<path d="M399.917 310.908C404.123 311.02 408.071 312.518 412.003 313.855C415.582 321.236 416.841 330.045 414.197 337.932C413.075 341.607 411.649 345.445 408.642 348.001C408.485 347.961 408.172 347.885 408.02 347.844C405.543 346.857 403.076 345.743 400.918 344.169C400.276 343.612 399.331 342.888 399.669 341.921C400.296 339.228 402.146 336.945 402.434 334.155C402.768 330.612 402.545 327.048 402.576 323.499C402.687 319.125 400.716 315.125 399.917 310.908Z" fill="#BC895C" stroke="#BC895C" stroke-width="0.09375"/>
<path d="M369.122 313.764C372.034 312.857 375.107 313.227 378.11 313.171C380.41 313.151 382.725 313.121 385.02 313.435C383.766 315.156 381.522 315.034 379.631 315.11C376.093 315.131 372.438 315.151 369.122 313.764Z" fill="#5D3812" stroke="#5D3812" stroke-width="0.09375"/>
<path d="M60.1589 330.105C64.4708 330.677 68.7624 331.573 73.14 331.224C72.9075 331.467 72.675 331.715 72.4475 331.963C76.7796 331.908 81.142 331.892 85.4387 332.561C88.6688 333.082 91.9545 332.824 95.2048 333.188C88.2391 334.601 81.2178 333.118 74.2167 333.097C69.6673 333.183 65.1633 332.601 60.6695 331.984C60.4976 331.351 60.3308 330.723 60.1589 330.105Z" fill="#744D23" stroke="#744D23" stroke-width="0.09375"/>
<path d="M74.2167 333.097C81.2178 333.118 88.2391 334.601 95.2048 333.189C97.4644 332.961 100.002 332.905 101.847 334.454C97.5756 335.158 93.2486 334.51 88.9721 334.171C84.0637 333.669 79.0391 334.403 74.2167 333.097Z" fill="#9C7043" stroke="#9C7043" stroke-width="0.09375"/>
<path opacity="0.76" d="M41.5365 334.409C41.9156 336.034 42.0521 337.74 41.4506 339.334C41.5618 337.694 41.582 336.049 41.5365 334.409Z" fill="#7C6854" stroke="#7C6854" stroke-width="0.09375"/>
<path d="M63.8541 336.646C67.251 336.418 70.7086 336.383 74.0246 337.264C72.3868 338.079 70.5721 338.433 68.7473 338.352C63.6519 338.286 58.5565 338.423 53.4662 338.2C56.9086 337.375 60.624 338.428 63.8541 336.646Z" fill="#885D31" stroke="#885D31" stroke-width="0.09375"/>
<path d="M53.9514 342.817C54.6995 342.159 55.5286 341.461 56.6002 341.572C62.5044 341.547 68.4086 341.972 74.3127 341.891C76.274 341.936 78.3617 341.562 80.1815 342.503C79.8782 342.524 79.2817 342.569 78.9784 342.595C70.6378 342.62 62.2971 343.035 53.9514 342.817Z" fill="#563211" stroke="#563211" stroke-width="0.09375"/>
<path d="M353.103 342.377C355.398 341.324 357.966 341.592 360.418 341.506C363.076 341.425 365.74 341.567 368.389 341.871C368.404 342.488 368.425 343.111 368.45 343.734C366.564 343.729 364.679 343.658 362.824 343.318C359.619 342.681 356.313 343.025 353.103 342.377Z" fill="#5B3512" stroke="#5B3512" stroke-width="0.09375"/>
<path d="M53.9514 342.817C62.2971 343.035 70.6378 342.62 78.9784 342.595C72.4424 343.794 65.7598 343.506 59.1428 343.764C57.3787 343.759 55.3971 344.078 53.9514 342.817Z" fill="#AC7952" stroke="#AC7952" stroke-width="0.09375"/>
<path d="M399.856 345.728C402.414 346.68 404.916 347.824 407.181 349.368C408.323 350.112 409.451 351.089 409.724 352.502C410.608 356.415 411.407 360.475 410.815 364.5C410.558 366.515 409.481 368.282 408.475 370.003C407.272 369.375 406.044 368.768 405.002 367.892C403.117 366.262 401.317 364.535 399.487 362.85C398.739 362.07 397.844 361.346 397.435 360.323C397.531 359.043 398.092 357.853 398.441 356.628C399.619 353.12 399.553 349.373 399.856 345.728Z" fill="#AC7952" stroke="#AC7952" stroke-width="0.09375"/>
<path opacity="0.58" d="M412.731 351.479C413.232 350.001 413.783 348.533 414.5 347.146C414.536 349.895 414.268 352.644 414.303 355.398C414.318 358.638 415.036 361.928 414.167 365.123C414.162 360.455 413.591 355.793 413.929 351.12C413.525 351.236 413.125 351.358 412.731 351.479Z" fill="#49392A" stroke="#49392A" stroke-width="0.09375"/>
<path d="M326.211 353.469C338.752 352.78 351.329 352.355 363.89 352.841C364.077 353.332 364.269 353.828 364.467 354.324C358.906 354.623 353.341 354.436 347.78 354.527C341.537 354.613 335.269 354.243 329.057 354.977C325.164 355.261 321.267 355.474 317.365 355.489C317.294 355.205 317.157 354.638 317.092 354.355C320.13 354.097 323.168 353.757 326.211 353.469Z" fill="#613914" stroke="#613914" stroke-width="0.09375"/>
<path d="M296.518 353.656C299.526 353.12 302.65 352.983 305.647 353.671C306.648 353.849 307.361 354.613 308.094 355.256C305 355.56 301.886 355.337 298.803 355.094C297.827 355.058 297.216 354.208 296.518 353.656Z" fill="#613B14" stroke="#613B14" stroke-width="0.09375"/>
<path d="M315.651 353.59C319.164 353.438 322.687 353.383 326.211 353.469C323.168 353.757 320.13 354.097 317.092 354.355C317.157 354.638 317.294 355.205 317.365 355.489C316.753 355.393 316.146 355.296 315.545 355.21C315.575 354.664 315.611 354.127 315.651 353.59Z" fill="#93683A" stroke="#93683A" stroke-width="0.09375"/>
<path d="M158.22 361.371C163.79 361.204 169.366 361.407 174.936 361.103C180.477 360.789 186.032 360.825 191.582 360.769C220.396 360.723 249.209 360.749 278.022 360.749C302.114 360.673 326.201 360.916 350.287 361.285C361.247 361.331 372.211 361.052 383.165 361.579C387.79 361.852 392.961 361.032 397.01 363.822C399.467 365.518 401.954 367.198 404.229 369.147C405.118 369.937 405.614 371.046 406.17 372.084C402.889 372.413 399.593 372.281 396.308 372.286C390.06 372.382 383.857 371.243 377.604 371.501C368.172 371.906 358.729 371.456 349.297 371.496C337.332 371.415 325.372 371.263 313.407 371.193C304.818 371.086 296.21 370.459 287.647 371.365C264.727 371.42 241.803 371.496 218.879 371.461C165.807 371.906 112.725 371.815 59.6484 371.724C56.762 371.739 53.6936 371.552 51.2066 369.927C48.9622 368.393 46.6673 366.611 45.6411 363.999C52.6473 363.882 59.6939 364.748 66.6646 363.7C75.7838 363.685 84.913 363.629 93.9917 362.693C105.967 362.769 117.937 362.186 129.917 362.318C133.638 362.338 137.313 361.564 141.038 361.609C146.765 361.665 152.493 361.533 158.22 361.371Z" fill="#BC895C" stroke="#BC895C" stroke-width="0.09375"/>
<path opacity="0.77" d="M188.474 374.347C201.298 374.2 214.133 374.372 226.967 374.24C254.092 373.926 281.222 374.078 308.352 374.007C321.191 373.921 334.021 374.235 346.855 374.357C337.569 374.969 328.263 374.767 318.967 374.828C293.02 374.822 267.068 374.807 241.121 374.812C223.57 374.797 206.014 374.924 188.474 374.347Z" fill="#6A594A" stroke="#6A594A" stroke-width="0.09375"/>
<path opacity="0.21" d="M62.4488 375.086C68.5956 374.893 74.7374 375.238 80.8791 375.212C93.1829 375.207 105.482 375.288 117.78 375.071C142.58 375.01 167.384 374.853 192.184 375.055C188.327 375.977 184.349 375.157 180.441 375.511C172.717 376.27 164.953 375.86 157.209 375.967C126.207 375.87 95.1998 376.331 64.2029 375.982C63.4598 376.063 62.9492 375.531 62.4488 375.086Z" fill="#231F1B" stroke="#231F1B" stroke-width="0.09375"/>
</svg>
