<svg width="801" height="701" viewBox="0 0 801 701" fill="none" xmlns="http://www.w3.org/2000/svg">
<path d="M366.244 5.73739C372.479 1.23053 380.584 0.646127 388.099 0.279636C395.037 0.210299 402.398 -0.0670443 408.799 2.97384C416.356 6.57933 422.044 12.8691 426.793 19.4164C433.266 28.0835 430.685 39.3456 430.654 49.2706C428.053 51.1724 425.575 53.2426 423.417 55.6099C418.957 60.5823 413.981 65.1387 409.976 70.4776C410.461 70.6658 411.442 71.0422 411.927 71.2403C413.093 71.7256 414.26 72.2308 415.427 72.7459C403.079 73.0034 390.68 74.093 378.343 73.0331C376.299 72.6567 374.307 72.0426 372.232 71.8346C370.198 71.6365 368.154 71.5573 366.12 71.6266C363.673 68.1004 360.659 65.0198 357.582 62.0186C356.292 60.2753 355.022 58.532 353.628 56.8877C352.09 55.1939 350.386 53.6586 348.652 52.1629C347.196 44.4567 347.217 36.493 347.857 28.7075C350.138 18.9212 357.985 11.3635 366.244 5.73739ZM396.245 6.81705C399.92 10.5216 404.772 12.9285 408.396 16.6628C410.729 20.397 412.33 24.5374 414.023 28.5688C416.841 37.325 412.35 46.616 406.435 53.203C400.374 58.4824 392.167 61.4837 383.99 61.6125C377.579 62.3157 371.55 59.5126 365.191 59.4333C368.567 64.0293 374.699 64.4949 379.706 66.5254C390.205 70.4875 402.398 68.1103 411.431 61.9393C416.604 58.2942 422.426 54.2232 424.016 47.9037C425.41 42.5747 426.938 36.9882 425.678 31.5007C424.161 24.3789 419.37 18.2872 413.806 13.5526C408.417 10.4324 402.842 6.56942 396.245 6.81705ZM369.103 11.6409C362.775 14.7808 357.809 20.5357 355.579 27.0236C354.247 32.6101 354.444 38.5829 355.817 44.1496C357.912 50.489 364.809 53.1435 370.693 55.3722C378.013 58.3834 386.85 59.047 393.974 55.1642C400.416 51.7568 407.694 47.5867 409.253 40.0786C412.03 33.2738 409.243 25.8845 405.34 20.0801C401.128 15.0681 395.182 10.69 388.182 10.6107C381.833 10.4324 375.256 9.91737 369.103 11.6409Z" fill="#094F48" stroke="#094F48" stroke-width="0.09375"/>
<path d="M396.245 6.81699C402.842 6.56936 408.417 10.4324 413.806 13.5525C419.37 18.2872 424.161 24.3789 425.678 31.5007C426.938 36.9881 425.41 42.5747 424.016 47.9036C422.426 54.2231 416.604 58.2942 411.431 61.9393C402.398 68.1102 390.205 70.4874 379.706 66.5254C374.699 64.4948 368.567 64.0293 365.191 59.4333C371.55 59.5125 377.579 62.3157 383.99 61.6124C392.167 61.4836 400.374 58.4824 406.435 53.2029C412.35 46.616 416.841 37.3249 414.023 28.5687C412.33 24.5373 410.729 20.397 408.396 16.6627C404.772 12.9285 399.92 10.5215 396.245 6.81699Z" fill="#0C675E" stroke="#0C675E" stroke-width="0.09375"/>
<path d="M369.103 11.6409C375.256 9.91744 381.833 10.4325 388.182 10.6108C395.181 10.69 401.128 15.0681 405.34 20.0801C409.243 25.8846 412.03 33.2738 409.253 40.0787C407.694 47.5868 400.416 51.7569 393.974 55.1643C386.85 59.0471 378.013 58.3834 370.693 55.3723C364.809 53.1436 357.912 50.489 355.817 44.1497C354.443 38.583 354.247 32.6102 355.579 27.0237C357.809 20.5358 362.775 14.7809 369.103 11.6409ZM367.947 14.4243C363.136 16.7718 359.812 22.4178 361.505 27.5685C363.002 33.1253 369.145 36.2652 374.74 36.7307C381.44 37.5331 386.757 30.9461 387.077 25.0426C386.602 16.3558 375.876 11.4825 367.947 14.4243Z" fill="#12A291" stroke="#12A291" stroke-width="0.09375"/>
<path d="M367.947 14.4242C375.876 11.4823 386.602 16.3557 387.077 25.0425C386.757 30.946 381.44 37.5329 374.74 36.7306C369.145 36.2651 363.002 33.1251 361.505 27.5683C359.812 22.4176 363.136 16.7717 367.947 14.4242Z" fill="#38ECD9" stroke="#38ECD9" stroke-width="0.09375"/>
<path d="M423.417 55.6099C425.575 53.2426 428.053 51.1724 430.654 49.2706C430.407 50.0432 429.911 51.5785 429.663 52.3511C428.239 54.7185 426.473 56.8877 424.656 58.9876C422.426 61.5431 420.041 63.96 417.564 66.2778C415.726 67.9815 413.868 69.6555 411.927 71.2403C411.442 71.0422 410.461 70.6658 409.976 70.4776C413.981 65.1387 418.957 60.5823 423.417 55.6099Z" fill="#325128" stroke="#325128" stroke-width="0.09375"/>
<path d="M348.652 52.163C350.386 53.6586 352.09 55.1939 353.628 56.8877C339.433 67.5556 324.215 76.8665 309.927 87.4155C297.146 96.2806 284.241 104.987 271.749 114.229C257.812 123.51 244.453 133.524 230.887 143.291C226.045 146.569 220.976 149.551 216.341 153.107C201.846 164.052 186.619 174.066 172.093 184.972C154.646 197.977 136.228 209.764 119.08 223.136C108.663 229.891 99.0617 237.687 88.934 244.819C82.6365 249.543 75.864 253.704 69.9897 258.943C64.9 259.033 59.8413 258.468 54.762 258.26C60.1923 255.377 65.9118 252.941 70.8775 249.296C79.6322 243.095 89.1818 237.994 97.668 231.447C107.414 224.562 117.48 218.094 127.225 211.21C132.284 207.446 137.405 203.762 142.69 200.295C151.445 194.51 159.395 187.577 168.789 182.733C172.981 180.683 176.016 177.166 179.64 174.403C194.134 163.457 209.259 153.334 223.877 142.567C230.64 137.07 238.259 132.662 245.052 127.195C257.76 117.517 271.295 108.9 284.045 99.2621C293.822 92.9029 302.628 85.3156 312.332 78.8475C321.758 72.3893 330.482 64.9902 340.248 58.9678C343.366 57.0858 346.236 54.8473 348.652 52.163Z" fill="#EB8B2D" stroke="#EB8B2D" stroke-width="0.09375"/>
<path d="M424.656 58.9875C426.473 56.8876 428.239 54.7184 429.663 52.3511C433.803 56.848 439.409 59.6314 444.54 62.9298C464.486 75.648 483.75 89.3271 503.489 102.352C513.968 109.088 523.91 116.556 534.523 123.104C549.358 133.316 564.679 142.865 579.287 153.384C625.91 183.813 672.13 214.796 718.34 245.779C723.667 249.682 729.748 252.554 734.971 256.576C737.263 258.775 739.349 261.162 741.465 263.519C737.965 263.292 734.476 263.094 730.997 262.747C730.625 262.707 729.871 262.618 729.5 262.578C728.488 259.597 726.145 257.388 723.378 255.843C716.461 251.752 710.287 246.651 703.587 242.263C692.778 235.527 682.051 228.633 671.8 221.135C664.852 216.123 657.202 212.112 650.13 207.278C643.853 202.979 637.091 199.393 630.845 195.055C614.74 183.694 597.777 173.491 581.817 161.942C575.013 157.633 568.365 153.097 562.026 148.164C553.498 142.478 545.311 136.327 536.557 130.968C529.144 126.323 522.847 120.261 515.31 115.784C505.647 109.979 496.717 103.155 487.271 97.0531C479.28 91.8826 471.537 86.3852 463.536 81.2445C456.929 77.015 450.683 72.2506 443.673 68.6055C437.355 65.3566 431.955 60.2257 424.656 58.9875Z" fill="#EB8D2D" stroke="#EB8D2D" stroke-width="0.09375"/>
<path d="M309.927 87.4156C324.215 76.8666 339.433 67.5557 353.628 56.8878C355.022 58.5321 356.292 60.2754 357.582 62.0187C358.449 63.4946 359.265 65.02 360.091 66.5256C352.596 72.8649 344.615 78.6396 336.377 84.0577C327.24 90.3772 318.568 97.2712 309.659 103.868C298.953 111.436 288.33 119.092 277.706 126.769C270.407 131.563 263.903 137.357 256.553 142.082C244.99 149.343 234.511 158.039 223.093 165.508C212.821 171.976 203.478 179.682 193.536 186.596C183.594 194.391 172.754 201.018 162.616 208.556C154.522 214.717 146.149 220.511 137.704 226.237C130.446 231.07 123.994 236.944 116.581 241.56C108.044 246.948 100.228 253.297 91.7318 258.735C84.4845 259.042 77.2371 258.983 69.9897 258.943C75.864 253.704 82.6365 249.543 88.9341 244.819C99.0618 237.687 108.663 229.892 119.08 223.136C136.228 209.764 154.646 197.977 172.093 184.972C186.619 174.066 201.846 164.052 216.341 153.107C220.977 149.551 226.046 146.569 230.887 143.291C244.453 133.524 257.812 123.51 271.749 114.229C284.241 104.987 297.146 96.2807 309.927 87.4156Z" fill="#FCC531" stroke="#FCC531" stroke-width="0.09375"/>
<path d="M417.564 66.2779C420.041 63.9601 422.426 61.5432 424.656 58.9877C431.955 60.2258 437.355 65.3567 443.673 68.6056C450.683 72.2507 456.929 77.0151 463.536 81.2446C471.537 86.3854 479.28 91.8827 487.271 97.0532C496.717 103.155 505.647 109.979 515.31 115.784C522.847 120.261 529.144 126.323 536.557 130.969C545.311 136.327 553.498 142.478 562.026 148.164C568.365 153.097 575.013 157.633 581.817 161.942C597.777 173.491 614.74 183.694 630.845 195.055C637.091 199.393 643.853 202.979 650.13 207.278C657.202 212.112 664.852 216.123 671.8 221.135C682.051 228.634 692.778 235.528 703.587 242.263C710.287 246.651 716.461 251.752 723.378 255.843C726.145 257.388 728.488 259.597 729.5 262.579C722.469 262.133 715.449 261.578 708.491 260.548C678.066 241.689 648.953 220.987 619.096 201.325C602.506 190.162 585.492 179.593 569.16 168.073C560.859 162.081 551.95 156.93 543.649 150.947C537.29 146.421 530.331 142.716 524.137 137.972C516.57 132.207 508.352 127.333 500.31 122.232C491.576 116.834 483.482 110.544 474.737 105.156C468.894 101.58 463.247 97.7367 457.682 93.7647C444.189 84.7807 430.417 76.1236 417.564 66.2779Z" fill="#FDC531" stroke="#FDC531" stroke-width="0.09375"/>
<path d="M357.582 62.0186C360.659 65.0198 363.673 68.1003 366.12 71.6266C356.694 76.1037 348.91 83.0571 340.527 89.0201C325.795 99.3115 311.362 109.979 296.63 120.251C278.997 133.068 260.827 145.172 243.214 158C233.2 164.923 223.444 172.184 213.275 178.9C204.758 185.328 195.931 191.35 187.248 197.561C176.759 205.723 165.527 212.924 154.945 220.957C139.965 231.595 125.264 242.6 110.573 253.594C108.849 254.971 107.176 256.398 105.535 257.864C100.92 257.923 96.3361 258.537 91.7317 258.735C100.228 253.297 108.043 246.948 116.581 241.56C123.994 236.944 130.446 231.07 137.704 226.236C146.149 220.511 154.522 214.717 162.615 208.556C172.754 201.018 183.594 194.391 193.536 186.596C203.477 179.682 212.82 171.976 223.093 165.508C234.511 158.039 244.99 149.343 256.552 142.082C263.903 137.357 270.407 131.563 277.706 126.769C288.329 119.092 298.953 111.435 309.659 103.868C318.568 97.2711 327.24 90.3771 336.377 84.0576C344.615 78.6394 352.596 72.8647 360.091 66.5254C359.265 65.0198 358.449 63.4944 357.582 62.0186Z" fill="#EC8B2D" stroke="#EC8B2D" stroke-width="0.09375"/>
<path d="M411.927 71.2403C413.868 69.6555 415.726 67.9815 417.564 66.2778C430.417 76.1236 444.189 84.7807 457.682 93.7647C463.247 97.7367 468.894 101.58 474.737 105.156C483.482 110.544 491.576 116.834 500.31 122.232C508.352 127.333 516.57 132.207 524.137 137.971C530.331 142.716 537.29 146.421 543.649 150.947C551.95 156.93 560.859 162.081 569.16 168.073C585.492 179.593 602.506 190.162 619.096 201.325C648.953 220.987 678.066 241.689 708.491 260.548C701.161 260.112 693.81 260.122 686.47 260.34C688.122 259.696 689.773 259.062 691.446 258.418C686.139 252.881 679.326 249.048 673.069 244.62C662.456 237.707 652.432 229.971 641.53 223.463C608.06 201.117 574.724 178.573 541.275 156.197C512.863 136.842 483.771 118.419 455.793 98.4894C446.997 92.3581 438.005 86.4844 429.095 80.4918C424.749 77.5994 420.299 74.7666 415.427 72.7459C414.26 72.2308 413.093 71.7257 411.927 71.2403Z" fill="#EB8B2E" stroke="#EB8B2E" stroke-width="0.09375"/>
<path opacity="0.67" d="M372.232 71.8346C374.307 72.0426 376.299 72.6567 378.343 73.0331C376.279 72.736 374.224 72.4289 372.232 71.8346Z" fill="#526E6D" stroke="#526E6D" stroke-width="0.09375"/>
<path opacity="0.49" d="M105.535 257.864C107.176 256.398 108.849 254.971 110.573 253.594C109.953 254.674 109.344 255.764 108.756 256.873C117.923 257.091 127.091 256.764 136.259 256.883C150.629 256.754 165.021 257.19 179.381 256.368C187.94 256.358 196.509 256.19 205.047 256.923L205.914 256.972C197.944 257.378 189.943 257.2 181.973 257.705C173.28 257.2 164.577 257.101 155.874 257.249C145.075 257.467 134.183 256.328 123.488 258.26C117.5 258.854 111.502 258.408 105.535 257.864Z" fill="#35281C" stroke="#35281C" stroke-width="0.09375"/>
<path opacity="0.33" d="M179.381 256.368C199.482 255.358 219.634 254.793 239.755 255.526C228.224 256.804 216.589 255.764 205.047 256.923C196.509 256.19 187.94 256.358 179.381 256.368Z" fill="#413931" stroke="#413931" stroke-width="0.09375"/>
<path opacity="0.76" d="M239.755 255.526C247.003 255.07 254.26 255.278 261.518 255.546C255.613 256.497 249.666 257.259 243.678 257.2C231.094 257.2 218.488 257.745 205.914 256.972L205.046 256.923C216.588 255.764 228.223 256.804 239.755 255.526Z" fill="#533E2C" stroke="#533E2C" stroke-width="0.09375"/>
<path d="M261.518 255.546C270.345 255.09 279.182 255.308 288.02 255.288C323.121 255.268 358.222 255.259 393.323 255.259C439.543 255.447 485.763 254.763 531.973 256.031C545.642 255.962 559.28 257.012 572.959 256.923C586.39 257.002 599.832 256.942 613.274 256.972C619.819 256.952 626.302 257.913 632.837 258.081C652.36 258.458 671.913 259.31 691.446 258.418C689.774 259.062 688.122 259.696 686.47 260.34C693.81 260.122 701.161 260.112 708.491 260.548C715.449 261.578 722.469 262.133 729.5 262.578C729.871 262.618 730.625 262.707 730.997 262.747C736.107 264.094 741.279 265.184 746.555 265.817C753.369 266.947 758.82 271.325 764.56 274.712C773.418 279.903 781.522 286.163 789.543 292.462C792.899 295.216 796.667 297.98 798.216 302.12C801.313 309.341 800.322 317.285 800.466 324.892C800.363 330.112 800.92 335.421 799.795 340.582C798.092 346.604 794.643 351.983 792.341 357.777C791.639 359.54 791.567 361.442 792.083 363.265C796.326 376.121 795.779 389.86 794.705 403.143C794.499 410.542 792.124 417.634 790.917 424.904C790.504 427.717 789.513 430.402 788.387 433.017C786.808 435.691 786.963 438.722 788.346 441.436C789.626 444.715 790.813 448.092 790.917 451.638C791.422 461.89 791.619 472.212 790.658 482.444C789.017 491.903 785.342 501.164 779.003 508.663C776.804 510.98 777.805 513.912 779.168 516.349C785.053 528.126 782.967 541.627 780.541 553.979C779.282 560.07 776.422 565.667 772.994 570.887C770.713 573.69 771.466 577.127 772.891 580.118C775.482 585.655 775.503 591.787 776.608 597.67C778.105 610.092 776.742 622.731 773.211 634.736C772.303 637.856 770.64 640.698 769.102 643.561C767.636 646.275 766.511 649.148 765.489 652.04C766.294 651.802 767.11 651.564 767.936 651.337C767.244 660.479 768.411 669.602 768.421 678.734C767.894 683.479 766.181 688.075 763.868 692.285C762.959 693.988 761.463 695.395 759.615 696.128C753.885 698.753 747.37 698.119 741.228 698.545C720.931 698.951 700.624 698.733 680.327 698.139C633.188 697.931 586.039 698.059 538.9 697.97C464.279 697.832 389.669 698.248 315.058 698.168C264.409 697.772 213.75 698.079 163.101 698.198C137.983 698.624 112.865 698.465 87.7363 698.475C75.1928 698.525 62.6493 697.851 50.0955 698.228C43.0339 697.94 35.9414 698.267 28.8799 697.921C26.0202 697.851 24.1412 695.484 22.1797 693.81C16.0783 687.778 9.21288 682.528 2.79142 676.823C-0.419304 674.336 0.778263 670.048 0.561461 666.62C0.995064 659.211 -0.0786196 651.683 1.33575 644.354C2.94628 638.876 5.43434 633.696 7.21004 628.277C8.43859 625.157 8.15984 621.819 7.38555 618.64C5.69243 609.24 2.87401 599.959 2.79142 590.36C2.7398 584.566 2.523 578.702 3.65863 572.987C4.75296 568.311 6.46672 563.795 8.08757 559.268C8.86186 557.287 9.9562 555.435 10.8337 553.493C12.1449 551.443 11.8868 549.105 10.844 547.015C6.64223 537.249 4.27806 526.64 4.6394 516.062C4.78393 509.534 4.23676 502.957 5.36207 496.499C7.22037 485.237 9.61551 473.965 14.0548 463.346C16.1712 457.552 18.9793 451.876 19.7019 445.725C19.8361 438.99 17.5339 432.522 16.4189 425.935C15.6034 419.358 16.1299 412.731 16.0576 406.134C15.8924 397.586 17.6268 389.176 18.8554 380.747C20.755 371.892 22.7578 362.967 26.2163 354.538C28.2088 351.19 27.8062 347.357 26.3608 343.91C24.0999 336.303 21.777 328.686 20.3317 320.91C19.7329 312.332 19.5574 303.586 21.5396 295.157C23.5734 285.648 25.793 275.911 30.955 267.462C33.5153 263.44 38.7598 262.856 43.1062 261.875C47.1325 261.112 50.7975 259.201 54.7618 258.26C59.8412 258.468 64.8999 259.032 69.9896 258.943C77.2369 258.983 84.4843 259.042 91.7317 258.735C96.3361 258.537 100.92 257.923 105.535 257.864C111.502 258.408 117.5 258.854 123.488 258.26C132.201 258.993 140.956 259.013 149.69 258.745C160.458 258.339 171.277 259.25 181.973 257.705C189.943 257.2 197.944 257.378 205.914 256.972C218.488 257.745 231.094 257.2 243.679 257.2C249.666 257.259 255.613 256.497 261.518 255.546ZM191.997 263.212C177.244 264.579 162.409 263.836 147.605 264.163C131.757 264.421 115.89 263.777 100.063 264.896C81.3871 265.065 62.4841 264.619 44.1386 268.482C39.4412 269.888 35.4355 273.355 33.6702 277.793C30.4285 285.766 28.1882 294.097 26.4434 302.476C24.3167 314.254 28.1778 325.892 30.7588 337.293C32.5758 342.434 34.7335 349.061 40.6285 350.962C48.2372 351.418 55.6807 353.082 63.2687 353.686C54.7618 356.41 45.9865 353.686 37.3248 354.033C34.7025 353.785 33.7114 356.271 32.6584 358.074C28.7766 373.913 23.4908 389.701 23.3876 406.134C23.2224 416.99 23.0985 428.094 26.5157 438.564C27.7133 441.822 29.2515 444.953 30.511 448.191C40.009 449.915 49.7135 450.242 59.2011 452.055C49.3625 455.214 39.0489 451.084 29.0657 452.639C26.4538 452.916 25.6898 455.531 24.7813 457.483C22.9849 462.029 20.5175 466.328 19.1651 471.033C16.357 481.295 12.7849 491.517 12.2584 502.204C11.9487 508.811 11.9797 515.438 12.3823 522.035C13.0534 531.89 16.3054 541.35 20.0943 550.462C29.9639 552.76 40.1742 552.869 50.271 553.176C50.2606 553.691 50.24 554.712 50.2297 555.217C42.9204 555.395 35.611 555.573 28.3121 555.157C25.6898 555.138 22.9643 554.751 20.4246 555.514C12.5578 564.221 8.63474 575.909 8.72766 587.379C8.61409 596.125 11.6493 604.475 13.394 612.964C14.2303 615.589 14.4471 618.897 17.09 620.532C20.8479 623.008 25.5866 622.612 29.9123 622.671C37.6035 622.542 45.2845 622.76 52.9655 623.018C46.3685 626.504 38.7805 624.444 31.7499 626.059C26.8667 626.049 21.8596 625.375 17.059 626.524C14.5297 629.347 13.6005 633.121 11.9281 636.429C6.94162 646.919 5.06268 659.122 8.58312 670.305C14.2922 671.256 20.0633 671.999 25.8653 672.197L24.678 672.246C27.3003 673.346 30.1084 674.029 32.9888 673.95C47.7932 673.841 62.5977 673.94 77.4021 673.584C80.9329 673.465 84.4533 673.673 87.9531 674.069C82.3886 674.584 76.8033 674.564 71.2181 674.475C67.0163 674.485 62.5667 673.98 58.7056 675.951C44.4689 678.001 30.0774 676.308 15.7685 676.535C17.8643 681.647 22.5513 685.133 27.1351 688.134C32.2145 691.314 38.4811 691.68 44.376 691.651C152.777 691.829 261.188 692.007 369.578 691.136C416.397 691.205 463.216 691.056 510.024 690.947C527.513 689.174 545.095 690.403 562.635 690.611C587.072 690.749 611.498 691.047 635.934 691.205C655.199 691.126 674.484 692.007 693.748 691.215C706.519 690.71 719.186 692.938 731.947 692.75C738.657 692.74 745.388 692.998 752.088 692.354C750.953 690.323 749.941 688.154 748.124 686.609C748.516 685.995 749.311 684.767 749.704 684.153C751.83 685.866 754.339 687.055 756.796 688.283C758.851 684.915 761.05 681.458 761.576 677.516C762.784 669.641 761.153 661.697 759.346 654.041C758.789 651.277 756.486 649.366 754.153 647.909C754.711 646.909 755.279 645.909 755.867 644.928C756.177 645.007 756.817 645.156 757.137 645.235C763.28 640.233 766.191 632.725 768.483 625.534C773.882 610.101 771.312 592.866 764.002 578.425C763.445 577.533 762.908 576.652 762.371 575.77C764.043 575.374 765.726 574.978 767.419 574.582C766.449 574.255 765.489 573.938 764.539 573.621C764.271 573.244 763.734 572.501 763.465 572.125C768.266 564.478 772.86 556.505 775.007 547.748C776.659 536.397 776.442 523.738 768.978 514.18C763.589 507.573 754.226 506.553 747.443 501.778C749.002 501.164 750.509 500.421 752.027 499.688C756.837 501.679 761.617 503.769 766.377 505.879C767.853 506.295 769.784 507.464 771.084 506.077C775.648 501.828 779.498 496.578 781.068 490.586C782.771 484.553 783.566 478.323 784.392 472.132C785.693 463.148 783.483 454.214 781.811 445.438C781.109 443.17 781.057 439.841 778.125 439.198C770.692 436.731 762.65 436.543 755.237 433.978C755.268 432.858 755.31 431.749 755.371 430.64C759.594 432.155 764.002 433.274 768.545 433.373C771.322 434.096 774.336 434.572 777.186 433.849C780.397 431.888 782.079 428.361 783.638 425.162C789.203 411.215 789.74 396.021 788.749 381.282C788.16 374.14 785.796 367.217 782.389 360.867C775.513 359.788 768.648 358.312 761.659 358.322C762.206 357.48 762.763 356.638 763.331 355.806C770.465 355.638 777.64 356.004 784.578 357.747C785.249 356.489 785.92 355.241 786.622 354.003C789.1 349.803 791.65 345.475 792.414 340.631C793.57 333.46 793.116 326.18 793.301 318.959C793.27 314.145 793.745 309.014 791.309 304.616C787.696 297.781 781.006 293.195 774.471 289.134C769.03 285.905 764.002 282.082 758.345 279.199C758.685 282.428 759.387 285.618 760.275 288.748C760.038 291.531 759.8 294.315 759.676 297.118C758.871 295.513 758.066 293.928 757.24 292.353C755.97 288.005 754.009 283.884 752.285 279.695C751.273 277.852 750.592 275.346 748.3 274.653C743.788 273.167 738.977 272.781 734.3 272.048C721.809 270.582 709.337 269.017 696.866 267.472C688.225 267.264 679.697 265.451 671.036 265.808C657.449 265.55 643.874 264.767 630.308 264.035C619.086 263.856 607.853 264.025 596.673 262.985C569.149 262.836 541.636 262.153 514.113 262.182C430.149 262.133 346.184 261.855 262.22 262.153C238.806 262.153 215.412 263.123 191.997 263.212ZM307.48 696.782C343.304 697.911 379.159 697.663 415.003 697.693C467.996 697.683 520.999 697.713 573.991 697.723C592.977 697.604 611.983 698 630.948 696.801C604.736 696.564 578.534 695.95 552.311 696.118C496.903 696.257 441.494 695.959 386.097 696.574C359.884 696.831 333.672 696.494 307.48 696.782Z" fill="#543217" stroke="#543217" stroke-width="0.09375"/>
<path opacity="0.84" d="M734.972 256.576C739.318 259.032 743.541 261.855 746.555 265.817C741.28 265.184 736.107 264.094 730.997 262.747C734.476 263.094 737.966 263.292 741.465 263.519C739.349 261.162 737.264 258.775 734.972 256.576Z" fill="#975F27" stroke="#975F27" stroke-width="0.09375"/>
<path opacity="0.95" d="M123.488 258.26C134.183 256.328 145.075 257.467 155.874 257.249C164.577 257.101 173.28 257.2 181.973 257.705C171.277 259.25 160.458 258.339 149.69 258.745C140.956 259.013 132.201 258.993 123.488 258.26Z" fill="#5F4834" stroke="#5F4834" stroke-width="0.09375"/>
<path d="M191.997 263.212C215.412 263.123 238.806 262.153 262.22 262.153C346.184 261.855 430.148 262.133 514.113 262.182C541.636 262.153 569.149 262.836 596.673 262.985C607.853 264.025 619.086 263.856 630.308 264.035C643.873 264.768 657.449 265.55 671.036 265.808C679.697 265.451 688.225 267.264 696.866 267.472C709.337 269.017 721.808 270.582 734.3 272.048C738.977 272.781 743.788 273.167 748.299 274.653C750.591 275.346 751.273 277.852 752.284 279.695C754.009 283.885 755.97 288.005 757.24 292.353C758.665 301.129 758.396 310.064 758.252 318.919C758.19 325.754 756.156 332.37 753.513 338.66C751.861 342.493 750.364 346.515 747.566 349.734C746.338 351.269 744.18 351.289 742.363 351.428C734.569 351.804 726.568 350.368 718.98 352.706C727.93 354.479 738.936 352.131 746.018 358.936C752.532 366.91 754.907 377.35 755.124 387.314C755.361 397.774 755.888 408.759 751.066 418.456C749.311 421.923 746.999 426.39 742.456 426.687C727.321 426.143 712.145 424.013 697 425.519C699.282 426.836 701.666 428.223 704.423 428.342C712.63 428.956 720.879 428.262 729.097 428.817C733.763 429.362 738.523 429.817 742.962 431.373C745.822 432.214 746.802 435.196 747.752 437.613C750.922 446.587 751.262 456.235 750.54 465.615C749.662 476.233 745.13 486.307 738.894 495.023C721.21 495.261 703.556 491.943 685.881 493.607C687.791 495.241 689.877 497.034 692.633 496.915C705.404 497.638 718.247 497.559 730.966 499.114C733.144 499.481 735.436 499.788 737.366 500.917C740.391 504.592 741.382 509.366 742.714 513.784C746.534 527.522 743.974 542.093 739.049 555.257C737.8 558.377 736.881 561.705 734.909 564.508C731.771 566.023 728.127 565.934 724.709 566.122C707.417 566.113 690.114 566.43 672.853 565.221C672.863 566.043 672.883 567.688 672.904 568.52C680.533 568.777 688.183 568.856 695.823 568.886C705.032 568.817 714.179 570.154 723.388 570.114C727.239 570.342 732.308 570.312 734.228 574.235C740.484 586.161 741.868 599.969 740.226 613.093C739.142 619.214 736.912 625.217 733.567 630.536C732.132 633.28 728.529 633.032 725.824 633.24C715.459 633.21 705.104 633.111 694.749 633.062C691.456 633.032 688.204 633.488 685.004 634.191C699.271 638.826 714.633 634.914 729.19 637.747C732.494 638.351 733.423 641.887 734.197 644.562C735.281 650.019 735.601 656.2 732.463 661.133C730.16 664.808 726 666.997 721.746 667.928C713.188 669.849 704.289 668.968 695.741 667.492C684.849 665.57 673.761 666.789 662.776 666.472C566.073 666.571 469.379 665.848 372.675 666.185C326.218 666.313 279.75 666.333 233.293 666.868C224.672 666.987 216.134 668.512 207.493 668.176C177.523 667.759 147.615 670.137 117.644 670.097C105.638 671.088 93.5692 671.038 81.5522 671.771C62.9898 672.256 44.4172 671.771 25.8652 672.197C20.0631 671.999 14.2921 671.256 8.58299 670.305C5.06255 659.122 6.94149 646.919 11.9279 636.429C13.6004 633.121 14.5295 629.347 17.0589 626.524C21.8595 625.375 26.8666 626.049 31.7498 626.059C42.1459 626.495 52.5524 626.227 62.9589 626.356C66.6858 626.514 70.3921 625.821 73.737 624.226C66.9645 622.503 59.903 622.572 52.9654 623.018C45.2844 622.76 37.6034 622.542 29.9121 622.671C25.5864 622.612 20.8478 623.008 17.0899 620.532C14.447 618.897 14.2302 615.589 13.3939 612.964C11.6492 604.475 8.61396 596.125 8.72753 587.379C8.63461 575.909 12.5577 564.221 20.4245 555.514C22.9642 554.751 25.6897 555.138 28.3119 555.157C35.6109 555.573 42.9202 555.395 50.2295 555.217C50.2399 554.712 50.2605 553.691 50.2708 553.176C40.1741 552.869 29.9638 552.76 20.0941 550.462C16.3053 541.35 13.0532 531.89 12.3822 522.035C11.9796 515.438 11.9486 508.811 12.2583 502.204C12.7848 491.517 16.3569 481.295 19.165 471.033C20.5174 466.328 22.9848 462.029 24.7812 457.483C25.6897 455.531 26.4536 452.916 29.0656 452.639C39.0488 451.084 49.3623 455.214 59.201 452.055C49.7133 450.242 40.0089 449.915 30.5109 448.192C29.2514 444.953 27.7131 441.823 26.5156 438.564C23.0984 428.094 23.2223 416.99 23.3874 406.134C23.4907 389.701 28.7765 373.913 32.6583 358.074C34.5579 356.707 36.664 355.38 39.121 355.271C51.4581 354.251 63.7125 357.946 76.0289 356.281C72.333 353.657 67.7079 353.28 63.2686 353.686C55.6805 353.082 48.237 351.418 40.6283 350.962C34.7334 349.061 32.5757 342.434 30.7587 337.293C28.1777 325.892 24.3166 314.254 26.4433 302.477C28.188 294.097 30.4283 285.767 33.67 277.793C35.4354 273.355 39.4411 269.889 44.1384 268.482C62.484 264.619 81.387 265.065 100.063 264.896C115.889 263.777 131.757 264.421 147.604 264.163C162.409 263.836 177.244 264.579 191.997 263.212ZM649.706 493.488C651.73 494.855 654.115 495.509 656.592 495.538C663.984 495.826 671.387 497.153 678.778 496.083C678.861 495.36 679.037 493.924 679.119 493.211C669.332 492.834 659.452 492.339 649.706 493.488ZM676.425 578.246C683.197 580.96 690.661 580.921 697.888 580.881C701.749 580.733 706.333 580.97 708.893 577.603C704.206 576.988 699.478 577.048 694.78 577.088C688.648 577.196 682.371 576.473 676.425 578.246ZM45.4186 610.22C45.7696 611.429 46.1103 612.657 46.4613 613.895C55.6392 615.104 64.8378 616.243 74.1293 616.074C83.9783 618.63 94.2402 617.194 104.265 618.174C112.999 618.838 121.836 620.106 130.56 618.729C126.791 615.698 121.609 615.807 116.994 616.253C110.356 615.539 103.645 616.045 97.0483 615.024C88.273 613.717 79.3635 613.747 70.516 613.856C70.9805 613.37 71.4554 612.885 71.9303 612.409C62.9899 613.093 54.2249 611.34 45.4186 610.22ZM32.7409 635.092C35.6935 637.559 39.7405 636.935 43.3435 636.944C56.8575 636.439 70.5056 637.004 83.8544 634.656C84.4739 634.607 85.6921 634.518 86.3115 634.478C82.5949 632.636 78.3311 633.369 74.3255 633.28C62.2672 633.438 50.2089 632.606 38.1506 632.656C35.9619 632.438 34.2688 633.805 32.7409 635.092ZM643.708 634.23C650.264 635.498 657.016 634.825 663.561 636.073C667.35 636.736 671.201 636.875 675.052 636.885C675 635.667 674.959 634.448 674.928 633.24C669.518 632.646 664.077 632.368 658.647 632.527C653.64 632.695 648.395 632.17 643.708 634.23ZM588.785 655.933C581.589 655.764 574.394 655.873 567.219 656.17C567.136 657.22 567.064 658.27 567.002 659.34C568.23 659.509 569.469 659.697 570.718 659.885C578.688 659.855 586.648 659.439 594.598 658.884C607.286 657.448 620.087 658.171 632.837 658.003C644.193 657.825 655.56 658.191 666.916 657.607C666.514 656.636 666.121 655.665 665.739 654.704C640.085 653.754 614.399 654.586 588.785 655.933ZM528.143 656.299C529.567 657.379 530.817 659.043 532.809 659.112C539.107 659.588 545.466 660.024 551.784 659.429C550.287 658.171 548.832 656.676 546.788 656.329C540.666 654.982 534.285 655.249 528.143 656.299Z" fill="#EDBE85" stroke="#EDBE85" stroke-width="0.09375"/>
<path d="M758.345 279.199C764.002 282.082 769.03 285.905 774.471 289.134C781.006 293.195 787.696 297.781 791.309 304.616C793.746 309.014 793.271 314.145 793.302 318.959C793.116 326.18 793.57 333.46 792.414 340.631C791.65 345.475 789.1 349.803 786.622 354.003C782.555 354.875 778.384 355.39 774.223 354.944C767.007 354.251 759.78 353.716 752.543 353.28C754.928 346.753 758.779 340.81 760.967 334.223C765.066 319.365 764.591 303.517 760.276 288.748C759.388 285.618 758.686 282.428 758.345 279.199Z" fill="#AB7953" stroke="#AB7953" stroke-width="0.09375"/>
<path d="M760.275 288.748C764.591 303.517 765.066 319.365 760.967 334.223C758.778 340.81 754.927 346.753 752.543 353.28C759.78 353.716 767.006 354.251 774.223 354.944C778.383 355.39 782.554 354.875 786.622 354.003C785.92 355.241 785.249 356.49 784.578 357.747C777.64 356.004 770.465 355.638 763.331 355.806C762.763 356.638 762.206 357.48 761.659 358.322C758.675 358.322 755.702 358.441 752.739 358.57C754.866 366.325 757.715 373.923 759.109 381.847C761.163 397.18 758.489 412.85 752.408 427.103C757.632 429.52 763.001 431.68 768.545 433.373C764.002 433.274 759.594 432.155 755.371 430.64C755.309 431.749 755.268 432.858 755.237 433.978C754.566 434.057 753.234 434.225 752.563 434.314C752.956 442.149 755.991 449.707 755.433 457.611C754.989 464.396 754.102 471.152 753.131 477.887C752.223 484.514 748.258 490.17 745.626 496.232C747.732 497.41 749.848 498.619 752.026 499.689C750.509 500.422 749.002 501.164 747.443 501.779C746.452 502.155 745.471 502.521 744.49 502.888C747.185 516.23 750.426 529.919 748.01 543.549C746.575 551.463 741.971 558.486 740.536 566.39C742.147 568.044 744.48 568.738 746.689 569.391C752.161 570.877 757.808 571.63 763.465 572.125C763.734 572.501 764.271 573.244 764.539 573.621C765.489 573.938 766.449 574.255 767.419 574.582C765.726 574.978 764.043 575.374 762.371 575.77C762.908 576.652 763.445 577.533 764.002 578.425C755.97 575.81 747.907 572.878 739.318 572.66C740.949 580.911 744.975 588.736 744.748 597.294C744.686 604.238 745.14 611.211 744.459 618.145C743.871 623.602 740.092 628.07 738.812 633.339C738.12 635.231 740.051 636.647 741.362 637.737C745.77 640.818 750.808 642.997 755.867 644.928C755.278 645.909 754.711 646.909 754.153 647.91C749.528 644.889 744.418 642.65 739.194 640.788C738.574 647.919 738.709 655.249 736.303 662.114C735.591 664.511 734.445 666.838 734.249 669.344C735.085 671.345 736.912 672.762 738.44 674.287C742.177 677.585 745.853 680.963 749.704 684.153C749.311 684.767 748.516 685.995 748.124 686.609C743.478 682.796 738.399 679.507 733.382 676.189C725.112 670.731 714.551 672.336 705.104 671.801C682.733 670.771 660.34 671.316 637.958 671.226C588.765 670.503 539.571 670.028 490.368 670.176C431.522 670.176 372.675 670.127 313.829 670.216C302.494 670.325 291.148 670.256 279.833 670.87C268.456 671.464 257.069 671.068 245.692 671.395C233.995 671.712 222.298 671.969 210.601 671.86C202.992 671.771 195.487 673.287 187.888 673.247C163.421 672.989 138.974 674.129 114.516 673.98C95.9747 675.812 77.3298 675.921 58.7055 675.951C62.5666 673.98 67.0162 674.485 71.218 674.475C76.8033 674.564 82.3885 674.584 87.9531 674.069C84.4533 673.673 80.9328 673.465 77.4021 673.584C62.5976 673.94 47.7932 673.841 32.9887 673.95C30.1083 674.03 27.3002 673.346 24.678 672.247L25.8652 672.197C44.4172 671.771 62.9899 672.257 81.5522 671.771C93.5692 671.038 105.638 671.088 117.645 670.097C147.615 670.137 177.523 667.76 207.493 668.176C216.134 668.512 224.672 666.987 233.293 666.868C279.75 666.333 326.218 666.313 372.675 666.185C469.379 665.848 566.073 666.571 662.777 666.472C673.761 666.789 684.849 665.571 695.741 667.492C704.289 668.968 713.188 669.85 721.747 667.928C726 666.997 730.16 664.808 732.463 661.133C735.601 656.2 735.281 650.019 734.197 644.562C733.423 641.887 732.494 638.351 729.19 637.747C714.633 634.914 699.271 638.827 685.004 634.191C688.204 633.488 691.456 633.032 694.75 633.062C705.104 633.111 715.459 633.21 725.824 633.24C728.529 633.032 732.132 633.28 733.567 630.536C736.912 625.217 739.142 619.214 740.226 613.093C741.868 599.969 740.484 586.161 734.228 574.235C732.308 570.312 727.239 570.342 723.388 570.114C714.179 570.154 705.032 568.817 695.823 568.886C688.184 568.856 680.534 568.777 672.904 568.52C672.884 567.688 672.863 566.043 672.853 565.221C690.114 566.43 707.417 566.113 724.709 566.123C728.127 565.934 731.771 566.024 734.909 564.508C736.881 561.705 737.8 558.377 739.049 555.257C743.974 542.093 746.534 527.522 742.714 513.784C741.383 509.366 740.391 504.592 737.367 500.917C735.436 499.788 733.144 499.481 730.966 499.114C718.247 497.559 705.404 497.638 692.633 496.915C689.877 497.034 687.791 495.241 685.881 493.607C703.556 491.943 721.21 495.261 738.894 495.023C745.13 486.307 749.662 476.233 750.54 465.615C751.263 456.235 750.922 446.587 747.752 437.613C746.803 435.196 745.822 432.215 742.962 431.373C738.523 429.818 733.764 429.362 729.097 428.817C724.472 428.292 719.847 427.777 715.211 427.331C724.286 426.777 733.382 427.163 742.456 426.687C746.999 426.39 749.311 421.923 751.066 418.456C755.888 408.759 755.361 397.774 755.124 387.314C754.907 377.35 752.532 366.91 746.018 358.936C738.936 352.131 727.931 354.479 718.98 352.706C726.568 350.368 734.569 351.804 742.363 351.428C744.18 351.289 746.338 351.269 747.567 349.734C750.364 346.515 751.861 342.493 753.513 338.66C756.156 332.37 758.19 325.754 758.252 318.919C758.396 310.064 758.665 301.129 757.24 292.354C758.066 293.928 758.871 295.513 759.676 297.118C759.8 294.315 760.038 291.531 760.275 288.748Z" fill="#5B3413" stroke="#5B3413" stroke-width="0.09375"/>
<path d="M26.3607 343.91C27.806 347.357 28.2087 351.19 26.2162 354.538C25.6277 351.012 25.6587 347.416 26.3607 343.91Z" fill="#7F6C55" stroke="#7F6C55" stroke-width="0.09375"/>
<path d="M32.6582 358.074C33.7112 356.271 34.7023 353.785 37.3246 354.033C45.9863 353.686 54.7616 356.41 63.2685 353.686C67.7078 353.28 72.3329 353.657 76.0288 356.281C63.7124 357.945 51.458 354.251 39.121 355.271C36.6639 355.38 34.5578 356.707 32.6582 358.074Z" fill="#9F7341" stroke="#9F7341" stroke-width="0.09375"/>
<path d="M752.739 358.57C755.702 358.441 758.675 358.322 761.658 358.322C768.648 358.312 775.513 359.788 782.389 360.868C785.796 367.217 788.16 374.141 788.748 381.282C789.739 396.021 789.203 411.216 783.638 425.162C782.079 428.361 780.396 431.888 777.186 433.849C774.336 434.572 771.322 434.097 768.544 433.373C763.001 431.68 757.632 429.52 752.408 427.103C758.489 412.85 761.163 397.18 759.108 381.847C757.715 373.923 754.865 366.325 752.739 358.57Z" fill="#BB895C" stroke="#BB895C" stroke-width="0.09375"/>
<path opacity="0.88" d="M792.083 363.265C791.567 361.442 791.639 359.54 792.341 357.777C792.3 359.6 792.207 361.432 792.083 363.265Z" fill="#8F7861" stroke="#8F7861" stroke-width="0.09375"/>
<path d="M697 425.519C712.145 424.013 727.321 426.143 742.456 426.687C733.381 427.163 724.286 426.777 715.211 427.331C719.847 427.777 724.472 428.292 729.097 428.817C720.879 428.262 712.63 428.956 704.423 428.342C701.666 428.223 699.282 426.836 697 425.519Z" fill="#8B5F33" stroke="#8B5F33" stroke-width="0.09375"/>
<path d="M752.564 434.314C753.235 434.225 754.566 434.057 755.238 433.978C762.65 436.543 770.692 436.731 778.126 439.198C781.058 439.842 781.109 443.17 781.811 445.438C783.484 454.214 785.693 463.148 784.392 472.132C783.566 478.323 782.771 484.554 781.068 490.586C779.499 496.578 775.648 501.828 771.085 506.077C769.784 507.464 767.853 506.295 766.377 505.879C761.618 503.769 756.838 501.679 752.027 499.689C749.848 498.619 747.732 497.41 745.626 496.232C748.259 490.17 752.223 484.514 753.131 477.887C754.102 471.152 754.99 464.396 755.434 457.611C755.991 449.707 752.956 442.149 752.564 434.314Z" fill="#AB7954" stroke="#AB7954" stroke-width="0.09375"/>
<path d="M788.346 441.436C786.962 438.722 786.807 435.691 788.387 433.017C788.914 435.8 788.872 438.653 788.346 441.436Z" fill="#8A7157" stroke="#8A7157" stroke-width="0.09375"/>
<path d="M649.707 493.488C659.452 492.339 669.332 492.834 679.119 493.21C679.037 493.924 678.861 495.36 678.779 496.083C671.387 497.153 663.984 495.825 656.593 495.538C654.115 495.509 651.73 494.855 649.707 493.488Z" fill="#563211" stroke="#563211" stroke-width="0.09375"/>
<path d="M744.49 502.888C745.471 502.521 746.452 502.155 747.443 501.779C754.226 506.553 763.589 507.573 768.978 514.18C776.443 523.738 776.659 536.397 775.008 547.748C772.86 556.505 768.266 564.478 763.465 572.125C757.808 571.63 752.161 570.877 746.689 569.391C744.48 568.738 742.147 568.044 740.536 566.39C741.971 558.486 746.576 551.463 748.011 543.549C750.426 529.919 747.185 516.23 744.49 502.888Z" fill="#BB895C" stroke="#BB895C" stroke-width="0.09375"/>
<path opacity="0.56" d="M779.168 516.349C777.805 513.912 776.804 510.98 779.003 508.663C779.096 511.218 779.147 513.784 779.168 516.349Z" fill="#54463C" stroke="#54463C" stroke-width="0.09375"/>
<path opacity="0.69" d="M10.844 547.016C11.8867 549.105 12.1448 551.443 10.8337 553.493C10.782 551.324 10.782 549.165 10.844 547.016Z" fill="#73604F" stroke="#73604F" stroke-width="0.09375"/>
<path opacity="0.48" d="M5.01093 564.439C5.78522 562.586 6.94149 560.922 8.08744 559.268C6.46659 563.795 4.75282 568.311 3.65849 572.987C2.52286 578.702 2.73967 584.566 2.79129 590.36C2.87388 599.959 5.6923 609.24 7.38541 618.64C7.47833 621.849 7.43703 625.068 7.20991 628.277C5.4342 633.696 2.94614 638.876 1.33562 644.354C1.29432 638.777 3.98886 633.805 5.73359 628.634C8.15971 619.006 3.66882 609.537 2.64676 600.018C0.53036 588.201 0.633599 575.8 5.01093 564.439Z" fill="#2E231A" stroke="#2E231A" stroke-width="0.09375"/>
<path opacity="0.76" d="M772.891 580.119C771.467 577.127 770.713 573.69 772.994 570.887C773.222 573.958 773.18 577.048 772.891 580.119Z" fill="#725F4D" stroke="#725F4D" stroke-width="0.09375"/>
<path d="M739.318 572.66C747.907 572.878 755.97 575.81 764.002 578.425C771.311 592.866 773.882 610.101 768.483 625.534C766.191 632.725 763.279 640.233 757.137 645.235C756.817 645.156 756.177 645.007 755.867 644.928C750.808 642.997 745.77 640.817 741.362 637.737C740.051 636.647 738.12 635.231 738.812 633.339C740.092 628.069 743.871 623.602 744.459 618.144C745.14 611.211 744.686 604.238 744.748 597.294C744.975 588.736 740.949 580.911 739.318 572.66Z" fill="#BC895C" stroke="#BC895C" stroke-width="0.09375"/>
<path d="M676.424 578.247C682.371 576.473 688.648 577.197 694.78 577.088C699.478 577.048 704.206 576.989 708.893 577.603C706.333 580.97 701.749 580.733 697.888 580.881C690.661 580.921 683.197 580.961 676.424 578.247Z" fill="#5D3812" stroke="#5D3812" stroke-width="0.09375"/>
<path d="M45.4187 610.22C54.225 611.34 62.9899 613.093 71.9304 612.41C71.4555 612.885 70.9806 613.37 70.5161 613.856C79.3636 613.747 88.2731 613.717 97.0484 615.024C103.645 616.045 110.356 615.54 116.994 616.253C102.768 619.016 88.428 616.114 74.1294 616.074C64.8379 616.243 55.6393 615.104 46.4614 613.895C46.1104 612.657 45.7697 611.429 45.4187 610.22Z" fill="#744D23" stroke="#744D23" stroke-width="0.09375"/>
<path d="M74.1294 616.074C88.428 616.114 102.768 619.016 116.994 616.253C121.609 615.807 126.792 615.698 130.56 618.729C121.836 620.106 112.999 618.838 104.265 618.174C94.2403 617.194 83.9784 618.63 74.1294 616.074Z" fill="#9C7043" stroke="#9C7043" stroke-width="0.09375"/>
<path opacity="0.76" d="M7.38547 618.64C8.15976 621.819 8.4385 625.157 7.20996 628.278C7.43709 625.068 7.47838 621.849 7.38547 618.64Z" fill="#7C6854" stroke="#7C6854" stroke-width="0.09375"/>
<path d="M52.9656 623.018C59.9032 622.572 66.9648 622.503 73.7372 624.226C70.3923 625.821 66.686 626.514 62.9591 626.356C52.5526 626.227 42.1461 626.495 31.75 626.059C38.7806 624.444 46.3686 626.504 52.9656 623.018Z" fill="#885D31" stroke="#885D31" stroke-width="0.09375"/>
<path d="M32.741 635.092C34.2689 633.805 35.962 632.438 38.1507 632.656C50.209 632.606 62.2673 633.438 74.3256 633.28C78.3312 633.369 82.595 632.636 86.3116 634.478C85.6921 634.518 84.4739 634.607 83.8545 634.656C66.8201 634.706 49.7857 635.518 32.741 635.092Z" fill="#563211" stroke="#563211" stroke-width="0.09375"/>
<path d="M643.708 634.231C648.396 632.17 653.64 632.695 658.647 632.527C664.077 632.368 669.518 632.646 674.928 633.24C674.959 634.448 675 635.667 675.052 636.885C671.201 636.875 667.35 636.737 663.561 636.073C657.016 634.825 650.264 635.498 643.708 634.231Z" fill="#5B3512" stroke="#5B3512" stroke-width="0.09375"/>
<path d="M32.741 635.092C49.7857 635.518 66.8201 634.706 83.8545 634.656C70.5057 637.004 56.8576 636.439 43.3436 636.945C39.7406 636.935 35.6936 637.559 32.741 635.092Z" fill="#AC7952" stroke="#AC7952" stroke-width="0.09375"/>
<path d="M739.194 640.788C744.418 642.65 749.528 644.888 754.153 647.909C756.487 649.365 758.789 651.277 759.346 654.041C761.153 661.697 762.784 669.641 761.576 677.516C761.05 681.458 758.851 684.915 756.796 688.283C754.339 687.055 751.831 685.866 749.704 684.152C745.853 680.963 742.178 677.585 738.441 674.287C736.913 672.762 735.085 671.345 734.249 669.344C734.445 666.838 735.591 664.511 736.303 662.113C738.709 655.249 738.575 647.919 739.194 640.788Z" fill="#AC7952" stroke="#AC7952" stroke-width="0.09375"/>
<path opacity="0.58" d="M765.489 652.04C766.511 649.148 767.637 646.275 769.103 643.561C769.175 648.94 768.628 654.318 768.7 659.707C768.731 666.046 770.197 672.484 768.421 678.734C768.411 669.602 767.244 660.479 767.936 651.337C767.11 651.564 766.295 651.802 765.489 652.04Z" fill="#49392A" stroke="#49392A" stroke-width="0.09375"/>
<path d="M588.785 655.933C614.399 654.586 640.085 653.754 665.74 654.704C666.122 655.665 666.514 656.636 666.917 657.607C655.56 658.191 644.194 657.825 632.837 658.003C620.087 658.171 607.286 657.448 594.598 658.884C586.648 659.439 578.689 659.855 570.719 659.885C570.574 659.33 570.295 658.221 570.161 657.666C576.366 657.161 582.57 656.497 588.785 655.933Z" fill="#613914" stroke="#613914" stroke-width="0.09375"/>
<path d="M528.143 656.299C534.286 655.249 540.666 654.982 546.788 656.329C548.832 656.676 550.288 658.171 551.785 659.429C545.467 660.024 539.107 659.588 532.809 659.112C530.817 659.043 529.568 657.379 528.143 656.299Z" fill="#613B14" stroke="#613B14" stroke-width="0.09375"/>
<path d="M567.219 656.171C574.394 655.873 581.59 655.765 588.785 655.933C582.57 656.497 576.366 657.161 570.161 657.666C570.295 658.221 570.574 659.33 570.719 659.885C569.469 659.697 568.23 659.509 567.002 659.34C567.064 658.271 567.136 657.221 567.219 656.171Z" fill="#93683A" stroke="#93683A" stroke-width="0.09375"/>
<path d="M245.692 671.395C257.069 671.068 268.456 671.464 279.833 670.87C291.148 670.255 302.494 670.325 313.829 670.216C372.675 670.127 431.522 670.176 490.368 670.176C539.571 670.028 588.765 670.503 637.958 671.226C660.34 671.315 682.733 670.771 705.105 671.801C714.551 672.336 725.112 670.731 733.382 676.189C738.399 679.507 743.478 682.795 748.124 686.609C749.941 688.154 750.953 690.323 752.089 692.354C745.388 692.998 738.657 692.74 731.947 692.75C719.186 692.938 706.519 690.71 693.748 691.215C674.484 692.007 655.199 691.126 635.934 691.205C611.498 691.046 587.072 690.749 562.635 690.611C545.095 690.403 527.513 689.174 510.024 690.947C463.216 691.056 416.397 691.205 369.578 691.136C261.188 692.007 152.777 691.829 44.376 691.651C38.4811 691.68 32.2145 691.314 27.1352 688.134C22.5513 685.133 17.8643 681.646 15.7686 676.535C30.0775 676.308 44.469 678.001 58.7056 675.951C77.3299 675.921 95.9748 675.812 114.516 673.98C138.974 674.128 163.421 672.989 187.888 673.247C195.487 673.286 202.992 671.771 210.601 671.86C222.298 671.969 233.995 671.712 245.692 671.395Z" fill="#BC895C" stroke="#BC895C" stroke-width="0.09375"/>
<path opacity="0.77" d="M307.48 696.782C333.672 696.494 359.884 696.831 386.097 696.574C441.495 695.96 496.903 696.257 552.311 696.118C578.534 695.95 604.736 696.564 630.948 696.801C611.983 698 592.977 697.604 573.991 697.723C520.999 697.713 467.996 697.683 415.003 697.693C379.159 697.663 343.304 697.911 307.48 696.782Z" fill="#6A594A" stroke="#6A594A" stroke-width="0.09375"/>
<path opacity="0.21" d="M50.0955 698.228C62.6493 697.851 75.1928 698.525 87.7363 698.475C112.865 698.465 137.983 698.624 163.101 698.198C213.75 698.079 264.409 697.772 315.058 698.168C307.181 699.971 299.056 698.366 291.075 699.06C275.301 700.546 259.443 699.743 243.627 699.951C180.311 699.763 116.984 700.664 53.6778 699.981C52.1602 700.139 51.1175 699.099 50.0955 698.228Z" fill="#231F1B" stroke="#231F1B" stroke-width="0.09375"/>
</svg>
