<svg width="1000" height="750" viewBox="0 0 1000 750" fill="none" xmlns="http://www.w3.org/2000/svg">
<g clip-path="url(#clip0_184_2636)">
<path d="M0.016532 0.0130717C333.33 -0.0163396 666.673 0.0130717 999.987 0.0130717C1000.02 25.8656 999.987 51.7475 999.987 77.6C951.346 77.9235 902.706 77.747 854.065 77.7764C821.354 77.247 788.613 78.7764 755.961 76.8941C779.943 59.3356 804.542 42.6006 828.878 25.5126C836.783 20.2186 844.836 15.0128 851.743 8.39528C740.031 7.30706 628.26 7.9247 516.519 8.04234C498.973 8.10117 481.457 8.10117 463.94 8.07176C413.683 7.60117 363.426 8.15999 313.169 7.77764C302.206 6.42472 294.153 14.7187 285.806 20.3068C257.386 40.1006 229.26 60.3944 200.634 79.894C193.198 78.5999 185.733 77.5705 178.238 77.6C118.812 77.9235 59.414 77.9529 0.016532 77.7764C-0.00551065 51.8357 -0.00551065 25.9244 0.016532 0.0130717ZM865.586 23.3068C872.199 23.5421 878.9 24.1597 885.512 23.1597C894.065 20.5127 900.707 13.9834 907.026 7.86588C891.714 5.71885 873.727 8.54233 865.586 23.3068ZM798.841 68.0707C806.453 68.3354 814.182 69.1001 821.794 67.8942C830.788 64.3355 838.135 57.718 845.63 51.7769C837.695 51.4534 829.671 50.6593 821.853 52.0122C813.418 56.1592 806.423 62.659 798.841 68.0707Z" fill="#D74129" stroke="#D74129" stroke-width="0.09375"/>
<path d="M285.806 20.3069C294.153 14.7188 302.206 6.42482 313.168 7.77774C363.426 8.16008 413.683 7.60127 463.94 8.07185C410.332 45.1889 355.343 80.3059 302.441 118.393C250.979 118.099 199.517 118.982 148.084 117.864C164.66 103.953 183.293 92.8057 200.634 79.8941C229.26 60.3945 257.386 40.1007 285.806 20.3069Z" fill="#F54A38" stroke="#F54A38" stroke-width="0.09375"/>
<path d="M463.94 8.07165C481.457 8.10106 498.973 8.10106 516.519 8.04224C462.471 44.9534 407.893 81.0704 354.05 118.276C336.828 118.423 319.635 118.423 302.441 118.393C355.344 80.3057 410.333 45.1887 463.94 8.07165Z" fill="#FF9271" stroke="#FF9271" stroke-width="0.09375"/>
<path d="M516.519 8.04233C628.26 7.92469 740.031 7.30705 851.743 8.39527C844.836 15.0128 836.783 20.2186 828.878 25.5126C804.542 42.6006 779.943 59.3356 755.961 76.8941C737.856 88.8939 720.281 101.658 702.529 114.129C694.535 120.158 683.984 118.099 674.726 118.482C567.834 118.129 460.942 118.599 354.05 118.276C407.893 81.0705 462.471 44.9535 516.519 8.04233Z" fill="#F54A38" stroke="#F54A38" stroke-width="0.09375"/>
<path d="M865.586 23.3069C873.727 8.54242 891.714 5.71894 907.026 7.86596C900.707 13.9835 894.065 20.5128 885.512 23.1598C878.9 24.1598 872.199 23.5422 865.586 23.3069Z" fill="#F44B38" stroke="#F44B38" stroke-width="0.09375"/>
<path d="M798.841 68.0708C806.423 62.6591 813.418 56.1592 821.853 52.0123C829.671 50.6593 837.695 51.4534 845.63 51.777C838.136 57.718 830.788 64.3356 821.795 67.8943C814.182 69.1002 806.453 68.3355 798.841 68.0708Z" fill="#F54A38" stroke="#F54A38" stroke-width="0.09375"/>
<path d="M0.016532 77.7764C59.414 77.9528 118.812 77.9234 178.238 77.5999C185.733 77.5705 193.198 78.5999 200.634 79.894C183.293 92.8055 164.66 103.952 148.084 117.864C199.517 118.982 250.979 118.099 302.441 118.393C319.634 118.423 336.828 118.423 354.05 118.276C460.942 118.599 567.834 118.129 674.726 118.482C683.984 118.099 694.535 120.158 702.529 114.129C720.281 101.658 737.856 88.8938 755.961 76.894C788.613 78.7764 821.354 77.247 854.065 77.7764C902.706 77.747 951.346 77.9234 999.987 77.5999C999.987 93.8937 999.987 110.158 999.987 126.452C996.137 126.452 992.345 126.452 988.554 126.481C984.88 126.452 981.236 126.452 977.621 126.481C659.385 126.452 341.148 126.423 22.9115 126.481C20.4427 126.481 15.4464 126.481 12.9482 126.481C8.62785 126.481 4.24871 126.423 0.016532 126.452C-0.00551065 110.217 -0.00551065 94.0114 0.016532 77.7764ZM761.31 93.6585C750.053 101.776 738.356 109.305 727.452 117.893C737.65 117.805 749.612 121.099 758.282 113.982C768.833 105.894 780.707 99.5113 790.171 90.0409C780.589 90.1879 769.509 87.188 761.31 93.6585Z" fill="#CC3627" stroke="#CC3627" stroke-width="0.09375"/>
<path d="M761.31 93.6586C769.509 87.1881 780.59 90.1881 790.171 90.041C780.707 99.5114 768.833 105.894 758.282 113.982C749.612 121.099 737.651 117.805 727.452 117.893C738.356 109.305 750.053 101.776 761.31 93.6586Z" fill="#F54A38" stroke="#F54A38" stroke-width="0.09375"/>
<path d="M12.9481 126.481C15.4463 126.481 20.4426 126.481 22.9114 126.481C23.3816 128.334 24.2927 131.981 24.7336 133.834C25.2038 134.364 26.1737 135.422 26.6733 135.981C27.7901 148.922 26.9672 161.981 27.1729 174.981C27.2317 222.068 27.1142 269.126 27.2317 316.184C23.7637 316.213 20.2956 316.243 16.8864 316.302C16.857 320.037 16.857 323.802 16.8864 327.596C18.738 327.654 22.4117 327.772 24.2339 327.801C24.3515 333.243 24.469 338.684 25.1744 344.095C25.4977 345.742 26.1149 348.978 26.4382 350.595C27.9077 363.419 26.9672 376.359 27.1729 389.242C27.2023 427.417 27.1435 465.593 27.2317 503.769C23.7049 503.828 20.2075 503.975 16.7394 504.122C16.7688 507.828 16.857 511.534 16.9452 515.269C18.6792 515.298 22.1766 515.357 23.94 515.386C24.6748 520.475 25.5565 525.592 26.1737 530.769C27.3787 566.886 26.2325 603.032 26.9966 639.178C22.2942 639.031 17.5917 638.884 12.9481 638.973C12.8012 468.123 12.8012 297.302 12.9481 126.481Z" fill="#9EB7B1" stroke="#9EB7B1" stroke-width="0.09375"/>
<path d="M22.9116 126.481C341.148 126.423 659.385 126.452 977.621 126.481C976.739 129.599 975.917 132.717 975.182 135.893L972.008 135.805C801.486 135.422 630.935 135.746 460.384 135.658C315.814 135.864 171.244 135.217 26.6736 135.981C26.1739 135.422 25.2041 134.364 24.7338 133.834C24.293 131.981 23.3819 128.334 22.9116 126.481Z" fill="#FFF9D3" stroke="#FFF9D3" stroke-width="0.09375"/>
<path d="M977.621 126.482C981.236 126.452 984.88 126.452 988.554 126.482C988.672 297.39 988.554 468.299 988.613 639.208C983.734 638.914 978.855 638.796 974.036 638.767C974.006 603.061 973.477 567.327 974.653 531.651C975.77 526.298 977.151 521.034 978.503 515.769C980.149 515.269 983.44 514.269 985.116 513.769C984.91 511.269 984.498 506.328 984.293 503.828C981.706 503.798 976.563 503.71 973.977 503.681C973.918 462.623 973.8 421.535 974.065 380.448C974.124 370.477 973.418 360.419 975.358 350.566C975.681 348.919 976.357 345.625 976.71 343.978C977.121 338.625 977.092 333.243 977.18 327.919C978.973 327.772 982.588 327.478 984.381 327.331C984.293 323.566 984.263 319.831 984.234 316.125C981.677 316.125 976.534 316.155 973.947 316.184C973.947 266.009 973.771 215.862 974.065 165.716C974.065 155.775 973.565 145.746 975.182 135.893C975.916 132.717 976.739 129.599 977.621 126.482Z" fill="#9EB7B1" stroke="#9EB7B1" stroke-width="0.09375"/>
<path d="M26.6733 135.981C171.244 135.217 315.814 135.864 460.384 135.658C630.935 135.746 801.486 135.423 972.008 135.805C972.096 148.687 972.066 161.569 971.42 174.451C902.97 176.187 834.462 174.569 766.012 175.216C519.723 175.04 273.462 175.422 27.173 174.981C26.9672 161.981 27.7902 148.922 26.6733 135.981Z" fill="#3D2719" stroke="#3D2719" stroke-width="0.09375"/>
<path d="M972.007 135.805L975.182 135.893C973.565 145.746 974.065 155.775 974.065 165.716C973.771 215.862 973.947 266.009 973.947 316.184C658.385 316.184 342.794 316.125 27.2316 316.184C27.1141 269.126 27.2316 222.068 27.1729 174.981C273.462 175.422 519.722 175.04 766.012 175.216C834.462 174.569 902.97 176.187 971.42 174.451C972.066 161.569 972.096 148.687 972.007 135.805Z" fill="#4B3424" stroke="#4B3424" stroke-width="0.09375"/>
<path d="M16.8866 316.302C20.2959 316.243 23.7639 316.213 27.232 316.184C342.794 316.125 658.385 316.184 973.947 316.184C976.534 316.155 981.677 316.125 984.234 316.125C984.263 319.831 984.293 323.566 984.381 327.331C982.588 327.478 978.973 327.772 977.18 327.919C659.532 327.89 341.883 328.125 24.2342 327.802C22.412 327.772 18.7382 327.654 16.8866 327.596C16.8646 323.802 16.8646 320.037 16.8866 316.302Z" fill="#CFEAE3" stroke="#CFEAE3" stroke-width="0.09375"/>
<path d="M24.2339 327.802C341.883 328.125 659.531 327.89 977.18 327.919C977.092 333.243 977.121 338.625 976.71 343.978C659.531 344.36 342.353 344.095 25.1744 344.095C24.469 338.684 24.3514 333.243 24.2339 327.802Z" fill="#89A29C" stroke="#89A29C" stroke-width="0.09375"/>
<path d="M25.1743 344.095C342.353 344.095 659.531 344.36 976.71 343.978C976.357 345.625 975.681 348.919 975.358 350.566H971.831C796.489 350.007 621.118 350.478 445.777 350.301C305.997 350.507 166.188 349.948 26.4381 350.595C26.1148 348.978 25.4976 345.742 25.1743 344.095Z" fill="#FEF0E7" stroke="#FEF0E7" stroke-width="0.09375"/>
<path d="M26.4385 350.595C166.189 349.948 305.998 350.507 445.777 350.301C621.119 350.478 796.49 350.007 971.831 350.566C972.155 363.272 972.096 376.036 971.42 388.771C656.681 389.712 341.912 388.742 27.1732 389.242C26.9675 376.36 27.908 363.419 26.4385 350.595Z" fill="#3D2719" stroke="#3D2719" stroke-width="0.09375"/>
<path d="M971.831 350.566H975.358C973.418 360.418 974.124 370.477 974.065 380.448C973.8 421.535 973.918 462.623 973.977 503.681C658.385 503.71 342.794 503.563 27.2316 503.769C27.1435 465.593 27.2022 427.417 27.1729 389.241C341.912 388.741 656.68 389.712 971.42 388.771C972.096 376.036 972.154 363.271 971.831 350.566Z" fill="#4B3424" stroke="#4B3424" stroke-width="0.09375"/>
<path d="M16.7397 504.122C20.2078 503.975 23.7052 503.828 27.232 503.769C342.794 503.563 658.386 503.71 973.977 503.681C976.563 503.71 981.707 503.799 984.293 503.828C984.499 506.328 984.91 511.269 985.116 513.769C983.441 514.269 980.149 515.269 978.503 515.769C911.611 514.916 844.719 515.828 777.857 515.298C772.948 515.21 768.128 515.21 763.308 515.298C678.165 515.534 592.993 515.534 507.849 515.269C502.853 515.21 497.945 515.21 493.037 515.269C407.805 515.534 322.574 515.534 237.342 515.269C232.228 515.21 227.114 515.21 222.059 515.298C156.02 515.592 89.98 515.445 23.9403 515.387C22.1769 515.357 18.6795 515.298 16.9455 515.269C16.8573 511.534 16.7691 507.828 16.7397 504.122Z" fill="#CFEAE3" stroke="#CFEAE3" stroke-width="0.09375"/>
<path d="M23.9399 515.387C89.9796 515.445 156.019 515.592 222.059 515.298C222.588 520.269 223.146 525.298 223.734 530.327C157.9 530.916 92.0075 530.033 26.1736 530.769C25.5564 525.592 24.6747 520.475 23.9399 515.387Z" fill="#89A29C" stroke="#89A29C" stroke-width="0.09375"/>
<path d="M222.059 515.298C227.114 515.21 232.228 515.21 237.342 515.269C237.371 520.622 237.46 526.004 237.518 531.416C237.195 566.533 238.253 601.679 237.43 636.796L236.754 639.267C232.816 639.178 228.936 639.061 225.086 638.943C223.94 602.767 227.144 566.415 223.734 530.327C223.147 525.298 222.588 520.269 222.059 515.298Z" fill="#9EB7B1" stroke="#9EB7B1" stroke-width="0.09375"/>
<path d="M237.342 515.269C322.573 515.533 407.805 515.533 493.036 515.269C493.095 520.592 493.212 525.945 493.301 531.298C408.04 531.533 322.779 531.298 237.518 531.416C237.459 526.004 237.371 520.622 237.342 515.269Z" fill="#89A29C" stroke="#89A29C" stroke-width="0.09375"/>
<path d="M493.036 515.269C497.944 515.21 502.852 515.21 507.849 515.269C507.731 520.445 507.672 525.621 507.614 530.857C506.938 566.003 507.79 601.179 507.437 636.355L507.408 639.237C502.705 639.178 498.062 639.208 493.448 639.267L493.359 637.59C493.183 602.767 493.624 567.944 493.271 533.121L493.301 531.298C493.212 525.945 493.095 520.592 493.036 515.269Z" fill="#9EB7B1" stroke="#9EB7B1" stroke-width="0.09375"/>
<path d="M507.849 515.269C592.993 515.533 678.165 515.533 763.309 515.298C763.455 520.386 763.632 525.504 763.838 530.651C678.43 530.769 592.993 530.386 507.614 530.857C507.673 525.622 507.732 520.445 507.849 515.269Z" fill="#89A29C" stroke="#89A29C" stroke-width="0.09375"/>
<path d="M763.309 515.298C768.129 515.21 772.949 515.21 777.857 515.298C777.974 520.563 778.151 525.886 778.356 531.239C778.974 567.121 778.562 603.032 778.004 638.914C773.213 638.943 768.511 639.061 763.808 639.208C763.985 603.002 764.249 566.827 763.838 530.651C763.632 525.504 763.456 520.386 763.309 515.298Z" fill="#9EB7B1" stroke="#9EB7B1" stroke-width="0.09375"/>
<path d="M777.856 515.298C844.719 515.828 911.611 514.916 978.503 515.769C977.151 521.033 975.77 526.298 974.653 531.651C909.23 530.945 843.779 531.769 778.356 531.239C778.15 525.886 777.974 520.563 777.856 515.298Z" fill="#89A29C" stroke="#89A29C" stroke-width="0.09375"/>
<path d="M26.1738 530.769C92.0078 530.033 157.9 530.916 223.734 530.327C222.882 531.621 221.119 534.18 220.237 535.474C208.275 534.798 196.313 534.945 184.381 534.916C163.044 534.827 141.706 534.827 120.369 534.945C90.6852 535.004 61.0305 535.033 31.3465 534.916C31.1702 551.209 31.2289 567.533 31.1995 583.856C31.2583 601.385 31.1702 618.914 31.2877 636.473C43.1319 636.502 55.0056 636.384 66.9086 636.384C88.2164 636.414 109.554 636.443 130.891 636.355C160.31 636.767 189.759 635.767 219.15 636.943C220.384 637.443 222.823 638.414 224.028 638.914C158.371 639.737 92.6543 638.884 26.9968 639.178C26.2326 603.032 27.3788 566.886 26.1738 530.769Z" fill="#615A4D" stroke="#615A4D" stroke-width="0.09375"/>
<path d="M223.734 530.327C227.144 566.415 223.94 602.767 225.086 638.943L224.028 638.914C222.823 638.414 220.384 637.443 219.149 636.943C219.502 619.032 219.091 601.091 219.443 583.179C219.825 567.268 218.385 551.298 220.237 535.474C221.119 534.18 222.882 531.621 223.734 530.327Z" fill="#88968B" stroke="#88968B" stroke-width="0.09375"/>
<path d="M237.518 531.415C322.779 531.298 408.04 531.533 493.301 531.298L493.271 533.121L489.921 534.68C474.08 534.71 458.238 534.563 442.397 534.621C414.447 534.621 386.468 534.563 358.518 534.651C319.517 534.651 280.487 534.533 241.486 534.71C241.515 551.033 241.457 567.385 241.368 583.709C241.368 601.297 241.339 618.914 241.398 636.502C240.399 636.59 238.429 636.708 237.43 636.796C238.253 601.679 237.195 566.533 237.518 531.415Z" fill="#4B3424" stroke="#4B3424" stroke-width="0.09375"/>
<path d="M507.613 530.857C592.992 530.386 678.429 530.768 763.837 530.651C764.248 566.827 763.984 603.003 763.807 639.208L760.222 639.267L760.192 636.384C759.987 617.767 760.133 599.179 760.104 580.591C760.075 564.856 760.104 549.15 760.075 533.415C744.351 533.386 728.627 533.415 712.933 533.415C684.865 533.504 656.768 533.386 628.701 533.504C590.111 533.533 551.493 533.151 512.904 533.621L511.052 533.739C510.758 567.944 511.375 602.15 511.081 636.355H507.437C507.79 601.179 506.937 566.003 507.613 530.857Z" fill="#595144" stroke="#595144" stroke-width="0.09375"/>
<path d="M778.356 531.239C843.778 531.769 909.23 530.945 974.652 531.651C973.477 567.327 974.006 603.061 974.035 638.767C908.701 639.296 843.337 638.267 778.003 638.914C778.561 603.032 778.973 567.121 778.356 531.239ZM780.648 534.592C780.442 549.945 780.707 565.297 780.295 580.68C779.972 599.267 780.619 617.885 779.913 636.502C792.051 637.002 804.219 637.12 816.357 636.355C837.636 636.708 858.914 636.443 880.222 636.561C910.347 636.208 940.472 637.62 970.596 636.326C970.626 617.767 970.596 599.209 970.626 580.65C970.508 565.327 970.508 550.033 970.508 534.71C958.341 534.563 946.173 534.622 934.035 534.622C912.698 534.622 891.361 534.563 870.053 534.68C840.251 534.563 810.42 534.71 780.648 534.592Z" fill="#4B3424" stroke="#4B3424" stroke-width="0.09375"/>
<path d="M31.3467 534.916C61.0307 535.033 90.6854 535.004 120.369 534.945C112.081 551.974 103 568.621 94.124 585.356C73.1982 583.121 52.1549 584.885 31.1997 583.856C31.2291 567.533 31.1703 551.209 31.3467 534.916Z" fill="#B6DCD1" stroke="#B6DCD1" stroke-width="0.09375"/>
<path d="M120.369 534.945C141.707 534.827 163.044 534.827 184.381 534.915C175.887 550.886 167.423 566.885 159.135 582.944C149.554 600.65 140.031 618.414 130.891 636.355C109.554 636.443 88.2165 636.414 66.9087 636.384C76.2254 619.502 85.0424 602.355 94.124 585.356C103 568.621 112.081 551.974 120.369 534.945Z" fill="#E6FFF9" stroke="#E6FFF9" stroke-width="0.09375"/>
<path d="M184.381 534.916C196.313 534.945 208.275 534.798 220.237 535.474C218.385 551.298 219.825 567.268 219.443 583.179C215.534 584.032 211.743 584.944 207.952 585.856C208.187 574.474 208.128 563.062 206.717 551.768C204.307 552.239 201.956 552.798 199.634 553.415C197.989 554.386 194.697 556.298 193.051 557.239C191.758 566.121 192.522 575.15 192.434 584.121C181.295 584.532 170.185 584.15 159.135 582.944C167.423 566.886 175.887 550.886 184.381 534.916Z" fill="#B6DCD1" stroke="#B6DCD1" stroke-width="0.09375"/>
<path d="M241.486 534.71C280.487 534.533 319.517 534.651 358.518 534.651C347.82 551.974 335.829 568.415 324.337 585.209C296.828 581.915 268.995 584.385 241.369 583.709C241.457 567.385 241.516 551.033 241.486 534.71Z" fill="#B6DCD1" stroke="#B6DCD1" stroke-width="0.09375"/>
<path d="M358.518 534.651C386.468 534.563 414.447 534.622 442.397 534.622C430.847 550.298 420.031 566.503 409.069 582.591C396.549 600.414 384.146 618.296 371.978 636.355C344.352 636.443 316.725 636.443 289.098 636.414C300.737 619.267 312.61 602.297 324.337 585.209C335.829 568.415 347.82 551.974 358.518 534.651Z" fill="#E6FFF9" stroke="#E6FFF9" stroke-width="0.09375"/>
<path d="M442.397 534.621C458.239 534.563 474.08 534.71 489.921 534.68C489.333 551.004 489.833 567.356 489.804 583.679C483.984 583.621 478.224 583.621 472.493 583.591C472.522 573.533 472.434 563.474 472.228 553.415C469.906 553.415 465.233 553.445 462.882 553.445C461.589 575.18 462.118 596.973 462.823 618.738L460.502 618.561C461.325 597.297 462.471 575.915 460.149 554.709C458.297 554.798 454.624 554.974 452.772 555.062C452.596 564.562 452.478 574.091 452.449 583.621C437.959 583.974 423.47 583.856 409.069 582.591C420.031 566.503 430.847 550.298 442.397 534.621Z" fill="#B6DCD1" stroke="#B6DCD1" stroke-width="0.09375"/>
<path d="M489.921 534.68L493.271 533.122C493.624 567.944 493.183 602.767 493.359 637.59L490.038 636.355C489.45 618.797 489.979 601.238 489.803 583.68C489.832 567.356 489.333 551.004 489.921 534.68Z" fill="#462F1F" stroke="#462F1F" stroke-width="0.09375"/>
<path d="M511.052 533.739L512.904 533.621C512.639 549.18 512.345 564.768 513.286 580.326C541.06 581.944 568.863 580.562 596.666 581.209C584.234 599.65 571.39 617.826 559.135 636.384C543.117 636.355 527.099 636.384 511.082 636.355C511.376 602.15 510.758 567.944 511.052 533.739Z" fill="#A2CCC0" stroke="#A2CCC0" stroke-width="0.09375"/>
<path d="M512.904 533.621C551.493 533.151 590.112 533.533 628.701 533.504C618.797 549.915 607.452 565.386 596.666 581.209C568.863 580.562 541.06 581.944 513.286 580.327C512.346 564.768 512.64 549.18 512.904 533.621Z" fill="#B6DCD1" stroke="#B6DCD1" stroke-width="0.09375"/>
<path d="M628.701 533.504C656.769 533.386 684.866 533.504 712.933 533.416C701.648 548.798 691.302 564.827 680.487 580.503C667.555 599.032 654.8 617.679 642.162 636.384C614.476 636.443 586.791 636.443 559.135 636.384C571.39 617.826 584.234 599.65 596.666 581.209C607.452 565.386 618.797 549.915 628.701 533.504Z" fill="#E6FFF9" stroke="#E6FFF9" stroke-width="0.09375"/>
<path d="M712.933 533.416C728.627 533.416 744.351 533.386 760.075 533.416C760.104 549.151 760.075 564.856 760.104 580.591C755.108 580.827 750.141 581.091 745.203 581.385C744.351 593.503 744.645 605.679 744.469 617.826L742.617 618.708C741.706 596.15 744.645 573.533 742.059 551.062C739.237 552.562 732.624 551.621 733.565 556.621C732.683 577.238 733.3 597.915 733.565 618.561L731.184 618.297C732.184 596.826 731.978 575.297 731.478 553.798C729.333 554.033 725.042 554.474 722.926 554.709C722.896 563.445 722.896 572.18 722.808 580.915C708.671 581.121 694.564 581.062 680.486 580.503C691.302 564.827 701.647 548.798 712.933 533.416Z" fill="#B6DCD1" stroke="#B6DCD1" stroke-width="0.09375"/>
<path d="M780.649 534.592C810.421 534.71 840.252 534.563 870.053 534.68C862.53 550.356 854.153 565.591 846.012 580.974C824.117 580.209 802.192 580.385 780.296 580.679C780.707 565.297 780.443 549.945 780.649 534.592Z" fill="#B6DCD1" stroke="#B6DCD1" stroke-width="0.09375"/>
<path d="M870.053 534.68C891.361 534.563 912.698 534.621 934.036 534.621C926.041 549.856 917.959 565.062 909.994 580.297C900.031 599.032 890.068 617.767 880.222 636.561C858.914 636.443 837.636 636.708 816.357 636.355C826.703 618.149 836.078 599.414 846.012 580.974C854.153 565.591 862.529 550.356 870.053 534.68Z" fill="#E6FFF9" stroke="#E6FFF9" stroke-width="0.09375"/>
<path d="M934.035 534.621C946.173 534.621 958.341 534.563 970.508 534.71C970.508 550.033 970.508 565.327 970.626 580.65C966.188 580.621 961.809 580.591 957.488 580.591C957.665 570.974 957.195 561.386 956.225 551.827C953.815 552.415 951.434 553.004 949.083 553.651C947.525 554.092 944.41 555.003 942.823 555.445C941.853 563.768 941.735 572.18 941.794 580.591C931.184 580.474 920.575 580.385 909.994 580.297C917.959 565.062 926.041 549.857 934.035 534.621Z" fill="#B6DCD1" stroke="#B6DCD1" stroke-width="0.09375"/>
<path d="M199.634 553.415C201.956 552.797 204.307 552.239 206.717 551.768C208.128 563.062 208.187 574.474 207.952 585.856C207.893 597.032 208.01 608.238 207.834 619.443C205.836 619.237 201.78 618.796 199.752 618.561C199.84 596.856 200.016 575.121 199.634 553.415Z" fill="#E6FFF9" stroke="#E6FFF9" stroke-width="0.09375"/>
<path d="M733.565 556.621C732.624 551.621 739.237 552.562 742.059 551.062C744.645 573.532 741.706 596.15 742.617 618.708C740.354 618.649 735.828 618.59 733.565 618.561C733.3 597.914 732.683 577.238 733.565 556.621Z" fill="#E6FFF9" stroke="#E6FFF9" stroke-width="0.09375"/>
<path d="M949.083 553.651C951.434 553.004 953.815 552.415 956.225 551.827C957.195 561.386 957.665 570.974 957.489 580.591C957.312 593.532 957.459 606.503 957.283 619.473C955.255 619.267 951.199 618.885 949.171 618.679C949.377 597.003 949.494 575.327 949.083 553.651Z" fill="#E6FFF9" stroke="#E6FFF9" stroke-width="0.09375"/>
<path d="M193.051 557.239C194.697 556.298 197.989 554.386 199.635 553.415C200.017 575.121 199.84 596.856 199.752 618.561C198.194 618.355 195.108 617.944 193.551 617.738C192.169 606.561 192.405 595.326 192.434 584.121C192.522 575.15 191.758 566.121 193.051 557.239Z" fill="#90B6AB" stroke="#90B6AB" stroke-width="0.09375"/>
<path d="M452.772 555.062C454.623 554.974 458.297 554.797 460.149 554.709C462.47 575.915 461.324 597.297 460.501 618.561C458.532 618.355 454.623 618.002 452.683 617.826C452.39 606.414 452.331 595.003 452.448 583.621C452.478 574.091 452.595 564.562 452.772 555.062Z" fill="#8FB5AA" stroke="#8FB5AA" stroke-width="0.09375"/>
<path d="M462.882 553.445C465.233 553.445 469.906 553.415 472.228 553.415C472.434 563.474 472.522 573.533 472.493 583.591C472.463 595.503 472.493 607.414 472.375 619.355C469.995 619.208 465.204 618.885 462.823 618.738C462.118 596.973 461.589 575.18 462.882 553.445Z" fill="#E6FFF9" stroke="#E6FFF9" stroke-width="0.09375"/>
<path d="M722.926 554.709C725.042 554.474 729.333 554.033 731.478 553.798C731.978 575.297 732.184 596.826 731.184 618.297C729.215 618.032 725.277 617.502 723.308 617.238C722.691 605.12 722.544 593.003 722.808 580.915C722.896 572.18 722.896 563.444 722.926 554.709Z" fill="#8FB5AA" stroke="#8FB5AA" stroke-width="0.09375"/>
<path d="M942.823 555.444C944.411 555.003 947.526 554.092 949.084 553.65C949.495 575.326 949.377 597.003 949.172 618.679C947.585 618.502 944.411 618.12 942.823 617.914C941.472 605.502 941.854 593.032 941.795 580.591C941.736 572.179 941.854 563.768 942.823 555.444Z" fill="#90B6AB" stroke="#90B6AB" stroke-width="0.09375"/>
<path d="M680.487 580.503C694.565 581.062 708.672 581.121 722.809 580.915C722.544 593.003 722.691 605.12 723.308 617.238C725.277 617.502 729.216 618.032 731.185 618.296L733.565 618.561C735.828 618.59 740.355 618.649 742.618 618.708L744.469 617.826C744.645 605.679 744.352 593.503 745.204 581.385C750.141 581.091 755.108 580.826 760.105 580.591C760.134 599.179 759.987 617.767 760.193 636.384C720.839 636.384 681.486 636.355 642.162 636.384C654.8 617.679 667.555 599.032 680.487 580.503Z" fill="#A2CCC0" stroke="#A2CCC0" stroke-width="0.09375"/>
<path d="M780.296 580.679C802.192 580.385 824.117 580.209 846.013 580.974C836.079 599.414 826.703 618.149 816.358 636.355C804.22 637.12 792.052 637.002 779.914 636.502C780.619 617.885 779.973 599.267 780.296 580.679Z" fill="#A2CCC0" stroke="#A2CCC0" stroke-width="0.09375"/>
<path d="M909.995 580.297C920.575 580.385 931.185 580.474 941.795 580.591C941.854 593.032 941.472 605.503 942.824 617.914C944.411 618.12 947.585 618.502 949.172 618.679C951.2 618.885 955.256 619.267 957.283 619.473C957.46 606.503 957.313 593.532 957.489 580.591C961.81 580.591 966.189 580.621 970.627 580.65C970.597 599.209 970.627 617.767 970.597 636.326C940.472 637.62 910.348 636.208 880.223 636.561C890.068 617.767 900.032 599.032 909.995 580.297Z" fill="#A2CCC0" stroke="#A2CCC0" stroke-width="0.09375"/>
<path d="M31.1997 583.856C52.1549 584.885 73.1982 583.121 94.124 585.356C85.0425 602.356 76.2254 619.502 66.9087 636.384C55.0057 636.384 43.1321 636.502 31.2879 636.473C31.1703 618.914 31.2585 601.385 31.1997 583.856Z" fill="#A2CCC0" stroke="#A2CCC0" stroke-width="0.09375"/>
<path d="M130.891 636.355C140.031 618.414 149.553 600.65 159.135 582.944C170.185 584.15 181.295 584.532 192.434 584.121C192.404 595.326 192.169 606.561 193.55 617.738C195.108 617.943 198.194 618.355 199.752 618.561C201.78 618.796 205.836 619.238 207.834 619.443C208.01 608.238 207.893 597.032 207.952 585.856C211.743 584.944 215.534 584.032 219.443 583.179C219.09 601.091 219.502 619.032 219.149 636.943C189.759 635.767 160.31 636.767 130.891 636.355Z" fill="#A2CCC0" stroke="#A2CCC0" stroke-width="0.09375"/>
<path d="M241.369 583.709C268.995 584.385 296.828 581.915 324.337 585.209C312.61 602.297 300.737 619.267 289.098 636.414C273.198 636.443 257.298 636.12 241.398 636.502C241.339 618.914 241.369 601.297 241.369 583.709Z" fill="#A2CCC0" stroke="#A2CCC0" stroke-width="0.09375"/>
<path d="M371.978 636.355C384.146 618.297 396.548 600.415 409.068 582.591C423.47 583.856 437.959 583.974 452.448 583.621C452.331 595.003 452.389 606.414 452.683 617.826C454.623 618.002 458.532 618.355 460.501 618.561L462.823 618.738C465.204 618.885 469.994 619.208 472.375 619.355C472.492 607.414 472.463 595.503 472.492 583.591C478.223 583.621 483.984 583.621 489.803 583.679C489.979 601.238 489.45 618.797 490.038 636.355C450.655 636.384 411.302 636.384 371.978 636.355Z" fill="#A2CCC0" stroke="#A2CCC0" stroke-width="0.09375"/>
<path d="M237.43 636.796C238.43 636.708 240.399 636.59 241.398 636.502C257.298 636.12 273.198 636.443 289.098 636.414C316.725 636.443 344.352 636.443 371.979 636.355C411.303 636.384 450.656 636.384 490.039 636.355L493.36 637.59L493.448 639.267C407.864 639.384 322.309 639.267 236.754 639.267L237.43 636.796Z" fill="#6A6051" stroke="#6A6051" stroke-width="0.09375"/>
<path d="M507.438 636.355H511.082C527.1 636.384 543.117 636.355 559.135 636.384C586.791 636.443 614.477 636.443 642.162 636.384C681.486 636.355 720.839 636.384 760.193 636.384L760.222 639.267C675.961 639.384 591.67 639.296 507.408 639.237L507.438 636.355Z" fill="#6A6051" stroke="#6A6051" stroke-width="0.09375"/>
<path d="M2.57324 639.737C5.9825 639.326 9.45054 639.09 12.948 638.973C17.5916 638.884 22.294 639.031 26.9965 639.178C92.654 638.884 158.37 639.737 224.028 638.914L225.086 638.943C228.936 639.061 232.816 639.178 236.754 639.267C322.309 639.267 407.863 639.384 493.448 639.267C498.062 639.208 502.705 639.178 507.408 639.237C591.669 639.296 675.96 639.384 760.222 639.267L763.807 639.208C768.51 639.061 773.212 638.943 778.003 638.914C843.337 638.267 908.701 639.296 974.035 638.767C978.855 638.796 983.734 638.914 988.613 639.208C990.699 639.355 994.873 639.649 996.96 639.796C996.783 644.708 996.607 649.62 996.548 654.59C912.169 655.119 827.76 654.472 743.381 654.914C670.553 654.708 597.724 654.825 524.895 654.825C486.776 653.502 448.657 654.09 410.538 654.119C368.422 656.002 326.306 653.267 284.16 654.002C190.993 654.619 97.7679 653.002 4.63055 654.855L2.92592 654.796C2.77897 649.737 2.6908 644.737 2.57324 639.737Z" fill="#CFEAE3" stroke="#CFEAE3" stroke-width="0.09375"/>
<path d="M2.92606 654.796L4.63069 654.855C23.1759 657.296 41.8974 655.825 60.5601 656.119C120.369 656.414 180.178 656.061 239.987 656.237C274.256 656.619 308.554 655.208 342.764 657.061C316.196 678.854 288.745 699.56 262.441 721.677C184.351 721.677 106.291 721.648 28.2016 721.707C19.7372 721.736 11.2729 721.648 2.83789 721.442C3.07301 699.236 2.89667 677.001 2.92606 654.796Z" fill="#9EB7B1" stroke="#9EB7B1" stroke-width="0.09375"/>
<path d="M4.63086 654.855C97.7682 653.002 190.994 654.619 284.161 654.002C326.306 653.266 368.422 656.002 410.538 654.119C448.657 654.09 486.776 653.502 524.895 654.825C597.724 654.825 670.553 654.708 743.382 654.913C723.455 667.737 702.382 678.619 681.986 690.677C664.587 701.06 645.953 709.412 629.671 721.589C550.406 721.736 471.141 721.706 391.875 721.589C419.12 705.295 446.982 690.001 474.432 674.06C483.808 668.707 493.889 664.413 502.147 657.325C479.37 654.972 456.475 656.707 433.639 656.208C422.088 656.443 410.391 654.884 398.988 657.149C388.789 662.119 380.825 670.501 371.89 677.266C353.198 691.913 334.8 706.912 316.225 721.677C298.268 721.677 280.369 721.677 262.441 721.677C288.745 699.56 316.196 678.854 342.764 657.06C308.554 655.207 274.256 656.619 239.987 656.237C180.178 656.06 120.369 656.413 60.5603 656.119C41.8976 655.825 23.176 657.296 4.63086 654.855Z" fill="#AFC8C2" stroke="#AFC8C2" stroke-width="0.09375"/>
<path d="M743.381 654.913C827.761 654.472 912.169 655.119 996.548 654.59C996.783 676.913 996.695 699.236 996.607 721.559C990.17 722.353 981.353 719.059 977.827 726.412V726.383C977.974 725.236 978.297 722.883 978.444 721.706C956.666 721.618 934.917 721.706 913.168 721.677C913.492 708.207 913.521 694.736 912.904 681.295C860.413 681.295 807.922 680.972 755.461 681.442C755.52 694.854 755.578 708.265 755.343 721.677C713.433 721.618 671.552 721.765 629.671 721.589C645.953 709.412 664.586 701.06 681.985 690.677C702.382 678.619 723.455 667.737 743.381 654.913ZM728.774 683.589C728.804 685.619 728.804 689.707 728.833 691.766C733.477 691.854 738.121 691.942 742.852 692.089C742.882 689.795 742.97 685.207 743.029 682.913C738.238 683.089 733.506 683.325 728.774 683.589Z" fill="#9EB7B1" stroke="#9EB7B1" stroke-width="0.09375"/>
<path d="M371.89 677.266C380.825 670.501 388.789 662.119 398.988 657.149C410.391 654.884 422.088 656.443 433.639 656.208C456.475 656.708 479.37 654.972 502.147 657.325C493.889 664.413 483.808 668.707 474.432 674.06C446.982 690.001 419.12 705.295 391.875 721.589C366.659 721.795 341.442 721.589 316.225 721.677C334.8 706.912 353.198 691.913 371.89 677.266Z" fill="#9EB7B1" stroke="#9EB7B1" stroke-width="0.09375"/>
<path d="M755.461 681.443C807.923 680.972 860.413 681.295 912.904 681.295C913.521 694.736 913.492 708.207 913.169 721.677C860.531 721.677 807.923 721.648 755.344 721.677C755.579 708.266 755.52 694.854 755.461 681.443ZM766.042 688.325C765.895 697.736 765.895 707.148 765.983 716.56C768.452 716.765 773.419 717.148 775.887 717.324C777.004 708.03 776.769 698.677 776.681 689.384C773.095 689.001 769.569 688.648 766.042 688.325ZM790.083 689.06C790.171 698.207 790.2 707.354 790.112 716.53C793.61 716.53 797.107 716.442 800.663 716.324C800.516 707.119 800.516 697.972 800.546 688.825C797.019 688.884 793.522 688.972 790.083 689.06ZM814.8 688.619C814.242 697.942 814.271 707.324 814.712 716.677C817.21 716.736 822.206 716.854 824.734 716.883C824.822 707.442 824.822 698.03 824.675 688.619C822.206 688.619 817.269 688.619 814.8 688.619ZM838.547 688.589C838.195 697.942 838.195 707.354 838.488 716.766C840.987 716.766 846.012 716.795 848.54 716.795C848.716 707.442 848.746 698.089 848.599 688.736C846.101 688.707 841.075 688.619 838.547 688.589ZM862.765 688.736C862.471 698.03 862.441 707.354 862.706 716.707C865.204 716.736 870.23 716.795 872.757 716.824C872.993 707.442 872.993 698.06 872.757 688.678C870.259 688.707 865.263 688.707 862.765 688.736ZM886.541 688.413C886.365 697.825 886.365 707.236 886.541 716.677C888.981 716.795 893.889 717.089 896.358 717.236C897.504 707.972 897.239 698.648 897.239 689.384C893.654 689.001 890.068 688.678 886.541 688.413Z" fill="#7B928C" stroke="#7B928C" stroke-width="0.09375"/>
<path d="M728.774 683.59C733.506 683.325 738.238 683.09 743.029 682.913C742.97 685.207 742.882 689.795 742.852 692.089C738.12 691.942 733.477 691.854 728.833 691.766C728.804 689.707 728.804 685.619 728.774 683.59Z" fill="#B6D144" stroke="#B6D144" stroke-width="0.09375"/>
<path d="M766.042 688.325C769.569 688.648 773.095 689.001 776.681 689.383C776.769 698.677 777.004 708.03 775.887 717.324C773.419 717.148 768.452 716.765 765.983 716.559C765.895 707.148 765.895 697.736 766.042 688.325Z" fill="#4A5E57" stroke="#4A5E57" stroke-width="0.09375"/>
<path d="M790.082 689.06C793.521 688.972 797.018 688.884 800.545 688.825C800.516 697.972 800.516 707.118 800.662 716.324C797.106 716.442 793.609 716.53 790.111 716.53C790.2 707.354 790.17 698.207 790.082 689.06Z" fill="#4A5E57" stroke="#4A5E57" stroke-width="0.09375"/>
<path d="M814.8 688.619C817.269 688.619 822.206 688.619 824.675 688.619C824.822 698.03 824.822 707.442 824.734 716.883C822.206 716.854 817.21 716.736 814.712 716.677C814.271 707.324 814.242 697.942 814.8 688.619Z" fill="#4A5D57" stroke="#4A5D57" stroke-width="0.09375"/>
<path d="M838.547 688.589C841.074 688.619 846.1 688.707 848.598 688.736C848.745 698.089 848.716 707.442 848.539 716.795C846.012 716.795 840.986 716.765 838.488 716.765C838.194 707.354 838.194 697.942 838.547 688.589Z" fill="#4A5D57" stroke="#4A5D57" stroke-width="0.09375"/>
<path d="M862.765 688.736C865.263 688.707 870.259 688.707 872.757 688.677C872.992 698.06 872.992 707.442 872.757 716.824C870.23 716.795 865.204 716.736 862.706 716.707C862.441 707.354 862.471 698.03 862.765 688.736Z" fill="#4A5D57" stroke="#4A5D57" stroke-width="0.09375"/>
<path d="M886.541 688.413C890.068 688.678 893.654 689.001 897.24 689.383C897.24 698.648 897.504 707.971 896.358 717.236C893.889 717.089 888.981 716.795 886.541 716.677C886.365 707.236 886.365 697.824 886.541 688.413Z" fill="#4A5D57" stroke="#4A5D57" stroke-width="0.09375"/>
<path d="M28.2017 721.707C106.291 721.648 184.352 721.677 262.441 721.677C280.369 721.677 298.268 721.677 316.225 721.677C341.442 721.589 366.659 721.795 391.875 721.589C471.141 721.707 550.406 721.736 629.671 721.589C671.552 721.765 713.433 721.618 755.343 721.677C807.922 721.648 860.531 721.677 913.168 721.677C934.917 721.707 956.666 721.618 978.444 721.707C978.297 722.883 977.974 725.236 977.827 726.383C976.504 734.353 974.506 742.147 972.625 750C968.099 749.971 963.631 749.941 959.193 749.971C959.164 743.236 959.193 736.559 959.252 729.883C655.681 729.618 352.11 729.824 48.5103 729.765C48.4809 736.5 48.4809 743.236 48.4809 750C44.0723 749.971 39.6932 749.941 35.3729 749.971C32.9629 740.53 30.5235 731.118 28.2017 721.707Z" fill="#4D3423" stroke="#4D3423" stroke-width="0.09375"/>
</g>
<defs>
<clipPath id="clip0_184_2636">
<rect width="1000" height="750" fill="white"/>
</clipPath>
</defs>
</svg>
