<svg width="1010" height="800" viewBox="0 0 1010 800" fill="none" xmlns="http://www.w3.org/2000/svg">
<g clip-path="url(#clip0_147_737)">
<path d="M0.448929 0.0309597C336.734 0.0309597 673.019 0.0619195 1009.3 0C1009.37 39.3498 1009.3 78.6997 1009.33 118.05C1003.89 118.019 998.468 118.05 993.081 118.05C990.944 118.05 986.703 118.08 984.567 118.08C979.737 118.05 974.938 118.05 970.17 118.08C663.173 118.08 356.207 118.05 49.2415 118.08C44.4118 118.05 39.644 118.05 34.8452 118.08C30.7276 118.05 26.579 118.05 22.4923 118.05C15.1239 118.05 7.75543 118.05 0.417969 118.05C0.448928 78.6997 0.387009 39.3498 0.448929 0.0309597ZM9.27246 6.50155C9.42726 24.7059 9.11766 42.9412 9.5511 61.1765C9.17958 78.0186 9.30342 94.8607 9.52014 111.734C53.8855 112.817 98.2817 111.703 142.647 112.291C147.012 111.858 151.997 113.065 156.053 110.991C188.684 112.632 221.378 111.115 254.04 111.796C258.591 111.393 263.607 112.539 267.879 110.526C286.827 112.353 305.898 110.867 324.907 111.424C331.625 111.115 338.777 112.477 345.217 109.876C351.811 111.672 358.715 111.95 365.557 111.796C464.133 111.176 562.802 112.446 661.347 111.176C677.477 112.074 694.412 113.715 710.201 110.929C728.715 111.641 747.879 113.065 766.084 110.495C772.709 111.858 779.52 112.446 786.331 112.291C857.693 111.641 929.118 112.972 1000.48 111.641C1001.13 94.8297 1000.91 77.9876 1000.51 61.1765C1001.13 42.9102 1000.82 24.6749 1000.76 6.43963C985.774 6.22291 970.48 4.613 955.712 6.93498C936.919 5.88235 918.065 6.25387 899.272 6.62539C884.04 6.16099 868.375 4.52012 853.421 7.02786C757.848 5.41796 662.183 6.93498 566.579 6.25387C562.152 6.59443 557.291 5.47988 553.204 7.39938C527.291 6.74923 501.316 6.50155 475.464 7.39938C455.341 5.17028 435.093 6.87306 414.907 6.37771C391.687 6.8421 368.375 5.44892 345.248 6.96594C325.248 4.86068 305.093 6.43963 285.031 5.97523C193.111 6.34675 101.161 5.2322 9.27246 6.50155Z" fill="#848C1F" stroke="#848C1F" stroke-width="0.09375"/>
<path d="M9.27246 6.50153C101.161 5.23218 193.111 6.34673 285.031 5.97522C305.093 6.43961 325.248 4.86066 345.248 6.96593C324.009 23.1888 298.963 33.034 275.743 45.9443C265.898 51.4241 256.053 56.935 245.867 61.7647C219.706 60.0309 193.483 61.1145 167.26 60.9288C114.69 60.8049 62.1208 60.6192 9.5511 61.1765C9.11766 42.9412 9.42726 24.7059 9.27246 6.50153Z" fill="#B2C434" stroke="#B2C434" stroke-width="0.09375"/>
<path d="M345.248 6.96596C368.375 5.44893 391.687 6.84212 414.907 6.37772C435.093 6.87308 455.341 5.17029 475.465 7.39939C463.886 14.8917 451.378 20.743 438.839 26.4396C386.92 51.9814 334.505 76.5325 282.616 102.136C277.601 104.768 272.771 107.74 267.879 110.526C263.607 112.539 258.591 111.393 254.04 111.796C221.378 111.115 188.684 112.632 156.053 110.991C162.74 106.594 169.304 101.95 176.486 98.3592C200.016 86.904 222.709 73.87 245.867 61.7647C256.053 56.935 265.898 51.4242 275.743 45.9443C298.963 33.0341 324.009 23.1889 345.248 6.96596Z" fill="#C7D331" stroke="#C7D331" stroke-width="0.09375"/>
<path d="M475.464 7.39935C501.316 6.50152 527.291 6.7492 553.204 7.39935C538.127 16.904 521.501 23.3127 505.712 31.4241C452.368 57.8947 398.065 82.4148 345.217 109.876C338.777 112.477 331.625 111.115 324.907 111.424C305.898 110.867 286.827 112.353 267.879 110.526C272.771 107.74 277.601 104.768 282.616 102.136C334.505 76.5325 386.919 51.9814 438.839 26.4396C451.378 20.743 463.885 14.8916 475.464 7.39935Z" fill="#E4E853" stroke="#E4E853" stroke-width="0.09375"/>
<path d="M553.204 7.39929C557.291 5.47979 562.152 6.59434 566.579 6.25378C662.183 6.9349 757.848 5.41787 853.421 7.02778C822.214 27.7398 787.539 42.5076 755 60.8977C723.7 77.4922 691.904 93.2197 661.347 111.176C562.802 112.446 464.133 111.176 365.557 111.796C358.715 111.95 351.811 111.672 345.217 109.876C398.065 82.4148 452.368 57.8946 505.712 31.4241C521.501 23.3126 538.127 16.9039 553.204 7.39929Z" fill="#C7D331" stroke="#C7D331" stroke-width="0.09375"/>
<path d="M853.421 7.02784C868.375 4.5201 884.04 6.16097 899.272 6.62537C867.632 29.2879 830.913 43.5604 797.322 63.034C783.421 59.969 769.118 60.4025 755 60.8978C787.539 42.5077 822.214 27.7399 853.421 7.02784Z" fill="#B2C434" stroke="#B2C434" stroke-width="0.09375"/>
<path d="M899.272 6.62536C918.065 6.25384 936.919 5.88232 955.712 6.93495C925.681 28.0805 891.161 41.517 859.737 60.3096C837.632 70.774 816.672 83.4055 794.69 94.1176C784.752 98.8545 775.31 104.52 766.084 110.495C747.879 113.065 728.715 111.641 710.201 110.929C737.693 92.4148 768.344 79.1021 797.322 63.034C830.913 43.5603 867.632 29.2879 899.272 6.62536Z" fill="#C7D331" stroke="#C7D331" stroke-width="0.09375"/>
<path d="M955.712 6.93504C970.48 4.61306 985.774 6.22297 1000.76 6.43968C1000.82 24.675 1001.13 42.9103 1000.51 61.1765C953.576 60.1549 906.641 61.61 859.737 60.3097C891.161 41.5171 925.681 28.0806 955.712 6.93504Z" fill="#B2C434" stroke="#B2C434" stroke-width="0.09375"/>
<path d="M9.55114 61.1764C62.1208 60.6191 114.69 60.8049 167.26 60.9287C193.483 61.1145 219.706 60.0309 245.867 61.7646C222.709 73.8699 200.016 86.9039 176.486 98.3591C169.303 101.95 162.74 106.594 156.053 110.991C151.997 113.065 147.012 111.858 142.647 112.291C98.2818 111.703 53.8855 112.817 9.52018 111.734C9.30346 94.8606 9.17962 78.0185 9.55114 61.1764Z" fill="#AEB72A" stroke="#AEB72A" stroke-width="0.09375"/>
<path d="M661.347 111.176C691.904 93.2197 723.7 77.4921 755 60.8977C769.118 60.4024 783.421 59.9689 797.322 63.0339C768.344 79.102 737.693 92.4147 710.201 110.929C694.412 113.715 677.477 112.074 661.347 111.176Z" fill="#AEB72A" stroke="#AEB72A" stroke-width="0.09375"/>
<path d="M794.69 94.1176C816.672 83.4055 837.631 70.774 859.737 60.3096C906.641 61.6099 953.576 60.1548 1000.51 61.1764C1000.91 77.9876 1001.13 94.8297 1000.48 111.641C929.117 112.972 857.693 111.641 786.331 112.291C779.52 112.446 772.709 111.858 766.083 110.495C775.31 104.52 784.752 98.8545 794.69 94.1176Z" fill="#AEB72A" stroke="#AEB72A" stroke-width="0.09375"/>
<path d="M22.4922 118.05C26.5789 118.05 30.7275 118.05 34.8451 118.081C34.907 319.04 34.8761 520.031 34.8761 720.991C30.7275 720.96 26.5789 720.929 22.4922 720.96C22.4922 520 22.4922 319.04 22.4922 118.05Z" fill="#6D503E" stroke="#6D503E" stroke-width="0.09375"/>
<path d="M34.8452 118.081C39.644 118.05 44.4118 118.05 49.2415 118.081C49.1486 160.093 49.1177 202.136 49.2415 244.18C356.238 244.273 663.204 244.273 970.17 244.18C970.263 202.136 970.294 160.093 970.17 118.081C974.938 118.05 979.737 118.05 984.567 118.081C984.536 319.04 984.567 520.031 984.567 720.991C979.737 720.991 974.938 720.991 970.139 721.022C970.201 676.749 970.077 632.508 970.201 588.266C970.263 575.356 970.263 562.477 970.232 549.598C970.201 545.449 970.17 541.331 970.17 537.245C663.204 537.152 356.207 537.09 49.2415 537.276C49.2105 541.362 49.1796 545.48 49.1796 549.629C49.1796 562.508 49.2105 575.387 49.1796 588.297C49.1796 632.539 49.1796 676.78 49.1796 721.022C44.4118 720.991 39.644 720.991 34.8762 720.991C34.8762 520.031 34.9071 319.04 34.8452 118.081ZM49.2105 258.607C49.1796 263.344 49.1796 268.081 49.1796 272.848C49.1796 284.799 49.1796 296.749 49.2105 308.731C49.1796 333.901 49.1796 359.102 49.2105 384.273C64.9691 384.304 80.7276 384.334 96.4861 384.273C144.659 384.334 192.833 384.304 240.975 384.273C265.619 384.334 290.263 384.365 314.907 384.242C363.173 384.334 411.44 384.334 459.737 384.242C484.226 384.396 508.715 384.273 533.204 384.304C581.532 384.273 629.892 384.365 678.22 384.273C702.833 384.334 727.446 384.334 752.059 384.273C800.418 384.365 848.746 384.242 897.074 384.334C921.44 384.304 945.774 384.334 970.139 384.304C970.201 359.133 970.077 333.994 970.201 308.855C970.263 296.811 970.24 284.83 970.24 272.817C970.201 268.05 970.17 263.313 970.17 258.576C663.173 258.545 356.176 258.452 49.2105 258.607ZM49.2105 398.7C49.1796 402.91 49.1796 407.121 49.1796 411.393C49.1796 423.901 49.1796 436.409 49.2105 448.917C49.1796 473.56 49.1796 498.204 49.2105 522.848C65.2167 522.848 81.2229 522.879 97.2291 522.817C144.876 522.879 192.554 522.879 240.201 522.817C265.372 522.879 290.542 522.91 315.712 522.817C363.483 522.91 411.223 522.848 458.994 522.848C484.102 522.848 509.241 522.879 534.381 522.817C582.028 522.879 629.706 522.879 677.384 522.817C702.523 522.879 727.693 522.848 752.833 522.848C800.511 522.848 848.158 522.941 895.836 522.817C920.604 522.941 945.34 522.817 970.108 522.848C970.201 498.143 970.046 473.437 970.201 448.731C970.263 436.254 970.232 423.808 970.263 411.393C970.201 407.121 970.17 402.848 970.17 398.638C663.173 398.731 356.176 398.607 49.2105 398.7Z" fill="#DAE9EE" stroke="#DAE9EE" stroke-width="0.09375"/>
<path d="M49.2416 118.08C356.208 118.049 663.173 118.08 970.17 118.08C970.294 160.093 970.263 202.136 970.17 244.179C663.204 244.272 356.238 244.272 49.2416 244.179C49.1178 202.136 49.1487 160.093 49.2416 118.08ZM57.384 138.545C57.3178 171.981 57.2602 205.387 57.415 238.792C133.514 238.514 209.768 239.443 285.805 238.359C363.545 239.04 441.378 239.195 519.087 238.297C572.09 239.505 625.124 238.483 678.127 238.823C773.978 238.669 869.799 239.133 965.65 238.607C965.526 205.263 965.619 171.95 965.619 138.638C890.82 138.607 815.991 138.173 741.223 138.854C662.647 138.514 583.978 138.173 505.434 139.009C356.115 137.926 206.734 138.823 57.384 138.545Z" fill="#89A29C" stroke="#89A29C" stroke-width="0.09375"/>
<path d="M984.566 118.081C986.703 118.081 990.944 118.05 993.08 118.05C993.08 319.04 993.08 520 993.08 720.96C990.975 720.96 986.703 720.991 984.566 720.991C984.566 520.031 984.536 319.04 984.566 118.081Z" fill="#6D503E" stroke="#6D503E" stroke-width="0.09375"/>
<path d="M57.3839 138.545C206.734 138.824 356.115 137.926 505.433 139.009C456.548 162.012 406.548 182.632 357.415 205.108C333.545 216.161 308.282 224.489 285.805 238.359C209.768 239.443 133.514 238.514 57.4148 238.793C57.26 205.387 57.3177 171.981 57.3839 138.545Z" fill="#DAE9EE" stroke="#DAE9EE" stroke-width="0.09375"/>
<path d="M505.433 139.009C583.978 138.173 662.647 138.514 741.223 138.854C683.947 164.737 626.145 189.505 568.808 215.294C551.904 222.291 535.093 229.474 519.087 238.297C441.378 239.195 363.545 239.04 285.805 238.359C308.282 224.489 333.545 216.161 357.415 205.108C406.548 182.632 456.548 162.012 505.433 139.009Z" fill="#EEFCFF" stroke="#EEFCFF" stroke-width="0.09375"/>
<path d="M741.223 138.854C815.991 138.173 890.82 138.607 965.619 138.638C965.619 171.95 965.526 205.263 965.65 238.607C869.799 239.133 773.978 238.669 678.127 238.823C625.124 238.483 572.09 239.505 519.087 238.297C535.093 229.474 551.904 222.291 568.808 215.294C626.145 189.505 683.947 164.737 741.223 138.854Z" fill="#DAE9EE" stroke="#DAE9EE" stroke-width="0.09375"/>
<path d="M49.2106 258.607C356.177 258.452 663.173 258.545 970.17 258.576C970.17 263.313 970.201 268.05 970.232 272.817C663.235 272.91 356.208 272.879 49.1797 272.848C49.1797 268.081 49.1797 263.344 49.2106 258.607Z" fill="#89A29C" stroke="#89A29C" stroke-width="0.09375"/>
<path d="M49.1797 272.848C356.208 272.879 663.235 272.91 970.24 272.817C970.24 284.83 970.263 296.811 970.201 308.855C663.204 308.173 356.177 308.514 49.2106 308.731C49.1797 296.749 49.1797 284.799 49.1797 272.848Z" fill="#3D2719" stroke="#3D2719" stroke-width="0.09375"/>
<path d="M49.2106 398.7C356.177 398.607 663.173 398.731 970.17 398.638C970.17 402.848 970.201 407.121 970.263 411.393C663.235 411.424 356.208 411.393 49.1797 411.393C49.1797 407.121 49.1797 402.91 49.2106 398.7Z" fill="#89A29C" stroke="#89A29C" stroke-width="0.09375"/>
<path d="M49.1797 411.393C356.208 411.393 663.235 411.424 970.263 411.393C970.232 423.808 970.263 436.254 970.201 448.731C816.084 449.535 661.935 448.761 507.786 449.009C354.938 448.947 202.059 449.195 49.2106 448.916C49.1797 436.409 49.1797 423.901 49.1797 411.393Z" fill="#3D2719" stroke="#3D2719" stroke-width="0.09375"/>
<path d="M49.2416 537.276C356.208 537.09 663.204 537.152 970.17 537.245C970.17 541.331 970.201 545.449 970.232 549.598C663.235 549.598 356.208 549.536 49.1797 549.628C49.1797 545.48 49.2106 541.362 49.2416 537.276Z" fill="#89A29C" stroke="#89A29C" stroke-width="0.09375"/>
<path d="M49.1797 549.628C356.208 549.535 663.235 549.597 970.232 549.597C970.263 562.477 970.263 575.356 970.201 588.266C819.211 589.164 668.22 588.359 517.229 588.699C361.223 588.297 205.186 589.133 49.1797 588.297C49.2106 575.387 49.1797 562.508 49.1797 549.628Z" fill="#3D2719" stroke="#3D2719" stroke-width="0.09375"/>
<path d="M0.541914 721.114C7.84841 720.991 15.1549 720.898 22.4924 720.96C26.5791 720.929 30.7277 720.96 34.8763 720.991C39.6441 720.991 44.4119 720.991 49.1797 721.022C64.7524 720.991 80.2942 720.991 95.867 720.991C164.195 720.991 232.492 720.991 300.821 720.991C332.771 720.991 364.69 720.991 396.641 720.991C465 720.991 533.39 720.991 601.749 720.991C633.638 721.022 665.526 721.022 697.446 720.991C765.805 720.991 834.164 720.991 902.554 720.991C925.062 721.022 947.601 720.991 970.139 721.022C974.938 720.991 979.737 720.991 984.567 720.991C986.703 720.991 990.975 720.96 993.081 720.96C998.406 720.898 1003.76 720.898 1009.15 720.898C1009.12 725.944 1009.12 731.022 1009.12 736.13C947.322 737.059 885.464 736.223 823.669 736.532C797.817 736.192 772.028 738.018 746.207 736.997C703.824 735.356 661.471 737.833 619.087 737.245C478.777 737.771 338.499 735.913 198.22 736.563C132.245 736.285 66.2695 736.904 0.325195 736.223C0.387115 731.176 0.479994 726.13 0.541914 721.114Z" fill="#CFEAE3" stroke="#CFEAE3" stroke-width="0.09375"/>
<path d="M0.325077 736.223C66.2693 736.904 132.245 736.285 198.22 736.564C338.498 735.913 478.777 737.771 619.087 737.245C661.471 737.833 703.823 735.356 746.207 736.997C772.028 738.019 797.817 736.192 823.669 736.533C885.464 736.223 947.322 737.059 1009.12 736.13L1009.3 738.762C940.201 738.607 871.099 738.978 802.028 738.514C782.275 738.112 765.248 749.319 747.415 756.037C730.139 763.715 712.214 769.938 695.743 779.226C679.056 779.69 662.368 779.381 645.681 779.319C674.381 763.994 706.145 755.387 734.597 739.66C716.888 738.204 699.087 738.576 681.347 738.762C666.641 738.731 653.452 745.851 640.015 750.805C616.393 760.495 591.997 768.235 568.963 779.288C483.08 779.567 397.198 779.505 311.285 779.319C343.019 764.303 377.167 754.954 408.746 739.66C391.223 738.081 373.638 738.731 356.084 738.669C238.282 739.319 120.449 737.864 2.64706 739.35C1.71827 752.663 1.81115 766.037 2.4613 779.381L0.0464396 779.598C0.0773994 765.139 -0.201238 750.681 0.325077 736.223Z" fill="#AFC8C2" stroke="#AFC8C2" stroke-width="0.09375"/>
<path d="M2.64717 739.35C120.449 737.864 238.282 739.319 356.084 738.669C373.638 738.731 391.223 738.081 408.746 739.659C377.167 754.954 343.019 764.303 311.285 779.319C218.003 779.628 124.721 779.35 31.4397 779.443C21.7493 779.443 12.0899 779.443 2.46141 779.381C1.81125 766.037 1.71838 752.662 2.64717 739.35Z" fill="#9EB7B1" stroke="#9EB7B1" stroke-width="0.09375"/>
<path d="M640.016 750.805C653.452 745.851 666.641 738.731 681.347 738.762C699.087 738.576 716.889 738.204 734.598 739.659C706.146 755.387 674.381 763.994 645.681 779.319C620.108 779.597 594.536 779.443 568.963 779.288C591.997 768.235 616.393 760.495 640.016 750.805Z" fill="#9EB7B1" stroke="#9EB7B1" stroke-width="0.09375"/>
<path d="M747.415 756.037C765.248 749.319 782.275 738.111 802.028 738.514C871.099 738.978 940.201 738.607 1009.3 738.762C1009.37 752.291 1009.33 765.851 1009.3 779.412C1001.63 779.443 993.947 779.505 986.3 779.505C889.458 779.195 792.585 779.783 695.743 779.226C712.214 769.938 730.139 763.715 747.415 756.037Z" fill="#9EB7B1" stroke="#9EB7B1" stroke-width="0.09375"/>
<path d="M31.4397 779.443C124.721 779.35 218.003 779.628 311.285 779.319C397.198 779.505 483.081 779.567 568.963 779.288C594.536 779.443 620.108 779.598 645.681 779.319C662.368 779.381 679.056 779.69 695.743 779.226C792.585 779.783 889.458 779.195 986.3 779.505C983.576 786.347 980.759 793.189 977.879 800C974.04 799.938 970.201 799.938 966.393 799.969C966.362 795.666 966.331 791.424 966.362 787.183C661.811 787.152 357.26 787.183 52.709 787.183C52.6781 791.424 52.6162 795.697 52.6162 800C48.8391 799.938 45.0929 799.938 41.3778 799.969C38.0341 793.127 34.6905 786.285 31.4397 779.443Z" fill="#4B3424" stroke="#4B3424" stroke-width="0.09375"/>
</g>
<rect x="49" y="588" width="921" height="133" fill="#543A29"/>
<rect x="49" y="308" width="921" height="76" fill="#543A29"/>
<rect x="49" y="448" width="921" height="75" fill="#543A29"/>
<defs>
<clipPath id="clip0_147_737">
<rect width="1009.34" height="800" fill="white"/>
</clipPath>
</defs>
</svg>
