<svg width="1069" height="800" viewBox="0 0 1069 800" fill="none" xmlns="http://www.w3.org/2000/svg">
<g clip-path="url(#clip0_114_175)">
<path d="M0.990425 0.0139431C356.78 -0.0174289 712.602 0.0139431 1068.39 0.0139431C1068.42 27.5899 1068.39 55.1973 1068.39 82.7733C1016.47 83.1184 964.55 82.9301 912.63 82.9615C877.712 82.3968 842.764 84.0282 807.91 82.0204C833.509 63.2913 859.768 45.4406 885.744 27.2135C894.183 21.5665 902.779 16.0137 910.151 8.95496C790.906 7.7942 671.598 8.45301 552.322 8.5785C533.593 8.64124 514.895 8.64124 496.198 8.60987C442.551 8.10792 388.905 8.70399 335.259 8.29615C323.557 6.85304 314.961 15.6999 306.052 21.6606C275.715 42.774 245.692 64.4207 215.136 85.2203C207.199 83.8399 199.23 82.7419 191.23 82.7733C127.796 83.1184 64.3932 83.1497 0.990425 82.9615C0.966896 55.2914 0.966896 27.6527 0.990425 0.0139431ZM924.927 24.8606C931.986 25.1115 939.139 25.7704 946.198 24.7037C955.327 21.8802 962.417 14.9156 969.162 8.39027C952.817 6.10011 933.617 9.11182 924.927 24.8606ZM853.681 72.6088C861.807 72.8911 870.058 73.7068 878.183 72.4205C887.783 68.6245 895.626 61.5658 903.626 55.2287C895.155 54.8836 886.591 54.0365 878.246 55.4796C869.242 59.9031 861.775 66.8363 853.681 72.6088Z" fill="#D74129" stroke="#D74129" stroke-width="0.09375"/>
<path d="M306.052 21.6606C314.961 15.6999 323.557 6.85302 335.259 8.29614C388.905 8.70397 442.551 8.1079 496.198 8.60986C438.975 48.2013 380.278 85.6595 323.808 126.286C268.876 125.973 213.944 126.914 159.043 125.722C176.736 110.883 196.626 98.9926 215.136 85.2203C245.692 64.4207 275.715 42.774 306.052 21.6606Z" fill="#F54A38" stroke="#F54A38" stroke-width="0.09375"/>
<path d="M496.198 8.60986C514.895 8.64124 533.593 8.64124 552.322 8.57849C494.629 47.9504 436.371 86.4752 378.898 126.161C360.514 126.318 342.161 126.318 323.808 126.286C380.278 85.6595 438.975 48.2013 496.198 8.60986Z" fill="#FF9271" stroke="#FF9271" stroke-width="0.09375"/>
<path d="M552.322 8.57851C671.598 8.45303 790.906 7.79421 910.151 8.95498C902.779 16.0137 894.183 21.5665 885.744 27.2135C859.768 45.4406 833.509 63.2913 807.91 82.0204C788.584 94.8202 769.824 108.436 750.875 121.737C742.342 128.169 731.08 125.973 721.197 126.38C607.097 126.004 492.997 126.506 378.897 126.161C436.371 86.4752 494.629 47.9504 552.322 8.57851Z" fill="#F54A38" stroke="#F54A38" stroke-width="0.09375"/>
<path d="M924.927 24.8606C933.617 9.11184 952.817 6.10013 969.162 8.39029C962.417 14.9157 955.327 21.8802 946.198 24.7037C939.139 25.7704 931.986 25.1116 924.927 24.8606Z" fill="#F44B38" stroke="#F44B38" stroke-width="0.09375"/>
<path d="M853.681 72.6088C861.775 66.8363 869.242 59.9031 878.246 55.4796C886.591 54.0365 895.155 54.8836 903.626 55.2287C895.626 61.5658 887.783 68.6245 878.183 72.4205C870.058 73.7068 861.807 72.8911 853.681 72.6088Z" fill="#F54A38" stroke="#F54A38" stroke-width="0.09375"/>
<path d="M0.990425 82.9615C64.3932 83.1498 127.796 83.1184 191.23 82.7733C199.23 82.7419 207.199 83.84 215.136 85.2203C196.626 98.9926 176.736 110.883 159.043 125.722C213.944 126.914 268.876 125.973 323.808 126.286C342.161 126.318 360.514 126.318 378.898 126.161C492.998 126.506 607.098 126.004 721.198 126.38C731.08 125.973 742.342 128.169 750.875 121.737C769.824 108.436 788.585 94.8202 807.91 82.0204C842.764 84.0282 877.712 82.3968 912.63 82.9615C964.55 82.9302 1016.47 83.1184 1068.39 82.7733C1068.39 100.153 1068.39 117.502 1068.39 134.882C1064.28 134.882 1060.23 134.882 1056.19 134.914C1052.27 134.882 1048.38 134.882 1044.52 134.914C704.821 134.882 365.125 134.851 25.4292 134.914C22.794 134.914 17.4607 134.914 14.7941 134.914C10.1824 134.914 5.50799 134.851 0.990425 134.882C0.966896 117.565 0.966896 100.279 0.990425 82.9615ZM813.619 99.9024C801.604 108.561 789.118 116.592 777.479 125.753C788.365 125.659 801.133 129.173 810.388 121.58C821.651 112.953 834.325 106.145 844.427 96.0437C834.199 96.2005 822.372 93.0006 813.619 99.9024Z" fill="#CC3627" stroke="#CC3627" stroke-width="0.09375"/>
<path d="M813.62 99.9024C822.372 93.0005 834.2 96.2005 844.427 96.0436C834.325 106.145 821.651 112.953 810.388 121.58C801.133 129.172 788.365 125.659 777.479 125.753C789.118 116.592 801.604 108.561 813.62 99.9024Z" fill="#F54A38" stroke="#F54A38" stroke-width="0.09375"/>
<path d="M14.7942 134.914C17.4608 134.914 22.794 134.914 25.4293 134.914C25.9312 136.89 26.9038 140.78 27.3743 142.757C27.8763 143.321 28.9116 144.451 29.4449 145.047C30.637 158.85 29.7586 172.78 29.9782 186.646C30.041 236.873 29.9155 287.068 30.041 337.263C26.3391 337.294 22.6372 337.326 18.998 337.388C18.9666 341.373 18.9666 345.388 18.998 349.435C20.9744 349.498 24.8959 349.624 26.841 349.655C26.9665 355.459 27.092 361.263 27.8449 367.035C28.19 368.792 28.8488 372.243 29.1939 373.968C30.7625 387.646 29.7586 401.45 29.9782 415.191C30.0096 455.912 29.9468 496.633 30.041 537.354C26.2763 537.416 22.543 537.573 18.8411 537.73C18.8725 541.683 18.9666 545.636 19.0608 549.62C20.9117 549.651 24.645 549.714 26.5273 549.746C27.3116 555.173 28.2527 560.632 28.9116 566.153C30.1978 604.678 28.9743 643.234 29.79 681.79C24.7705 681.633 19.7509 681.477 14.7942 681.571C14.6373 499.331 14.6373 317.122 14.7942 134.914Z" fill="#9EB7B1" stroke="#9EB7B1" stroke-width="0.09375"/>
<path d="M25.4292 134.914C365.125 134.851 704.821 134.882 1044.52 134.914C1043.58 138.239 1042.7 141.564 1041.91 144.953L1038.53 144.858C856.505 144.451 674.453 144.796 492.401 144.702C338.083 144.921 183.764 144.231 29.4448 145.047C28.9115 144.451 27.8762 143.321 27.3743 142.757C26.9037 140.78 25.9312 136.89 25.4292 134.914Z" fill="#FFF9D3" stroke="#FFF9D3" stroke-width="0.09375"/>
<path d="M1044.52 134.914C1048.38 134.882 1052.27 134.882 1056.19 134.914C1056.31 317.216 1056.19 499.519 1056.25 681.822C1051.04 681.508 1045.83 681.383 1040.69 681.351C1040.66 643.266 1040.09 605.149 1041.35 567.094C1042.54 561.385 1044.02 555.769 1045.46 550.153C1047.22 549.62 1050.73 548.553 1052.52 548.02C1052.3 545.354 1051.86 540.083 1051.64 537.416C1048.88 537.385 1043.39 537.291 1040.63 537.26C1040.56 493.464 1040.44 449.638 1040.72 405.811C1040.78 395.176 1040.03 384.446 1042.1 373.937C1042.45 372.18 1043.17 368.666 1043.54 366.91C1043.98 361.2 1043.95 355.459 1044.05 349.78C1045.96 349.624 1049.82 349.31 1051.73 349.153C1051.64 345.137 1051.61 341.153 1051.58 337.2C1048.85 337.2 1043.36 337.232 1040.6 337.263C1040.6 283.742 1040.41 230.253 1040.72 176.764C1040.72 166.16 1040.19 155.462 1041.91 144.953C1042.7 141.564 1043.58 138.239 1044.52 134.914Z" fill="#9EB7B1" stroke="#9EB7B1" stroke-width="0.09375"/>
<path d="M29.4448 145.047C183.764 144.231 338.083 144.921 492.402 144.702C674.453 144.796 856.505 144.451 1038.53 144.858C1038.62 158.599 1038.59 172.34 1037.9 186.081C964.833 187.932 891.704 186.207 818.639 186.897C555.742 186.709 292.876 187.117 29.9781 186.646C29.7585 172.78 30.637 158.85 29.4448 145.047Z" fill="#3D2719" stroke="#3D2719" stroke-width="0.09375"/>
<path d="M1038.53 144.859L1041.91 144.953C1040.19 155.462 1040.72 166.16 1040.72 176.764C1040.41 230.253 1040.6 283.742 1040.6 337.263C703.755 337.263 366.882 337.2 30.0409 337.263C29.9154 287.068 30.0409 236.873 29.9781 186.646C292.876 187.117 555.742 186.709 818.639 186.897C891.704 186.207 964.833 187.932 1037.9 186.081C1038.59 172.34 1038.62 158.599 1038.53 144.859Z" fill="#4B3424" stroke="#4B3424" stroke-width="0.09375"/>
<path d="M18.998 337.388C22.6371 337.326 26.339 337.294 30.0409 337.263C366.882 337.2 703.755 337.263 1040.6 337.263C1043.36 337.232 1048.85 337.2 1051.58 337.2C1051.61 341.153 1051.64 345.137 1051.73 349.153C1049.82 349.31 1045.96 349.624 1044.05 349.78C704.978 349.749 365.91 350 26.841 349.655C24.8959 349.624 20.9744 349.498 18.998 349.435C18.9745 345.388 18.9745 341.373 18.998 337.388Z" fill="#CFEAE3" stroke="#CFEAE3" stroke-width="0.09375"/>
<path d="M26.8409 349.655C365.91 350 704.978 349.749 1044.05 349.78C1043.95 355.459 1043.98 361.2 1043.54 366.91C704.978 367.317 366.412 367.035 27.8448 367.035C27.0919 361.263 26.9664 355.459 26.8409 349.655Z" fill="#89A29C" stroke="#89A29C" stroke-width="0.09375"/>
<path d="M27.8448 367.035C366.412 367.035 704.978 367.317 1043.54 366.91C1043.17 368.666 1042.45 372.18 1042.1 373.937H1038.34C851.172 373.341 663.975 373.843 476.81 373.655C327.604 373.874 178.368 373.278 29.1938 373.968C28.8488 372.243 28.1899 368.792 27.8448 367.035Z" fill="#FEF0E7" stroke="#FEF0E7" stroke-width="0.09375"/>
<path d="M29.1938 373.968C178.368 373.278 327.604 373.874 476.81 373.654C663.975 373.843 851.172 373.341 1038.34 373.937C1038.68 387.489 1038.62 401.105 1037.9 414.689C701.935 415.693 365.941 414.658 29.9781 415.191C29.7585 401.45 30.7624 387.646 29.1938 373.968Z" fill="#3D2719" stroke="#3D2719" stroke-width="0.09375"/>
<path d="M1038.34 373.937H1042.1C1040.03 384.446 1040.78 395.176 1040.72 405.811C1040.44 449.637 1040.56 493.464 1040.63 537.259C703.755 537.291 366.882 537.134 30.0409 537.354C29.9468 496.633 30.0095 455.912 29.9781 415.191C365.941 414.658 701.935 415.693 1037.9 414.689C1038.62 401.105 1038.68 387.489 1038.34 373.937Z" fill="#4B3424" stroke="#4B3424" stroke-width="0.09375"/>
<path d="M18.8411 537.73C22.543 537.573 26.2762 537.416 30.0409 537.354C366.882 537.134 703.755 537.291 1040.63 537.26C1043.39 537.291 1048.88 537.385 1051.64 537.416C1051.86 540.083 1052.3 545.353 1052.52 548.02C1050.73 548.553 1047.22 549.62 1045.46 550.153C974.056 549.244 902.653 550.216 831.282 549.651C826.043 549.557 820.898 549.557 815.753 549.651C724.868 549.902 633.952 549.902 543.067 549.62C537.734 549.557 532.495 549.557 527.256 549.62C436.277 549.902 345.298 549.902 254.319 549.62C248.861 549.557 243.402 549.557 238.006 549.651C167.513 549.965 97.0201 549.808 26.5272 549.746C24.6449 549.714 20.9116 549.651 19.0607 549.62C18.9666 545.636 18.8724 541.683 18.8411 537.73Z" fill="#CFEAE3" stroke="#CFEAE3" stroke-width="0.09375"/>
<path d="M26.5272 549.746C97.0201 549.808 167.513 549.965 238.006 549.651C238.571 554.953 239.167 560.318 239.794 565.683C169.521 566.31 99.1848 565.369 28.9115 566.153C28.2527 560.632 27.3115 555.173 26.5272 549.746Z" fill="#89A29C" stroke="#89A29C" stroke-width="0.09375"/>
<path d="M238.006 549.652C243.402 549.557 248.861 549.557 254.319 549.62C254.351 555.33 254.445 561.071 254.508 566.843C254.162 604.302 255.292 641.791 254.413 679.249L253.692 681.885C249.488 681.79 245.347 681.665 241.237 681.539C240.014 642.952 243.433 604.176 239.794 565.683C239.167 560.318 238.571 554.953 238.006 549.652Z" fill="#9EB7B1" stroke="#9EB7B1" stroke-width="0.09375"/>
<path d="M254.319 549.62C345.298 549.902 436.277 549.902 527.256 549.62C527.319 555.298 527.444 561.008 527.538 566.718C436.528 566.969 345.518 566.718 254.508 566.843C254.445 561.071 254.351 555.33 254.319 549.62Z" fill="#89A29C" stroke="#89A29C" stroke-width="0.09375"/>
<path d="M527.256 549.62C532.495 549.557 537.734 549.557 543.067 549.62C542.942 555.142 542.879 560.663 542.816 566.247C542.095 603.737 543.005 641.258 542.628 678.779L542.597 681.853C537.577 681.79 532.62 681.822 527.695 681.884L527.601 680.096C527.413 642.952 527.883 605.807 527.507 568.663L527.538 566.718C527.444 561.008 527.319 555.298 527.256 549.62Z" fill="#9EB7B1" stroke="#9EB7B1" stroke-width="0.09375"/>
<path d="M543.067 549.62C633.952 549.902 724.868 549.902 815.753 549.651C815.91 555.079 816.098 560.538 816.318 566.028C725.151 566.153 633.952 565.745 542.816 566.247C542.879 560.663 542.942 555.142 543.067 549.62Z" fill="#89A29C" stroke="#89A29C" stroke-width="0.09375"/>
<path d="M815.753 549.651C820.898 549.557 826.043 549.557 831.282 549.651C831.407 555.267 831.596 560.945 831.815 566.655C832.474 604.929 832.035 643.234 831.439 681.508C826.325 681.539 821.306 681.665 816.286 681.822C816.474 643.203 816.757 604.615 816.317 566.028C816.098 560.537 815.91 555.079 815.753 549.651Z" fill="#9EB7B1" stroke="#9EB7B1" stroke-width="0.09375"/>
<path d="M831.282 549.651C902.653 550.216 974.056 549.244 1045.46 550.153C1044.02 555.769 1042.54 561.385 1041.35 567.094C971.515 566.341 901.649 567.22 831.815 566.655C831.595 560.945 831.407 555.267 831.282 549.651Z" fill="#89A29C" stroke="#89A29C" stroke-width="0.09375"/>
<path d="M28.9115 566.153C99.1848 565.369 169.521 566.31 239.794 565.683C238.884 567.063 237.002 569.792 236.061 571.173C223.292 570.451 210.524 570.608 197.787 570.577C175.011 570.483 152.235 570.483 129.459 570.608C97.773 570.671 66.1187 570.702 34.433 570.577C34.2447 587.957 34.3075 605.368 34.2761 622.78C34.3389 641.477 34.2447 660.175 34.3702 678.904C47.0131 678.936 59.6874 678.81 72.3931 678.81C95.1378 678.841 117.914 678.873 140.69 678.779C172.093 679.218 203.528 678.151 234.9 679.406C236.218 679.939 238.822 680.975 240.108 681.508C170.023 682.386 99.875 681.477 29.7899 681.79C28.9742 643.234 30.1978 604.678 28.9115 566.153Z" fill="#615A4D" stroke="#615A4D" stroke-width="0.09375"/>
<path d="M239.794 565.683C243.433 604.176 240.014 642.952 241.237 681.539L240.108 681.508C238.822 680.975 236.218 679.939 234.9 679.406C235.276 660.301 234.837 641.164 235.214 622.058C235.622 605.086 234.084 588.051 236.061 571.173C237.002 569.792 238.884 567.063 239.794 565.683Z" fill="#88968B" stroke="#88968B" stroke-width="0.09375"/>
<path d="M254.508 566.843C345.518 566.718 436.528 566.969 527.538 566.718L527.507 568.663L523.93 570.326C507.021 570.357 490.111 570.2 473.202 570.263C443.367 570.263 413.501 570.2 383.666 570.294C342.035 570.294 300.373 570.169 258.743 570.357C258.774 587.768 258.711 605.211 258.617 622.623C258.617 641.383 258.586 660.175 258.649 678.935C257.582 679.029 255.48 679.155 254.413 679.249C255.292 641.791 254.162 604.301 254.508 566.843Z" fill="#4B3424" stroke="#4B3424" stroke-width="0.09375"/>
<path d="M542.816 566.247C633.952 565.745 725.15 566.153 816.317 566.028C816.757 604.615 816.474 643.203 816.286 681.822L812.459 681.884L812.427 678.81C812.208 658.951 812.365 639.124 812.333 619.297C812.302 602.513 812.333 585.761 812.302 568.977C795.518 568.945 778.734 568.977 761.981 568.977C732.021 569.071 702.029 568.945 672.069 569.071C630.877 569.102 589.655 568.694 548.463 569.196L546.487 569.322C546.173 605.807 546.832 642.293 546.518 678.779H542.628C543.005 641.258 542.095 603.737 542.816 566.247Z" fill="#595144" stroke="#595144" stroke-width="0.09375"/>
<path d="M831.815 566.655C901.649 567.22 971.515 566.341 1041.35 567.094C1040.09 605.148 1040.66 643.265 1040.69 681.351C970.95 681.916 901.179 680.818 831.439 681.508C832.035 643.234 832.474 604.929 831.815 566.655ZM834.262 570.231C834.043 586.608 834.325 602.984 833.886 619.391C833.541 639.218 834.231 659.077 833.478 678.935C846.435 679.469 859.423 679.594 872.379 678.779C895.093 679.155 917.806 678.873 940.551 678.998C972.707 678.622 1004.86 680.128 1037.02 678.747C1037.05 658.951 1037.02 639.156 1037.05 619.36C1036.93 603.015 1036.93 586.702 1036.93 570.357C1023.94 570.2 1010.95 570.263 997.993 570.263C975.217 570.263 952.44 570.2 929.696 570.326C897.885 570.2 866.042 570.357 834.262 570.231Z" fill="#4B3424" stroke="#4B3424" stroke-width="0.09375"/>
<path d="M34.433 570.577C66.1187 570.702 97.7731 570.671 129.459 570.608C120.612 588.772 110.918 606.529 101.444 624.38C79.1067 621.995 56.6444 623.878 34.2761 622.78C34.3075 605.368 34.2448 587.957 34.433 570.577Z" fill="#B6DCD1" stroke="#B6DCD1" stroke-width="0.09375"/>
<path d="M129.459 570.608C152.235 570.482 175.011 570.482 197.787 570.577C188.72 587.612 179.685 604.678 170.838 621.807C160.611 640.693 150.447 659.642 140.69 678.779C117.914 678.873 95.1378 678.841 72.3931 678.81C82.338 660.803 91.7496 642.513 101.444 624.38C110.918 606.529 120.612 588.772 129.459 570.608Z" fill="#E6FFF9" stroke="#E6FFF9" stroke-width="0.09375"/>
<path d="M197.787 570.577C210.524 570.608 223.292 570.451 236.061 571.173C234.084 588.051 235.622 605.086 235.214 622.058C231.041 622.968 226.994 623.94 222.947 624.913C223.198 612.772 223.136 600.6 221.63 588.553C219.057 589.055 216.547 589.651 214.069 590.31C212.312 591.345 208.799 593.384 207.042 594.388C205.661 603.862 206.477 613.494 206.383 623.062C194.493 623.501 182.634 623.093 170.838 621.807C179.685 604.678 188.72 587.612 197.787 570.577Z" fill="#B6DCD1" stroke="#B6DCD1" stroke-width="0.09375"/>
<path d="M258.743 570.357C300.373 570.169 342.035 570.294 383.666 570.294C372.247 588.772 359.447 606.309 347.18 624.223C317.816 620.709 288.107 623.344 258.617 622.623C258.711 605.211 258.774 587.768 258.743 570.357Z" fill="#B6DCD1" stroke="#B6DCD1" stroke-width="0.09375"/>
<path d="M383.666 570.294C413.501 570.2 443.367 570.263 473.202 570.263C460.873 586.984 449.328 604.27 437.626 621.431C424.262 640.442 411.023 659.516 398.035 678.779C368.545 678.873 339.055 678.873 309.565 678.841C321.989 660.552 334.663 642.45 347.18 624.223C359.447 606.309 372.247 588.772 383.666 570.294Z" fill="#E6FFF9" stroke="#E6FFF9" stroke-width="0.09375"/>
<path d="M473.202 570.263C490.111 570.2 507.021 570.357 523.93 570.326C523.303 587.737 523.836 605.18 523.805 622.591C517.593 622.529 511.444 622.529 505.327 622.497C505.358 611.768 505.264 601.039 505.044 590.309C502.566 590.309 497.578 590.341 495.068 590.341C493.688 613.525 494.252 636.771 495.005 659.987L492.527 659.798C493.405 637.117 494.629 614.309 492.151 591.69C490.174 591.784 486.253 591.972 484.276 592.066C484.088 602.199 483.962 612.364 483.931 622.529C468.465 622.905 452.998 622.78 437.626 621.431C449.328 604.27 460.873 586.984 473.202 570.263Z" fill="#B6DCD1" stroke="#B6DCD1" stroke-width="0.09375"/>
<path d="M523.93 570.326L527.507 568.663C527.883 605.807 527.412 642.952 527.601 680.096L524.056 678.779C523.428 660.049 523.993 641.32 523.805 622.591C523.836 605.18 523.303 587.737 523.93 570.326Z" fill="#462F1F" stroke="#462F1F" stroke-width="0.09375"/>
<path d="M546.487 569.322L548.463 569.196C548.181 585.792 547.867 602.419 548.871 619.015C578.518 620.74 608.195 619.266 637.873 619.956C624.603 639.626 610.893 659.014 597.811 678.81C580.714 678.779 563.616 678.81 546.518 678.779C546.832 642.293 546.173 605.807 546.487 569.322Z" fill="#A2CCC0" stroke="#A2CCC0" stroke-width="0.09375"/>
<path d="M548.463 569.196C589.655 568.694 630.877 569.102 672.069 569.071C661.497 586.576 649.387 603.078 637.873 619.956C608.195 619.266 578.518 620.74 548.871 619.015C547.867 602.419 548.181 585.792 548.463 569.196Z" fill="#B6DCD1" stroke="#B6DCD1" stroke-width="0.09375"/>
<path d="M672.069 569.071C702.029 568.945 732.021 569.071 761.981 568.977C749.934 585.384 738.891 602.482 727.347 619.203C713.543 638.968 699.927 658.857 686.437 678.81C656.885 678.873 627.333 678.873 597.812 678.81C610.894 659.014 624.603 639.626 637.874 619.956C649.387 603.078 661.497 586.576 672.069 569.071Z" fill="#E6FFF9" stroke="#E6FFF9" stroke-width="0.09375"/>
<path d="M761.981 568.977C778.734 568.977 795.518 568.945 812.302 568.977C812.333 585.761 812.302 602.513 812.333 619.297C807 619.548 801.698 619.831 796.428 620.144C795.518 633.07 795.831 646.058 795.643 659.014L793.667 659.955C792.694 635.893 795.831 611.768 793.071 587.8C790.059 589.4 783 588.396 784.004 593.729C783.063 615.721 783.722 637.775 784.004 659.799L781.463 659.516C782.53 636.615 782.31 613.65 781.777 590.717C779.487 590.968 774.906 591.439 772.648 591.69C772.616 601.007 772.616 610.325 772.522 619.642C757.432 619.862 742.374 619.799 727.346 619.203C738.891 602.482 749.934 585.384 761.981 568.977Z" fill="#B6DCD1" stroke="#B6DCD1" stroke-width="0.09375"/>
<path d="M834.262 570.231C866.042 570.357 897.885 570.2 929.696 570.326C921.665 587.047 912.724 603.297 904.034 619.705C880.661 618.889 857.258 619.078 833.886 619.391C834.325 602.984 834.043 586.608 834.262 570.231Z" fill="#B6DCD1" stroke="#B6DCD1" stroke-width="0.09375"/>
<path d="M929.696 570.326C952.44 570.2 975.217 570.263 997.993 570.263C989.459 586.514 980.832 602.733 972.33 618.984C961.695 638.968 951.06 658.951 940.551 678.998C917.806 678.873 895.092 679.155 872.379 678.779C883.422 659.359 893.43 639.375 904.033 619.705C912.724 603.298 921.665 587.047 929.696 570.326Z" fill="#E6FFF9" stroke="#E6FFF9" stroke-width="0.09375"/>
<path d="M997.993 570.263C1010.95 570.263 1023.94 570.2 1036.93 570.357C1036.93 586.702 1036.93 603.015 1037.05 619.36C1032.31 619.329 1027.64 619.297 1023.03 619.297C1023.22 609.039 1022.71 598.811 1021.68 588.615C1019.11 589.243 1016.57 589.87 1014.06 590.561C1012.39 591.031 1009.07 592.004 1007.37 592.474C1006.34 601.353 1006.21 610.325 1006.27 619.297C994.95 619.172 983.624 619.078 972.331 618.984C980.832 602.733 989.46 586.514 997.993 570.263Z" fill="#B6DCD1" stroke="#B6DCD1" stroke-width="0.09375"/>
<path d="M214.069 590.31C216.547 589.651 219.057 589.055 221.63 588.553C223.136 600.6 223.198 612.772 222.947 624.913C222.885 636.834 223.01 648.787 222.822 660.74C220.689 660.52 216.359 660.05 214.195 659.799C214.289 636.646 214.477 613.462 214.069 590.31Z" fill="#E6FFF9" stroke="#E6FFF9" stroke-width="0.09375"/>
<path d="M784.004 593.729C783 588.396 790.059 589.4 793.071 587.8C795.832 611.768 792.694 635.893 793.667 659.955C791.251 659.893 786.42 659.83 784.004 659.799C783.722 637.775 783.063 615.721 784.004 593.729Z" fill="#E6FFF9" stroke="#E6FFF9" stroke-width="0.09375"/>
<path d="M1014.06 590.561C1016.56 589.87 1019.11 589.243 1021.68 588.615C1022.71 598.811 1023.22 609.039 1023.03 619.297C1022.84 633.101 1023 646.936 1022.81 660.771C1020.64 660.551 1016.31 660.144 1014.15 659.924C1014.37 636.803 1014.49 613.682 1014.06 590.561Z" fill="#E6FFF9" stroke="#E6FFF9" stroke-width="0.09375"/>
<path d="M207.042 594.388C208.799 593.384 212.312 591.345 214.069 590.31C214.477 613.462 214.289 636.646 214.195 659.799C212.532 659.579 209.238 659.14 207.575 658.92C206.101 646.999 206.352 635.015 206.383 623.062C206.477 613.493 205.661 603.862 207.042 594.388Z" fill="#90B6AB" stroke="#90B6AB" stroke-width="0.09375"/>
<path d="M484.276 592.066C486.253 591.972 490.174 591.784 492.151 591.69C494.629 614.309 493.405 637.117 492.527 659.799C490.425 659.579 486.252 659.202 484.182 659.014C483.868 646.842 483.805 634.67 483.931 622.529C483.962 612.364 484.088 602.2 484.276 592.066Z" fill="#8FB5AA" stroke="#8FB5AA" stroke-width="0.09375"/>
<path d="M495.068 590.341C497.578 590.341 502.566 590.31 505.045 590.31C505.264 601.039 505.358 611.768 505.327 622.497C505.295 635.203 505.327 647.909 505.201 660.646C502.66 660.489 497.547 660.144 495.005 659.987C494.252 636.771 493.688 613.525 495.068 590.341Z" fill="#E6FFF9" stroke="#E6FFF9" stroke-width="0.09375"/>
<path d="M772.648 591.69C774.906 591.439 779.487 590.968 781.777 590.717C782.31 613.65 782.53 636.615 781.463 659.516C779.361 659.234 775.157 658.669 773.055 658.387C772.397 645.461 772.24 632.536 772.522 619.642C772.616 610.325 772.616 601.007 772.648 591.69Z" fill="#8FB5AA" stroke="#8FB5AA" stroke-width="0.09375"/>
<path d="M1007.37 592.474C1009.07 592.004 1012.39 591.031 1014.06 590.561C1014.49 613.682 1014.37 636.803 1014.15 659.924C1012.46 659.736 1009.07 659.328 1007.37 659.108C1005.93 645.869 1006.34 632.568 1006.27 619.297C1006.21 610.325 1006.34 601.353 1007.37 592.474Z" fill="#90B6AB" stroke="#90B6AB" stroke-width="0.09375"/>
<path d="M727.347 619.203C742.374 619.799 757.432 619.862 772.522 619.642C772.24 632.536 772.397 645.461 773.056 658.387C775.157 658.669 779.361 659.234 781.463 659.516L784.004 659.799C786.42 659.83 791.251 659.893 793.667 659.955L795.643 659.014C795.832 646.058 795.518 633.07 796.428 620.144C801.698 619.831 807 619.548 812.333 619.297C812.365 639.124 812.208 658.951 812.427 678.81C770.42 678.81 728.413 678.779 686.438 678.81C699.927 658.857 713.543 638.967 727.347 619.203Z" fill="#A2CCC0" stroke="#A2CCC0" stroke-width="0.09375"/>
<path d="M833.886 619.392C857.258 619.078 880.662 618.89 904.034 619.705C893.43 639.375 883.422 659.359 872.379 678.779C859.423 679.594 846.435 679.469 833.478 678.936C834.231 659.077 833.541 639.219 833.886 619.392Z" fill="#A2CCC0" stroke="#A2CCC0" stroke-width="0.09375"/>
<path d="M972.33 618.984C983.624 619.078 994.949 619.172 1006.27 619.297C1006.34 632.568 1005.93 645.869 1007.37 659.108C1009.07 659.328 1012.46 659.736 1014.15 659.924C1016.31 660.144 1020.64 660.552 1022.81 660.771C1023 646.936 1022.84 633.101 1023.03 619.297C1027.64 619.297 1032.31 619.329 1037.05 619.36C1037.02 639.156 1037.05 658.952 1037.02 678.747C1004.86 680.128 972.707 678.622 940.551 678.998C951.06 658.952 961.695 638.968 972.33 618.984Z" fill="#A2CCC0" stroke="#A2CCC0" stroke-width="0.09375"/>
<path d="M34.2761 622.78C56.6444 623.878 79.1067 621.995 101.444 624.38C91.7496 642.513 82.338 660.802 72.3931 678.81C59.6874 678.81 47.0132 678.935 34.3702 678.904C34.2448 660.175 34.3389 641.477 34.2761 622.78Z" fill="#A2CCC0" stroke="#A2CCC0" stroke-width="0.09375"/>
<path d="M140.69 678.779C150.447 659.642 160.611 640.693 170.838 621.807C182.634 623.093 194.493 623.501 206.383 623.062C206.352 635.015 206.101 646.999 207.575 658.92C209.238 659.14 212.532 659.579 214.195 659.799C216.359 660.05 220.689 660.52 222.822 660.74C223.01 648.787 222.885 636.834 222.947 624.913C226.994 623.94 231.041 622.968 235.214 622.058C234.837 641.164 235.277 660.301 234.9 679.406C203.528 678.151 172.093 679.218 140.69 678.779Z" fill="#A2CCC0" stroke="#A2CCC0" stroke-width="0.09375"/>
<path d="M258.617 622.623C288.107 623.344 317.816 620.709 347.181 624.223C334.663 642.45 321.989 660.551 309.565 678.841C292.593 678.873 275.621 678.528 258.649 678.935C258.586 660.175 258.617 641.383 258.617 622.623Z" fill="#A2CCC0" stroke="#A2CCC0" stroke-width="0.09375"/>
<path d="M398.034 678.779C411.022 659.516 424.261 640.442 437.626 621.431C452.998 622.78 468.465 622.905 483.931 622.529C483.805 634.67 483.868 646.842 484.182 659.014C486.252 659.203 490.425 659.579 492.527 659.799L495.005 659.987C497.546 660.144 502.66 660.489 505.201 660.646C505.327 647.909 505.295 635.203 505.327 622.497C511.444 622.529 517.593 622.529 523.805 622.591C523.993 641.32 523.428 660.05 524.056 678.779C482.017 678.81 440.01 678.81 398.034 678.779Z" fill="#A2CCC0" stroke="#A2CCC0" stroke-width="0.09375"/>
<path d="M254.413 679.249C255.48 679.155 257.582 679.03 258.649 678.935C275.621 678.528 292.593 678.873 309.565 678.841C339.055 678.873 368.545 678.873 398.035 678.779C440.01 678.81 482.017 678.81 524.056 678.779L527.601 680.096L527.695 681.884C436.34 682.01 345.016 681.884 253.692 681.884L254.413 679.249Z" fill="#6A6051" stroke="#6A6051" stroke-width="0.09375"/>
<path d="M542.628 678.779H546.518C563.616 678.81 580.714 678.779 597.811 678.81C627.332 678.873 656.885 678.873 686.437 678.81C728.413 678.779 770.42 678.81 812.427 678.81L812.459 681.884C722.515 682.01 632.54 681.916 542.597 681.853L542.628 678.779Z" fill="#6A6051" stroke="#6A6051" stroke-width="0.09375"/>
<path d="M3.71985 682.386C7.359 681.947 11.0609 681.696 14.7942 681.571C19.7509 681.476 24.7705 681.633 29.79 681.79C99.875 681.477 170.023 682.386 240.108 681.508L241.237 681.539C245.347 681.665 249.488 681.79 253.692 681.884C345.016 681.884 436.34 682.01 527.695 681.884C532.62 681.822 537.577 681.79 542.597 681.853C632.54 681.916 722.515 682.01 812.459 681.884L816.286 681.822C821.306 681.665 826.325 681.539 831.439 681.508C901.179 680.818 970.95 681.916 1040.69 681.351C1045.84 681.382 1051.04 681.508 1056.25 681.822C1058.48 681.978 1062.93 682.292 1065.16 682.449C1064.97 687.688 1064.78 692.927 1064.72 698.229C974.652 698.794 884.552 698.104 794.483 698.574C716.743 698.355 639.003 698.48 561.263 698.48C520.574 697.068 479.884 697.696 439.195 697.727C394.239 699.735 349.282 696.818 304.295 697.602C204.846 698.261 105.334 696.535 5.91589 698.512L4.09631 698.449C3.93945 693.053 3.84534 687.72 3.71985 682.386Z" fill="#CFEAE3" stroke="#CFEAE3" stroke-width="0.09375"/>
<path d="M4.09631 698.449L5.91589 698.511C25.7116 701.115 45.6956 699.547 65.6168 699.86C129.459 700.174 193.301 699.798 257.143 699.986C293.723 700.394 330.334 698.888 366.851 700.864C338.49 724.111 309.189 746.197 281.111 769.789C197.756 769.789 114.432 769.757 31.0762 769.82C22.0411 769.851 13.006 769.757 4.0022 769.538C4.25317 745.852 4.06494 722.135 4.09631 698.449Z" fill="#9EB7B1" stroke="#9EB7B1" stroke-width="0.09375"/>
<path d="M5.91577 698.512C105.334 696.535 204.846 698.261 304.295 697.602C349.282 696.818 394.238 699.735 439.195 697.727C479.884 697.696 520.573 697.068 561.263 698.48C639.003 698.48 716.743 698.355 794.482 698.574C773.212 712.253 750.718 723.86 728.946 736.723C710.374 747.797 690.484 756.707 673.104 769.695C588.494 769.851 503.884 769.82 419.273 769.695C448.355 752.315 478.096 736.001 507.397 718.997C517.405 713.288 528.165 708.707 536.981 701.147C512.668 698.637 488.229 700.488 463.853 699.955C451.524 700.206 439.038 698.543 426.865 700.959C415.979 706.26 407.477 715.201 397.94 722.417C377.988 738.04 358.349 754.04 338.522 769.789C319.353 769.789 300.248 769.789 281.111 769.789C309.189 746.197 338.49 724.111 366.851 700.864C330.334 698.888 293.723 700.394 257.143 699.986C193.301 699.798 129.459 700.174 65.6167 699.861C45.6955 699.547 25.7115 701.115 5.91577 698.512Z" fill="#AFC8C2" stroke="#AFC8C2" stroke-width="0.09375"/>
<path d="M794.483 698.574C884.552 698.104 974.652 698.794 1064.72 698.229C1064.97 722.041 1064.88 745.852 1064.78 769.663C1057.91 770.51 1048.5 766.997 1044.74 774.84V774.808C1044.89 773.585 1045.24 771.075 1045.4 769.82C1022.15 769.726 998.934 769.82 975.719 769.789C976.064 755.42 976.095 741.052 975.436 726.715C919.406 726.715 863.375 726.37 807.376 726.872C807.439 741.178 807.502 755.483 807.251 769.789C762.514 769.726 717.809 769.883 673.104 769.695C690.484 756.707 710.374 747.797 728.946 736.723C750.719 723.86 773.212 712.253 794.483 698.574ZM778.891 729.162C778.922 731.327 778.922 735.687 778.953 737.883C783.91 737.978 788.867 738.072 793.918 738.229C793.949 735.782 794.043 730.887 794.106 728.44C788.992 728.629 783.942 728.88 778.891 729.162Z" fill="#9EB7B1" stroke="#9EB7B1" stroke-width="0.09375"/>
<path d="M397.94 722.417C407.477 715.202 415.979 706.26 426.865 700.959C439.038 698.543 451.524 700.206 463.853 699.955C488.229 700.488 512.668 698.637 536.981 701.147C528.166 708.707 517.405 713.288 507.397 718.998C478.096 736.001 448.355 752.315 419.273 769.695C392.356 769.914 365.439 769.695 338.522 769.789C358.349 754.04 377.988 738.04 397.94 722.417Z" fill="#9EB7B1" stroke="#9EB7B1" stroke-width="0.09375"/>
<path d="M807.376 726.872C863.375 726.37 919.406 726.715 975.436 726.715C976.095 741.052 976.064 755.42 975.719 769.789C919.531 769.789 863.375 769.757 807.251 769.789C807.502 755.483 807.439 741.178 807.376 726.872ZM818.67 734.213C818.514 744.252 818.514 754.291 818.608 764.33C821.243 764.55 826.545 764.958 829.18 765.146C830.372 755.232 830.121 745.256 830.027 735.342C826.2 734.934 822.435 734.558 818.67 734.213ZM844.333 734.997C844.427 744.754 844.458 754.511 844.364 764.299C848.097 764.299 851.831 764.205 855.627 764.079C855.47 754.26 855.47 744.503 855.501 734.746C851.736 734.809 848.003 734.903 844.333 734.997ZM870.717 734.527C870.12 744.472 870.152 754.479 870.622 764.456C873.289 764.518 878.622 764.644 881.32 764.675C881.414 754.605 881.414 744.566 881.258 734.527C878.622 734.527 873.352 734.527 870.717 734.527ZM896.065 734.495C895.689 744.472 895.689 754.511 896.002 764.55C898.669 764.55 904.034 764.581 906.732 764.581C906.92 754.605 906.951 744.628 906.794 734.652C904.128 734.621 898.763 734.527 896.065 734.495ZM921.916 734.652C921.602 744.566 921.57 754.511 921.853 764.487C924.519 764.518 929.884 764.581 932.582 764.612C932.833 754.605 932.833 744.597 932.582 734.589C929.916 734.621 924.582 734.621 921.916 734.652ZM947.296 734.307C947.107 744.346 947.107 754.385 947.296 764.456C949.899 764.581 955.139 764.895 957.774 765.052C958.997 755.169 958.715 745.224 958.715 735.342C954.888 734.934 951.06 734.589 947.296 734.307Z" fill="#7B928C" stroke="#7B928C" stroke-width="0.09375"/>
<path d="M778.891 729.162C783.942 728.88 788.992 728.629 794.106 728.441C794.043 730.888 793.949 735.782 793.918 738.229C788.867 738.072 783.91 737.978 778.953 737.884C778.922 735.688 778.922 731.327 778.891 729.162Z" fill="#B6D144" stroke="#B6D144" stroke-width="0.09375"/>
<path d="M818.67 734.213C822.435 734.558 826.2 734.934 830.027 735.342C830.121 745.256 830.372 755.232 829.18 765.146C826.545 764.958 821.243 764.55 818.608 764.33C818.514 754.291 818.514 744.252 818.67 734.213Z" fill="#4A5E57" stroke="#4A5E57" stroke-width="0.09375"/>
<path d="M844.333 734.997C848.003 734.903 851.736 734.809 855.501 734.746C855.47 744.503 855.47 754.26 855.626 764.079C851.83 764.205 848.097 764.299 844.364 764.299C844.458 754.511 844.427 744.754 844.333 734.997Z" fill="#4A5E57" stroke="#4A5E57" stroke-width="0.09375"/>
<path d="M870.716 734.527C873.352 734.527 878.622 734.527 881.257 734.527C881.414 744.566 881.414 754.605 881.32 764.675C878.622 764.644 873.289 764.518 870.622 764.456C870.152 754.479 870.12 744.472 870.716 734.527Z" fill="#4A5D57" stroke="#4A5D57" stroke-width="0.09375"/>
<path d="M896.065 734.495C898.763 734.527 904.128 734.621 906.794 734.652C906.951 744.628 906.92 754.605 906.732 764.581C904.034 764.581 898.669 764.55 896.002 764.55C895.689 754.511 895.689 744.472 896.065 734.495Z" fill="#4A5D57" stroke="#4A5D57" stroke-width="0.09375"/>
<path d="M921.915 734.652C924.582 734.621 929.915 734.621 932.582 734.589C932.833 744.597 932.833 754.605 932.582 764.612C929.884 764.581 924.519 764.518 921.853 764.487C921.57 754.511 921.602 744.566 921.915 734.652Z" fill="#4A5D57" stroke="#4A5D57" stroke-width="0.09375"/>
<path d="M947.296 734.307C951.06 734.589 954.888 734.935 958.715 735.342C958.715 745.225 958.997 755.169 957.774 765.052C955.139 764.895 949.9 764.581 947.296 764.456C947.107 754.385 947.107 744.346 947.296 734.307Z" fill="#4A5D57" stroke="#4A5D57" stroke-width="0.09375"/>
<path d="M31.0762 769.82C114.432 769.757 197.756 769.789 281.111 769.789C300.248 769.789 319.354 769.789 338.522 769.789C365.439 769.695 392.356 769.914 419.273 769.695C503.884 769.82 588.494 769.851 673.104 769.695C717.809 769.883 762.514 769.726 807.251 769.789C863.375 769.757 919.531 769.789 975.719 769.789C998.934 769.82 1022.15 769.726 1045.4 769.82C1045.24 771.075 1044.89 773.585 1044.74 774.808C1043.33 783.31 1041.19 791.624 1039.18 800C1034.35 799.969 1029.58 799.937 1024.85 799.969C1024.82 792.784 1024.85 785.663 1024.91 778.541C700.868 778.259 376.827 778.479 52.7542 778.416C52.7229 785.6 52.7229 792.784 52.7229 800C48.0171 799.969 43.3426 799.937 38.7309 799.969C36.1584 789.898 33.5546 779.859 31.0762 769.82Z" fill="#4D3423" stroke="#4D3423" stroke-width="0.09375"/>
</g>
<defs>
<clipPath id="clip0_114_175">
<rect width="1067.43" height="800" fill="white" transform="translate(0.972778)"/>
</clipPath>
</defs>
</svg>
