<svg width="100" height="100" viewBox="0 0 100 100" fill="none" xmlns="http://www.w3.org/2000/svg">
<path d="M45.0899 3.31001C46.4499 0.590006 51.1999 2.48001 49.7799 5.38001C46.8999 10.89 50.3399 16.75 50.9799 22.39C43.6699 22.13 36.6499 24.33 29.6199 25.98C27.6899 24.18 25.6699 22.44 24.1799 20.22C26.4399 20.58 28.6699 21.32 30.9699 21.27C34.7999 20.75 38.2099 18.46 42.1199 18.33C44.1399 18.34 46.1299 18.74 48.1199 19.01C47.2499 13.76 44.9599 8.67001 45.0899 3.31001Z" fill="#7C993C" stroke="#7C993C" stroke-width="0.09375"/>
<path d="M50.9801 22.39C50.3401 16.75 46.9001 10.89 49.7801 5.38C51.3101 8.9 51.9301 12.72 52.9201 16.41C57.4801 15.58 61.8701 17.08 65.8701 19.16C69.7401 21.24 74.2001 20.68 78.3801 20.13C76.1301 22.54 73.7901 25.07 70.6501 26.3C69.8201 26.58 68.9801 26.83 68.1401 27.07C65.8001 27.07 63.4701 27.18 61.1301 27.12C61.7201 27.71 62.3101 28.29 62.8901 28.89C66.6501 32.08 67.9301 36.94 68.1801 41.68C62.7801 38.31 56.8501 35.74 51.9801 31.57C49.5701 34.63 47.3201 38.54 43.1801 39.38C41.1101 39.19 39.1301 38.48 37.4601 37.24C39.3101 34.1 41.1701 30.94 42.2201 27.43C38.2801 27.15 34.3301 26.9 30.4401 26.22L29.6201 25.98C36.6501 24.33 43.6701 22.13 50.9801 22.39Z" fill="#97C447" stroke="#97C447" stroke-width="0.09375"/>
<path d="M30.4401 26.22C34.3301 26.9 38.2801 27.15 42.2201 27.43C41.1701 30.94 39.3101 34.1 37.4601 37.24C37.2501 38.18 37.0501 39.13 36.8701 40.08C38.9701 39.82 41.1001 39.77 43.1801 39.38C47.3201 38.54 49.5701 34.63 51.9801 31.57C56.8501 35.74 62.7801 38.31 68.1801 41.68C67.9301 36.94 66.6501 32.08 62.8901 28.89C64.6201 28.24 66.3701 27.61 68.1401 27.07C68.9801 26.83 69.8201 26.58 70.6501 26.3C79.2401 31.16 86.8301 38.46 90.1001 47.97C93.9901 58.29 92.1301 70.13 86.2901 79.35C77.9101 82.79 68.7601 84.85 59.6901 83.35C44.3601 81.35 29.7401 70.87 25.3001 55.67C22.0701 45.93 24.5801 35.54 28.8201 26.54C29.2201 26.46 30.0301 26.3 30.4401 26.22Z" fill="#EF5454" stroke="#EF5454" stroke-width="0.09375"/>
<path d="M7.77991 57.99C8.11991 44.57 17.1799 32.62 28.8199 26.54C24.5799 35.54 22.0699 45.93 25.2999 55.67C29.7399 70.87 44.3599 81.35 59.6899 83.35C68.7599 84.85 77.9099 82.79 86.2899 79.35C80.3699 88.46 70.5299 94.67 59.9799 96.94C44.9999 100.34 28.1499 95.76 17.6499 84.36C10.9399 77.4 7.15991 67.67 7.77991 57.99ZM19.3199 47.37C16.4099 53.49 16.4799 60.7 17.6499 67.26C18.2399 69.22 18.3199 72.39 21.0799 72.27C20.5299 68.18 19.3099 64.16 19.2999 60C19.2199 55.53 20.6299 51.24 21.1399 46.83C20.6799 46.97 19.7699 47.24 19.3199 47.37ZM23.0199 76.75C21.3199 80.21 25.5199 83.3 27.9399 85.26C28.0999 84.9 28.4099 84.18 28.5699 83.82C27.5199 80.96 25.2399 78.75 23.0199 76.75Z" fill="#D23434" stroke="#D23434" stroke-width="0.09375"/>
<path opacity="0.78" d="M61.1299 27.12C63.4699 27.18 65.7999 27.07 68.1399 27.07C66.3699 27.61 64.6199 28.24 62.8899 28.89C62.3099 28.29 61.7199 27.71 61.1299 27.12Z" fill="#9A6B3C" stroke="#9A6B3C" stroke-width="0.09375"/>
<path opacity="0.8" d="M36.8701 40.08C37.0501 39.13 37.2501 38.18 37.4601 37.24C39.1301 38.48 41.1101 39.19 43.1801 39.38C41.1001 39.77 38.9701 39.82 36.8701 40.08Z" fill="#B15541" stroke="#B15541" stroke-width="0.09375"/>
<path d="M19.32 47.37C19.77 47.24 20.68 46.97 21.14 46.83C20.63 51.24 19.22 55.53 19.3 60C19.31 64.16 20.53 68.18 21.08 72.27C18.32 72.39 18.24 69.22 17.65 67.26C16.48 60.7 16.41 53.49 19.32 47.37Z" fill="#E3B8B8" stroke="#E3B8B8" stroke-width="0.09375"/>
<path d="M23.0201 76.75C25.2401 78.75 27.5201 80.96 28.5701 83.82C28.4101 84.18 28.1001 84.9 27.9401 85.26C25.5201 83.3 21.3201 80.21 23.0201 76.75Z" fill="#E2B1B1" stroke="#E2B1B1" stroke-width="0.09375"/>
</svg>
