<svg width="120" height="13" viewBox="0 0 120 13" fill="none" xmlns="http://www.w3.org/2000/svg">
<path d="M0.82031 0.182931C39.7092 0.439277 78.6409 -0.308371 117.487 0.524754C117.915 1.50741 118.77 3.49407 119.197 4.47673C117.936 4.58354 115.435 4.83988 114.173 4.94669C77.7643 4.66898 41.3341 4.69034 4.92513 4.96805C3.85617 4.92532 1.73962 4.81852 0.670654 4.77579C0.713413 3.62224 0.777552 1.31512 0.82031 0.182931Z" fill="#DFAF4D" stroke="#DFAF4D" stroke-width="0.09375"/>
<path d="M4.92505 4.96805C41.334 4.69034 77.7643 4.66898 114.173 4.94669C112.313 7.46743 110.603 10.095 108.871 12.7439C75.9684 12.7866 43.0443 12.7866 10.1416 12.7439C8.43125 10.1163 6.76367 7.48879 4.92505 4.96805Z" fill="#EA9747" stroke="#EA9747" stroke-width="0.09375"/>
</svg>
