<svg width="100" height="100" viewBox="0 0 100 100" fill="none" xmlns="http://www.w3.org/2000/svg">
<g clip-path="url(#clip0_124_2136)">
<path d="M43.46 0H56.38C57.01 3.5 56.62 7.06 56.76 10.59C52.47 10.23 48.15 10.34 43.85 10.48L43.03 10.52C43.16 7.01 43.1 3.5 43.46 0Z" fill="#9CBCFF" stroke="#9CBCFF" stroke-width="0.09375"/>
<path d="M43.8501 10.48C48.1501 10.34 52.4701 10.23 56.7601 10.59C63.8901 12.11 69.2101 18.73 69.2501 26.01C58.7801 26.13 48.3001 26.13 37.8201 25.97C39.3301 22.96 40.7501 19.58 43.7801 17.77C46.6501 16.06 49.8601 15.04 52.8901 13.66C52.8901 13.04 52.8901 11.8 52.8901 11.18C49.9001 10.76 46.8801 10.39 43.8501 10.48Z" fill="#CBE3FA" stroke="#CBE3FA" stroke-width="0.09375"/>
<path d="M30.5901 26C30.6101 18.74 35.9301 12.07 43.0301 10.52L43.8501 10.48C46.8801 10.39 49.9001 10.76 52.8901 11.18C52.8901 11.8 52.8901 13.04 52.8901 13.66C49.8601 15.04 46.6501 16.06 43.7801 17.77C40.7501 19.58 39.3301 22.96 37.8201 25.97H36.9401C34.8201 25.97 32.7101 26.01 30.5901 26Z" fill="#EEF7FF" stroke="#EEF7FF" stroke-width="0.09375"/>
<path d="M30.5899 26C32.7099 26.01 34.8199 25.97 36.9399 25.97C37.3399 32.68 37.2199 39.41 37.0799 46.13C34.8999 46.13 32.7299 46.13 30.5499 46.12C30.4199 39.42 30.2799 32.7 30.5899 26Z" fill="#9CBCFF" stroke="#9CBCFF" stroke-width="0.09375"/>
<path d="M36.9399 25.97H37.8199C48.2999 26.13 58.7799 26.13 69.2499 26.01C69.4499 32.69 69.3499 39.37 69.2799 46.05C58.5499 46.24 47.8099 46.12 37.0799 46.13C37.2199 39.41 37.3399 32.68 36.9399 25.97Z" fill="#80AAFF" stroke="#80AAFF" stroke-width="0.09375"/>
<path d="M30.55 46.12C32.73 46.13 34.9 46.13 37.08 46.13C37.02 49.65 37.14 53.18 37.4 56.69C43.2 57.14 49.03 56.59 54.82 57.19C54.81 57.86 54.78 59.21 54.76 59.89C50.02 60.46 45.21 59.88 40.5 60.62C37.33 62.96 37.09 67.24 37.07 70.85C43.79 71.98 50.7 70.25 57.33 72.06C57.22 73.48 56.27 74.6 54.79 74.63C50.03 75.34 45.11 74.16 40.41 75.39C37.4 77.81 37 81.92 37.29 85.5C41.78 85.86 46.28 85.85 50.77 86.2C50.77 86.84 50.78 88.11 50.78 88.75C47.34 89.06 43.85 88.98 40.46 89.64C37.5 92.21 37.24 96.52 35.92 100H32.05C29.92 95.54 29.63 89.3 33.53 85.71C29.48 82.15 29.44 74.86 33.63 71.38C29.45 67.78 29.55 60.64 33.42 56.86C30.25 54.16 30.63 49.89 30.55 46.12Z" fill="#EEF7FF" stroke="#EEF7FF" stroke-width="0.09375"/>
<path d="M37.0799 46.13C47.8099 46.12 58.5499 46.24 69.2799 46.05C69.2899 49.91 69.6899 54.36 66.0399 56.81C70.4899 60.33 70.5399 68 65.9199 71.4C70.5399 74.61 70.5399 82.43 65.9699 85.69C67.3099 87.24 69.2599 88.67 69.1399 90.96C69.2499 94.05 69.8199 97.74 67.1599 100H35.9199C37.2399 96.52 37.4999 92.21 40.4599 89.64C43.8499 88.98 47.3399 89.06 50.7799 88.75C50.7799 88.11 50.7699 86.84 50.7699 86.2C46.2799 85.85 41.7799 85.86 37.2899 85.5C36.9999 81.92 37.3999 77.81 40.4099 75.39C45.1099 74.16 50.0299 75.34 54.7899 74.63C56.2699 74.6 57.2199 73.48 57.3299 72.06C50.6999 70.25 43.7899 71.98 37.0699 70.85C37.0899 67.24 37.3299 62.96 40.4999 60.62C45.2099 59.88 50.0199 60.46 54.7599 59.89C54.7799 59.21 54.8099 57.86 54.8199 57.19C49.0299 56.59 43.1999 57.14 37.3999 56.69C37.1399 53.18 37.0199 49.65 37.0799 46.13Z" fill="#CBE3FA" stroke="#CBE3FA" stroke-width="0.09375"/>
</g>
<defs>
<clipPath id="clip0_124_2136">
<rect width="100" height="100" fill="white"/>
</clipPath>
</defs>
</svg>
