<svg width="100" height="100" viewBox="0 0 100 100" fill="none" xmlns="http://www.w3.org/2000/svg">
<g clip-path="url(#clip0_124_2146)">
<path d="M43.59 16.99C42.89 11.9 46.28 7.10999 50.89 5.20999C50.93 7.15999 50.9 9.11999 50.86 11.07C50.25 10.91 49.03 10.57 48.42 10.41C48.29 13.9 47.85 17.56 49.26 20.88C50.63 24.22 52.54 27.31 54.25 30.49C52.57 32.26 50.55 33.66 48.27 34.54C48.5 32.2 49.24 29.79 48.45 27.47C47.63 23.6 43.87 21.05 43.59 16.99Z" fill="#F9DA9B" stroke="#F9DA9B" stroke-width="0.09375"/>
<path d="M48.4199 10.41C49.0299 10.57 50.2499 10.91 50.8599 11.07C51.6599 15.51 55.9599 18.39 56.2399 22.97C56.5599 25.65 55.3399 28.13 54.2499 30.49C52.5399 27.31 50.6299 24.22 49.2599 20.88C47.8499 17.56 48.2899 13.9 48.4199 10.41Z" fill="#FFEBB8" stroke="#FFEBB8" stroke-width="0.09375"/>
<path d="M66.9601 22.01C66.7601 17.26 70.3701 13.27 74.6001 11.62C74.3901 12.36 73.9701 13.85 73.7601 14.59C72.6701 17.78 70.5601 21.09 71.6101 24.57C72.9201 29.09 75.3801 33.16 77.3601 37.4C75.6901 38.96 73.7601 40.17 71.7401 41.2C71.9101 38.86 72.2901 36.5 71.9201 34.16C70.8901 29.82 66.3001 26.82 66.9601 22.01Z" fill="#F9DA9B" stroke="#F9DA9B" stroke-width="0.09375"/>
<path d="M20.1 22.99C19.71 17.98 23.24 13.6 27.62 11.61C27.52 12.56 27.3 14.46 27.2 15.41C25.99 18.2 23.62 21.08 24.75 24.29C26.03 28.8 28.76 32.69 31.14 36.67C29.47 38.6 27.34 40.03 25.12 41.25C25.13 38.57 25.58 35.83 24.9 33.2C23.62 29.65 20.24 26.97 20.1 22.99Z" fill="#F9DA9B" stroke="#F9DA9B" stroke-width="0.09375"/>
<path d="M71.6099 24.57C70.5599 21.09 72.6699 17.78 73.7599 14.59C74.0999 16.18 74.3499 17.79 74.7999 19.36C75.8099 22.67 78.9099 24.97 79.4599 28.47C80.1899 31.63 78.7699 34.67 77.3599 37.4C75.3799 33.16 72.9199 29.09 71.6099 24.57Z" fill="#FFEBB8" stroke="#FFEBB8" stroke-width="0.09375"/>
<path d="M24.7499 24.29C23.6199 21.08 25.9899 18.2 27.1999 15.41C27.5399 18.9 29.0899 22.04 31.1999 24.8C33.8199 28.32 33.0099 33.01 31.1399 36.67C28.7599 32.69 26.0299 28.8 24.7499 24.29Z" fill="#FFEBB8" stroke="#FFEBB8" stroke-width="0.09375"/>
<path d="M38.4199 50.6C42.5999 49.9 46.8699 50.01 51.0899 50.15L51.3199 50.86C48.8599 51 46.3999 51.06 43.9499 51.12C47.4499 54.99 51.1899 58.65 55.3099 61.86C55.7699 64.59 55.9599 67.34 56.1299 70.1C50.5999 63.27 44.6999 56.74 38.4199 50.6Z" fill="#F9DA9B" stroke="#F9DA9B" stroke-width="0.09375"/>
<path d="M51.09 50.15C55.04 50.35 58.99 50.56 62.94 50.85C68.31 56.75 72.63 63.47 76.84 70.23C77.22 64.62 77.04 58.98 76.36 53.4C86.11 56.13 96.23 61.87 99.65 72.01C99.17 76.22 98.42 81.02 94.76 83.73C87.82 89.16 78.62 89.79 70.17 90.36C53.03 91.01 35.73 91.48 18.69 89.21C10.71 88.3 2.75 83.84 0 75.91V74.28C1.32 65.67 8.58 59.74 15.96 56.12C22.49 60.51 28.38 65.72 34.27 70.92C33.5 64.11 30.71 57.68 25.92 52.75C30.06 51.89 34.25 51.3 38.42 50.6C44.7 56.74 50.6 63.27 56.13 70.1C55.96 67.34 55.77 64.59 55.31 61.86C54.56 58 52.87 54.45 51.32 50.86L51.09 50.15Z" fill="#FFB966" stroke="#FFB966" stroke-width="0.09375"/>
<path d="M43.95 51.12C46.4 51.06 48.86 51 51.32 50.86C52.87 54.45 54.56 58 55.31 61.86C51.19 58.65 47.45 54.99 43.95 51.12Z" fill="#FFEBB8" stroke="#FFEBB8" stroke-width="0.09375"/>
<path d="M62.9399 50.85C67.4999 51.07 72.0099 52.03 76.3599 53.4C77.0399 58.98 77.2199 64.62 76.8399 70.23C72.6299 63.47 68.3099 56.75 62.9399 50.85Z" fill="#FCE2A8" stroke="#FCE2A8" stroke-width="0.09375"/>
<path d="M15.96 56.12C19.1 54.52 22.49 53.5 25.92 52.75C30.71 57.68 33.5 64.11 34.27 70.92C28.38 65.72 22.49 60.51 15.96 56.12Z" fill="#FADDA2" stroke="#FADDA2" stroke-width="0.09375"/>
<path d="M99.65 72.01L100 72.91V79.93C98.38 84 95.77 87.84 91.75 89.82C83.52 94.14 73.97 93.99 64.93 94.57C50.41 94.79 35.83 95.08 21.36 93.63C15.69 92.78 9.76 91.5 5.23 87.77C2.74 85.79 1.34 82.85 0 80.04V75.91C2.75 83.84 10.71 88.3 18.69 89.21C35.73 91.48 53.03 91.01 70.17 90.36C78.62 89.79 87.82 89.16 94.76 83.73C98.42 81.02 99.17 76.22 99.65 72.01Z" fill="#F2A85F" stroke="#F2A85F" stroke-width="0.09375"/>
</g>
<defs>
<clipPath id="clip0_124_2146">
<rect width="100" height="100" fill="white"/>
</clipPath>
</defs>
</svg>
