<svg width="100" height="100" viewBox="0 0 100 100" fill="none" xmlns="http://www.w3.org/2000/svg">
<path d="M55.3301 7.12C55.1701 5.23 56.9401 4.92 58.3301 4.41C58.5801 6.98 58.6301 9.84 56.8901 11.96C53.6601 12.55 54.9601 8.93 55.3301 7.12Z" fill="#F7D296" stroke="#F7D296" stroke-width="0.09375"/>
<path d="M61.18 13.08C62.52 10.49 63.84 7.89001 65.04 5.23001C65.56 5.73001 66.62 6.74001 67.14 7.25001C66.74 10.3 64.57 12.66 63.57 15.49C62.91 17.92 63.79 20.41 64.03 22.84C63.29 22.84 61.82 22.85 61.08 22.85C60.24 19.68 59.57 16.13 61.18 13.08Z" fill="#FBD699" stroke="#FBD699" stroke-width="0.09375"/>
<path d="M47.2001 7.25999C48.4501 7.16999 49.1701 7.74999 49.3501 8.98999C48.6101 11.55 46.7801 13.62 45.9401 16.14C45.5901 18.33 45.9301 20.54 45.9101 22.74C45.2401 22.71 43.8901 22.65 43.2101 22.62C41.3101 17.08 44.0401 11.68 47.2001 7.25999Z" fill="#FBD699" stroke="#FBD699" stroke-width="0.09375"/>
<path d="M51.76 16.06C51.52 14.08 53.34 13.72 54.85 13.45C54.99 15.89 54.41 18.42 55.11 20.81C56.37 23.81 58.76 26.52 58.55 29.98C58.55 31.47 57.83 32.05 56.39 31.71C55.09 29.76 55.19 27.17 53.82 25.21C52.11 22.5 51.09 19.28 51.76 16.06Z" fill="#FBD699" stroke="#FBD699" stroke-width="0.09375"/>
<path d="M45.5 23.57C49.58 23.92 49.67 28.56 49.43 31.68C48.77 31.64 47.46 31.55 46.8 31.51C46.32 28.87 45.53 26.27 45.5 23.57Z" fill="#F7D296" stroke="#F7D296" stroke-width="0.09375"/>
<path d="M63.53 24.44C67.36 23.89 66.99 28.31 67.24 30.84C66.5 30.86 65.02 30.91 64.28 30.93C63.95 28.77 63.65 26.61 63.53 24.44Z" fill="#F7D296" stroke="#F7D296" stroke-width="0.09375"/>
<path d="M20.0601 39.18C22.5201 39 23.0501 34.9 25.7801 36.07C28.6501 36.58 28.0601 39.82 27.4001 41.83C28.7101 43.49 29.9901 45.17 31.2201 46.89C29.5201 47.72 27.8301 48.54 26.1401 49.36C25.0401 47.95 23.9601 46.52 22.8801 45.09C21.0101 45.1 18.3701 45.75 17.5001 43.5C16.5001 41.55 17.9801 39.37 20.0601 39.18Z" fill="#EBEBEB" stroke="#EBEBEB" stroke-width="0.09375"/>
<path d="M45.7101 37.75C56.2101 33.91 69.1801 36.88 76.2601 45.75C78.7501 48.95 81.2901 52.15 83.3201 55.67C85.7801 60.13 85.4901 65.51 83.8501 70.19C83.5101 70.22 82.8301 70.28 82.4901 70.32C80.4701 70.54 78.3801 70.67 76.5301 71.58C74.7301 73.5 75.6501 76.46 75.4901 78.83C60.5801 80.69 45.2501 80.71 30.5001 77.62C30.6101 75.45 30.7301 73.29 30.8201 71.13C27.6701 70.33 24.5301 69.51 21.3601 68.78C20.9601 70.08 20.5601 71.38 20.1801 72.69C18.1301 71.66 16.0501 70.69 13.9501 69.78C13.1901 61.42 18.2601 53.01 26.4401 50.57C27.6501 55.1 28.5001 59.92 31.2001 63.87C33.9201 67.57 39.2101 68.78 43.4801 67.54C46.7001 66.52 47.8001 62.47 46.4801 59.59C44.1001 53.76 38.4101 50.26 32.9401 47.72C36.1601 43.3 40.5101 39.6 45.7101 37.75ZM58.1501 40.9C58.2001 41.57 58.3001 42.9 58.3501 43.56C64.8501 45.69 69.6401 50.57 74.3301 55.29C74.3801 53.66 74.6101 51.85 73.6201 50.44C70.0601 45.25 64.2601 42.05 58.1501 40.9Z" fill="#EEB58E" stroke="#EEB58E" stroke-width="0.09375"/>
<path d="M58.1499 40.9C64.2599 42.05 70.0599 45.25 73.6199 50.44C74.6099 51.85 74.3799 53.66 74.3299 55.29C69.6399 50.57 64.8499 45.69 58.3499 43.56C58.2999 42.9 58.1999 41.57 58.1499 40.9Z" fill="#FDC9A6" stroke="#FDC9A6" stroke-width="0.09375"/>
<path d="M26.1399 49.36C27.8299 48.54 29.5199 47.72 31.2199 46.89C31.6499 47.1 32.5099 47.52 32.9399 47.72C38.4099 50.26 44.0999 53.76 46.4799 59.59C47.7999 62.47 46.6999 66.52 43.4799 67.54C39.2099 68.78 33.9199 67.57 31.1999 63.87C28.4999 59.92 27.6499 55.1 26.4399 50.57C26.3599 50.27 26.2099 49.67 26.1399 49.36Z" fill="#F7BC93" stroke="#F7BC93" stroke-width="0.09375"/>
<path d="M21.36 68.78C24.53 69.51 27.67 70.33 30.82 71.13C30.73 73.29 30.61 75.45 30.5 77.62C26.82 79.62 22.57 79.55 18.5 79.46C19.01 77.19 19.55 74.93 20.18 72.69C20.56 71.38 20.96 70.08 21.36 68.78Z" fill="#6B9777" stroke="#6B9777" stroke-width="0.09375"/>
<path d="M5.93003 73.91C7.55003 71 11.04 70.55 13.95 69.78C12.38 71.88 9.78003 74.53 11.54 77.3C12.83 79.95 16.1 79.33 18.5 79.46C22.57 79.55 26.82 79.62 30.5 77.62C45.25 80.71 60.58 80.69 75.49 78.83C77.3 79.02 79.09 79.4 80.92 79.41C82.35 78.63 83.5 77.47 84.71 76.41C85.8 77.78 86.98 79.65 88.95 79.67C91.38 79.02 93.27 77.22 95.29 75.81C95.88 80 93.75 84.95 89.2 85.67C71.83 84.38 54.4 85.31 37 85.04C28.26 84.94 19.51 84.9 10.8 85.68C5.65003 84.87 2.96003 78.15 5.93003 73.91Z" fill="#EBEBEB" stroke="#EBEBEB" stroke-width="0.09375"/>
<path d="M13.9501 69.78C16.0501 70.69 18.1301 71.66 20.1801 72.69C19.5501 74.93 19.0101 77.19 18.5001 79.46C16.1001 79.33 12.8301 79.95 11.5401 77.3C9.78009 74.53 12.3801 71.88 13.9501 69.78Z" fill="#C7463B" stroke="#C7463B" stroke-width="0.09375"/>
<path d="M76.5299 71.58C78.3799 70.67 80.4699 70.54 82.4899 70.32C83.2299 72.35 83.9399 74.39 84.7099 76.41C83.4999 77.47 82.3499 78.63 80.9199 79.41C79.0899 79.4 77.2999 79.02 75.4899 78.83C75.6499 76.46 74.7299 73.5 76.5299 71.58Z" fill="#C7463B" stroke="#C7463B" stroke-width="0.09375"/>
<path d="M83.85 70.19C85.83 70.11 87.84 69.98 89.81 70.27C92.6 70.85 93.93 73.63 95.29 75.81C93.27 77.22 91.38 79.02 88.95 79.67C86.98 79.65 85.8 77.78 84.71 76.41C83.94 74.39 83.23 72.35 82.49 70.32C82.83 70.28 83.51 70.22 83.85 70.19Z" fill="#8DC79D" stroke="#8DC79D" stroke-width="0.09375"/>
<path d="M10.8 85.68C19.51 84.9 28.26 84.94 37 85.04C54.4 85.31 71.83 84.38 89.2 85.67C88.19 85.81 87.18 85.95 86.17 86.08C85.52 88.75 84.67 91.63 82.31 93.3C80.02 95.23 76.89 95.39 74.03 95.35C57.01 95.26 39.98 95.45 22.97 95.25C17.98 95.2 14.4 90.75 13.83 86.08C12.82 85.95 11.81 85.81 10.8 85.68Z" fill="#D9D9D9" stroke="#D9D9D9" stroke-width="0.09375"/>
</svg>
