<svg width="113" height="113" viewBox="0 0 113 113" fill="none" xmlns="http://www.w3.org/2000/svg">
<path d="M28.4082 8.05692C32.6796 2.53122 41.584 1.88712 46.9176 6.19242C49.2115 7.98912 49.7087 11.3226 52.1382 12.9159C55.4039 14.1363 56.3644 10.0457 58.2628 8.35072C60.5228 7.49192 63.0427 7.37892 65.3931 7.87612C69.3255 8.80272 70.6024 13.6391 74.5009 14.6561C77.7666 15.5488 81.4956 15.255 84.3093 17.4472C87.6089 19.6733 89.4056 23.5153 89.5525 27.4364C67.5175 26.3403 45.4147 27.7189 23.3797 26.7697C22.2384 26.7132 21.0971 26.6567 19.9445 26.6002C19.6507 25.8544 19.0518 24.3515 18.758 23.5944C19.9219 20.0236 22.8147 17.6732 25.7414 15.5601C26.7697 13.108 26.668 10.1926 28.4082 8.05692Z" fill="#FFF4E2" stroke="#FFF4E2" stroke-width="0.09375"/>
<path d="M13.1532 32.8378C13.2549 28.589 19.1761 28.1144 18.758 23.5944C19.0518 24.3515 19.6507 25.8544 19.9445 26.6002C21.0971 26.6567 22.2384 26.7132 23.3797 26.7697C22.2836 28.7472 20.9502 30.6682 20.453 32.9056C20.4304 35.2786 21.1084 37.5951 21.6056 39.9003C19.9671 39.8438 18.3399 39.7873 16.7127 39.6969C13.7295 39.3127 12.8142 35.3916 13.1532 32.8378Z" fill="#FCDCD0" stroke="#FCDCD0" stroke-width="0.09375"/>
<path d="M23.3797 26.7697C45.4147 27.7189 67.5175 26.3403 89.5525 27.4364C92.0837 27.5607 95.8014 28.0692 95.3494 31.5157C94.1177 35.5498 88.9762 33.8548 85.8461 34.7023C84.4336 34.7814 83.0211 34.8831 81.6199 34.9961C78.4559 35.1882 75.3032 35.4707 72.1618 35.7984C70.7945 35.9114 69.4159 36.0244 68.0486 36.1374C64.5682 36.2956 61.0878 36.5894 57.63 37.0075C56.5565 37.0979 55.4943 37.1883 54.4321 37.2674C50.9404 37.403 47.46 37.6855 43.9909 38.1262C42.6123 38.2505 41.2337 38.3522 39.8551 38.4426C36.6572 38.5556 33.448 38.6573 30.2614 38.9398C27.2782 38.8946 24.295 39.8551 22.5774 42.4315C20.8259 41.6066 19.0631 40.793 17.3116 39.9794L16.7127 39.6969C18.3399 39.7873 19.9671 39.8438 21.6056 39.9003C21.1084 37.5951 20.4304 35.2786 20.453 32.9056C20.9502 30.6682 22.2836 28.7472 23.3797 26.7697Z" fill="#E1B7A3" stroke="#E1B7A3" stroke-width="0.09375"/>
<path d="M81.6199 34.9961C83.0211 34.8831 84.4336 34.7814 85.8461 34.7023C88.0948 34.6571 90.3548 34.5893 92.6035 34.4537C96.0952 43.3581 99.5304 52.4546 100.434 62.037C101.135 71.0205 99.8129 80.1396 96.7619 88.6146C95.7336 91.6204 94.5584 94.9765 95.9822 98.0614C96.7619 100.57 98.7281 103.022 97.9258 105.779C97.4286 107.655 95.8579 109.474 93.7561 109.384C69.8453 109.7 45.9006 109.124 21.9898 109.667C21.2779 103.372 22.8373 97.1913 23.2554 90.9537C23.1085 84.637 20.9502 78.5915 20.6564 72.2861C20.34 66.4214 20.5547 60.5341 20.1705 54.6581C20.3061 54.3417 20.5999 53.6976 20.7355 53.3812C21.5039 52.1947 21.809 50.9065 21.6395 49.5053C21.7977 47.1323 22.1367 44.7706 22.5774 42.4315C24.295 39.8551 27.2782 38.8946 30.2614 38.9398C33.4593 38.8381 36.6685 38.7251 39.8551 38.4426C41.2337 38.3522 42.6123 38.2505 43.9909 38.1262C47.4826 37.9567 50.963 37.6629 54.4321 37.2674C55.4943 37.1883 56.5565 37.0979 57.63 37.0075C61.1104 36.838 64.5795 36.5216 68.0486 36.1374C69.4159 36.0244 70.7945 35.9114 72.1618 35.7984C75.3145 35.5837 78.4672 35.2899 81.6199 34.9961ZM34.2842 52.2625C31.527 53.0196 31.8321 56.4435 31.5835 58.6809C31.5157 68.5232 31.6513 78.3655 31.5383 88.2191C31.8095 90.6147 31.301 93.7448 33.4819 95.4059C36.838 96.6941 40.5444 96.2873 44.07 96.3777C54.2626 96.1178 64.4665 96.4681 74.6591 96.2986C76.8965 96.1065 80.3317 96.1969 80.908 93.3832C82.1058 86.4337 81.134 79.326 81.3939 72.32C81.1905 66.1615 82.2075 59.8335 80.6481 53.8106C80.3769 53.4942 79.8119 52.8727 79.5407 52.5676C73.1901 50.6918 66.4101 51.9348 59.89 51.6636C51.3698 52.0252 42.714 50.7709 34.2842 52.2625Z" fill="#C79A83" stroke="#C79A83" stroke-width="0.09375"/>
<path opacity="0.79" d="M72.1618 35.7984C75.3032 35.4707 78.4559 35.1882 81.6199 34.9961C78.4672 35.2899 75.3145 35.5837 72.1618 35.7984Z" fill="#A3816F" stroke="#A3816F" stroke-width="0.09375"/>
<path opacity="0.78" d="M57.63 37.0076C61.0878 36.5895 64.5682 36.2957 68.0486 36.1375C64.5795 36.5217 61.1104 36.8381 57.63 37.0076Z" fill="#A2806E" stroke="#A2806E" stroke-width="0.09375"/>
<path opacity="0.78" d="M43.9909 38.1263C47.46 37.6856 50.9404 37.4031 54.4321 37.2675C50.963 37.663 47.4826 37.9568 43.9909 38.1263Z" fill="#A17F6D" stroke="#A17F6D" stroke-width="0.09375"/>
<path opacity="0.79" d="M30.2614 38.9398C33.448 38.6573 36.6572 38.5556 39.8551 38.4426C36.6685 38.7251 33.4593 38.8381 30.2614 38.9398Z" fill="#A3806F" stroke="#A3806F" stroke-width="0.09375"/>
<path d="M17.3116 39.9794C19.0631 40.793 20.8259 41.6066 22.5774 42.4315C22.1367 44.7706 21.7977 47.1323 21.6395 49.5053C18.9501 48.5787 17.9218 53.0422 20.7355 53.3812C20.5999 53.6976 20.3061 54.3417 20.1705 54.6581C17.9331 59.0651 17.176 64.0371 17.5941 68.9413C18.2156 76.4671 18.0348 84.8743 23.2554 90.9537C22.8373 97.1913 21.2779 103.372 21.9898 109.666C19.3795 109.599 15.8991 109.949 14.7578 106.943C12.5317 102.875 16.7014 99.0784 16.4867 94.9313C16.272 89.0214 13.6165 83.5409 13.0063 77.6762C11.5147 65.0428 12.2718 51.7992 17.3116 39.9794Z" fill="#F7CCBA" stroke="#F7CCBA" stroke-width="0.09375"/>
<path d="M20.7355 53.3812C17.9218 53.0422 18.9501 48.5788 21.6395 49.5054C21.809 50.9066 21.5039 52.1947 20.7355 53.3812Z" fill="#F4F5F8" stroke="#F4F5F8" stroke-width="0.09375"/>
<path d="M34.2842 52.2625C42.714 50.7709 51.3698 52.0252 59.89 51.6636C66.4101 51.9348 73.1901 50.6918 79.5407 52.5676C79.8119 52.8727 80.3769 53.4942 80.6481 53.8106C82.2075 59.8335 81.1905 66.1615 81.3939 72.32C81.134 79.326 82.1058 86.4337 80.908 93.3832C80.3317 96.1969 76.8965 96.1065 74.6591 96.2986C64.4665 96.4681 54.2626 96.1178 44.07 96.3777C40.5444 96.2873 36.838 96.6941 33.4819 95.4059C31.301 93.7448 31.8095 90.6147 31.5383 88.2191C31.6513 78.3655 31.5157 68.5232 31.5835 58.6809C31.8321 56.4435 31.527 53.0196 34.2842 52.2625ZM52.5676 73.1788C48.8273 72.2296 45.0644 71.3256 41.2337 70.7945C40.5444 78.3316 46.3752 87.0326 54.7033 85.5636V86.1964C54.6016 88.6485 55.0084 91.078 55.3474 93.4962C58.3758 92.3888 57.6639 88.818 57.7317 86.2755C61.5737 85.8574 65.7208 85.0212 68.252 81.812C71.1674 78.9305 71.4725 74.6591 71.7663 70.8058C68.0712 71.2804 64.3083 71.8454 60.907 73.4613C63.1331 67.7887 60.6697 61.6641 56.4887 57.6187C52.4885 61.5963 49.4714 67.7548 52.5676 73.1788Z" fill="#C2684F" stroke="#C2684F" stroke-width="0.09375"/>
<path d="M17.5941 68.9413C17.176 64.0371 17.9331 59.0651 20.1705 54.6581C20.5547 60.5341 20.34 66.4214 20.6564 72.2861C20.9502 78.5915 23.1085 84.637 23.2554 90.9537C18.0348 84.8743 18.2156 76.4671 17.5941 68.9413Z" fill="#F2F2F4" stroke="#F2F2F4" stroke-width="0.09375"/>
<path d="M52.5676 73.1788C49.4714 67.7548 52.4885 61.5963 56.4887 57.6187C60.6697 61.6641 63.1331 67.7887 60.907 73.4613C59.5962 75.0207 58.2741 76.58 57.065 78.2072C55.5734 80.6141 54.9067 83.3939 54.7033 86.1963V85.5635C54.805 81.3373 54.2739 77.0773 52.5676 73.1788Z" fill="#50DD5A" stroke="#50DD5A" stroke-width="0.09375"/>
<path d="M41.2337 70.7946C45.0644 71.3257 48.8273 72.2297 52.5676 73.1789C54.2739 77.0774 54.805 81.3375 54.7033 85.5637C46.3752 87.0327 40.5444 78.3317 41.2337 70.7946Z" fill="#49C160" stroke="#49C160" stroke-width="0.09375"/>
<path d="M60.907 73.4613C64.3083 71.8454 68.0712 71.2804 71.7663 70.8058C71.4725 74.6591 71.1674 78.9305 68.252 81.812C65.7208 85.0212 61.5737 85.8574 57.7317 86.2755C57.5961 83.5748 57.3588 80.8854 57.065 78.2073C58.2741 76.5801 59.5962 75.0207 60.907 73.4613Z" fill="#49C160" stroke="#49C160" stroke-width="0.09375"/>
<path d="M54.7033 86.1964C54.9067 83.394 55.5734 80.6142 57.065 78.2073C57.3588 80.8854 57.5961 83.5748 57.7317 86.2755C57.6639 88.818 58.3758 92.3888 55.3474 93.4962C55.0084 91.078 54.6016 88.6485 54.7033 86.1964Z" fill="#D7FD34" stroke="#D7FD34" stroke-width="0.09375"/>
<rect x="31" y="47" width="51" height="51" rx="4" fill="#B95E49"/>
<path d="M54.9672 58.1456C55.328 56.9356 56.0364 55.4836 57.5148 55.5056C58.1176 60.6492 57.9108 65.8192 57.66 70.9804L57.6512 71.2972C55.7504 71.2532 55.0728 69.2468 54.7164 67.698C54.0476 64.5608 54.0608 61.2344 54.9672 58.1456Z" fill="#F3F0F0" stroke="#F3F0F0" stroke-width="0.09375"/>
<path d="M57.5148 55.5056C59.706 57.622 59.7192 60.9132 59.8072 63.7468C59.6092 66.2196 59.6488 69.1764 57.66 70.9804C57.9108 65.8192 58.1176 60.6492 57.5148 55.5056Z" fill="#D5D5D5" stroke="#D5D5D5" stroke-width="0.09375"/>
<path d="M42.4096 62.8184C44.2532 60.9572 46.5632 58.9068 49.3968 59.316L49.2296 59.646C47.1704 63.6456 43.888 67.1084 39.708 68.8904C39.2328 66.5012 40.9268 64.4728 42.4096 62.8184Z" fill="#F3F0F0" stroke="#F3F0F0" stroke-width="0.09375"/>
<path d="M65.7384 64.1471C67.8548 61.8107 70.486 59.0431 73.9136 59.3027C71.7312 63.8215 68 67.3063 63.9124 70.1003C62.61 68.0191 64.5152 65.7839 65.7384 64.1471Z" fill="#F3F0F0" stroke="#F3F0F0" stroke-width="0.09375"/>
<path d="M73.9136 59.3029C74.2392 59.9365 74.7408 60.6185 74.424 61.3577C73.236 65.0009 70.2528 67.8917 66.966 69.7265C66.0332 70.1885 64.9244 70.5757 63.9124 70.1005C68 67.3065 71.7312 63.8217 73.9136 59.3029Z" fill="#D5D5D5" stroke="#D5D5D5" stroke-width="0.09375"/>
<path d="M49.2296 59.646C50.268 60.7812 49.366 62.3256 48.7456 63.4344C47.0692 65.96 44.768 68.2964 41.842 69.2952C41.0896 69.6472 40.3504 69.282 39.708 68.8904C43.888 67.1084 47.1704 63.6456 49.2296 59.646Z" fill="#D5D5D5" stroke="#D5D5D5" stroke-width="0.09375"/>
<path d="M41.1776 74.7732C42.7396 72.3004 46.0088 72.1376 48.64 72.0936C50.9104 72.2476 53.7484 72.3884 55.13 74.496C50.6948 76.3968 45.7492 75.7852 41.1776 74.7732Z" fill="#F3F0F0" stroke="#F3F0F0" stroke-width="0.09375"/>
<path d="M60.2604 73.5016C61.6552 72.472 63.424 73.3124 64.7264 74.078C67.1816 75.6664 69.3728 77.8928 70.4464 80.6516C70.926 81.734 70.7148 82.9352 70.0416 83.8812L69.6896 83.6172C67.868 82.2268 65.9628 80.9288 64.3964 79.2392C62.7288 77.5496 61.5276 75.486 60.2604 73.5016Z" fill="#F3F0F0" stroke="#F3F0F0" stroke-width="0.09375"/>
<path d="M60.102 73.2552L60.2604 73.5016C61.5276 75.486 62.7288 77.5496 64.3964 79.2392C65.9628 80.9288 67.868 82.2268 69.6896 83.6172L69.9404 83.9428C66.8384 84.4488 64.2556 82.1344 62.2844 80.0488C60.7488 78.2228 58.8832 75.7192 60.102 73.2552Z" fill="#D5D5D5" stroke="#D5D5D5" stroke-width="0.09375"/>
<path d="M55.13 74.496L55.4248 74.3904C54.7868 77.3912 51.082 77.4396 48.64 77.6816C46.0264 77.532 42.4448 77.554 41.1776 74.7732C45.7492 75.7852 50.6948 76.3968 55.13 74.496Z" fill="#D5D5D5" stroke="#D5D5D5" stroke-width="0.09375"/>
<path d="M50.8576 83.5776C52.5692 81.9408 54.6592 80.1104 57.2024 80.3964C55.3808 84.5808 51.8168 87.6344 48.0064 89.9708C47.4168 87.4584 49.2824 85.298 50.8576 83.5776Z" fill="#F3F0F0" stroke="#F3F0F0" stroke-width="0.09375"/>
<path d="M57.2024 80.3964C57.3784 80.5636 57.726 80.9068 57.8976 81.0784C58.1748 84.2904 55.5524 86.7588 53.326 88.6904C51.852 89.7376 49.7708 91.2732 48.0064 89.9708C51.8168 87.6344 55.3808 84.5808 57.2024 80.3964Z" fill="#D5D5D5" stroke="#D5D5D5" stroke-width="0.09375"/>
</svg>
