<svg width="100" height="100" viewBox="0 0 100 100" fill="none" xmlns="http://www.w3.org/2000/svg">
<path d="M23.2601 1.32997C25.4401 1.25997 27.6301 1.25997 29.8201 1.30997C29.8901 4.53997 29.8901 7.76997 29.8501 11C29.0301 10.98 27.3801 10.95 26.5601 10.94C25.4301 10.93 24.3001 10.92 23.1801 10.93C23.2501 7.72997 23.2301 4.52997 23.2601 1.32997ZM23.8201 4.77997C23.8601 5.55997 23.9401 7.10997 23.9701 7.88997C25.6701 7.86997 27.3601 7.86997 29.0501 7.87997C29.1001 7.10997 29.1901 5.54997 29.2401 4.77997C27.4301 4.77997 25.6301 4.77997 23.8201 4.77997Z" fill="#C48958" stroke="#C48958" stroke-width="0.09375"/>
<path d="M23.8199 4.78003C25.6299 4.78003 27.4299 4.78003 29.2399 4.78003C29.1899 5.55003 29.0999 7.11003 29.0499 7.88003C27.3599 7.87003 25.6699 7.87003 23.9699 7.89003C23.9399 7.11003 23.8599 5.56003 23.8199 4.78003Z" fill="#F2BB88" stroke="#F2BB88" stroke-width="0.09375"/>
<path d="M20.22 11.11C20.96 11.07 22.44 10.98 23.18 10.93C24.3 10.92 25.43 10.93 26.56 10.94C26.78 11.65 27.23 13.06 27.46 13.77C29.41 13.93 31.35 14.14 33.29 14.38L32.95 15.04C32.21 16.57 31.39 18.63 29.27 18.08C27.55 17 26.04 15.64 24.57 14.25C23.01 14.42 21.44 14.52 19.88 14.62C20.03 13.46 20.14 12.29 20.22 11.11Z" fill="#5D6911" stroke="#5D6911" stroke-width="0.09375"/>
<path d="M26.5601 10.94C27.3801 10.95 29.0301 10.98 29.8501 11C30.5501 11.03 31.9401 11.09 32.6301 11.12C32.8001 11.94 33.1301 13.57 33.2901 14.38C31.3501 14.14 29.4101 13.93 27.4601 13.77C27.2301 13.06 26.7801 11.65 26.5601 10.94Z" fill="#93A424" stroke="#93A424" stroke-width="0.09375"/>
<path d="M19.88 14.62C21.44 14.52 23.01 14.42 24.57 14.25C26.04 15.64 27.55 17 29.27 18.08C31.39 18.63 32.21 16.57 32.95 15.04C32.85 16.36 32.79 17.69 32.77 19.01C28.56 18.99 24.34 18.95 20.13 18.91C20.09 17.48 20.01 16.05 19.88 14.62Z" fill="#424B0B" stroke="#424B0B" stroke-width="0.09375"/>
<path d="M56.17 17.04C58.78 16.98 61.41 16.95 64.02 17.15C62.62 19.96 61.38 22.85 60.3 25.81C68.42 25.94 76.56 26.05 84.66 25.39L85.52 25.34C85.3 25.63 84.85 26.2 84.63 26.49C76.4 26.77 68.16 26.43 59.93 26.64C57.33 26.69 54.72 26.73 52.12 26.75C53.21 23.41 54.52 20.15 56.17 17.04Z" fill="#D6CEC1" stroke="#D6CEC1" stroke-width="0.09375"/>
<path d="M64.02 17.15C69.8 17.51 75.7201 16.67 81.4101 17.55C82.7601 20.05 83.7601 22.71 84.6601 25.39C76.5601 26.05 68.42 25.94 60.3 25.81C61.38 22.85 62.62 19.96 64.02 17.15Z" fill="#F2EEE6" stroke="#F2EEE6" stroke-width="0.09375"/>
<path d="M20.13 18.91C24.34 18.95 28.56 18.99 32.77 19.01C32.87 21 32.83 23 32.63 24.98C30.58 25.01 28.54 25.05 26.5 25.09C24.43 25.13 22.37 25.15 20.3 25.19C20.12 23.1 20.06 21 20.13 18.91Z" fill="#363430" stroke="#363430" stroke-width="0.09375"/>
<path d="M20.3 25.19C22.37 25.15 24.43 25.13 26.5 25.09C25.33 28.44 23.38 31.4 21.2 34.17C18.2 37.71 18.94 42.62 18.83 46.91C16.63 46.96 14.42 47.04 12.22 47.12C12.24 42.65 11.59 37.48 14.81 33.87C17.2 31.36 19.54 28.67 20.3 25.19Z" fill="#424B0B" stroke="#424B0B" stroke-width="0.09375"/>
<path d="M26.4999 25.09C28.5399 25.05 30.5799 25.01 32.6299 24.98C33.2699 28.32 35.3099 31.03 37.6699 33.36C41.1399 36.89 41.0199 42.3 40.2699 46.86C33.1199 46.83 25.9799 46.78 18.8299 46.91C18.9399 42.62 18.1999 37.71 21.1999 34.17C23.3799 31.4 25.3299 28.44 26.4999 25.09ZM35.1299 34.39C33.5399 37.36 38.4499 34.62 35.1299 34.39V34.39ZM35.0699 38.21C34.5899 39.83 35.1599 40.4 36.7899 39.92C37.2699 38.29 36.6999 37.72 35.0699 38.21Z" fill="#5D6911" stroke="#5D6911" stroke-width="0.09375"/>
<path d="M52.12 26.75C54.72 26.73 57.33 26.69 59.93 26.64C58.12 34.01 56.53 42.09 59.57 49.36C61.34 54.45 66.43 56.97 69.73 60.91C67.09 60.79 64.46 60.49 61.87 59.98C55.85 57.23 51.24 51.56 50.24 44.97C49.49 38.85 50.13 32.59 52.12 26.75Z" fill="#C10000" stroke="#C10000" stroke-width="0.09375"/>
<path d="M59.93 26.64C68.16 26.43 76.4 26.77 84.63 26.49C87.06 30.5 87.18 35.44 87.46 40.01C87.79 47.64 83.96 55.71 76.87 59.07C74.62 60.1 72.2 60.74 69.73 60.91C66.43 56.97 61.34 54.45 59.57 49.36C56.53 42.09 58.12 34.01 59.93 26.64ZM77.2 28.25C75.36 31.45 78.61 34.86 81.94 34.32C84.41 31.24 80.56 27.26 77.2 28.25ZM78.43 36.29C77.24 37.63 79.46 39.9 80.82 38.7C82.04 37.34 79.8 35.06 78.43 36.29Z" fill="#A82211" stroke="#A82211" stroke-width="0.09375"/>
<path d="M77.2 28.25C80.56 27.26 84.41 31.24 81.94 34.32C78.61 34.86 75.36 31.45 77.2 28.25Z" fill="#F6FAFD" stroke="#F6FAFD" stroke-width="0.09375"/>
<path d="M35.13 34.39C38.45 34.62 33.54 37.36 35.13 34.39V34.39Z" fill="#C0C6A9" stroke="#C0C6A9" stroke-width="0.09375"/>
<path d="M78.43 36.29C79.8 35.06 82.04 37.34 80.82 38.7C79.46 39.9 77.24 37.63 78.43 36.29Z" fill="#EDE1E2" stroke="#EDE1E2" stroke-width="0.09375"/>
<path d="M35.07 38.21C36.7 37.72 37.27 38.29 36.79 39.92C35.16 40.4 34.59 39.83 35.07 38.21Z" fill="#F4F8FA" stroke="#F4F8FA" stroke-width="0.09375"/>
<path d="M12.22 47.12C14.42 47.04 16.63 46.96 18.83 46.91C25.98 46.78 33.12 46.83 40.27 46.86L41.17 46.85C41.04 47.64 40.77 49.22 40.64 50.01C33.45 50.12 26.25 49.64 19.08 50.2C18.55 60.42 18.54 70.71 19.09 80.93C26.31 81.67 33.6 80.66 40.8 81.78C40.78 82.38 40.74 83.57 40.72 84.16C31.24 84.72 21.73 84.5 12.24 84.24C12.24 71.86 12.29 59.49 12.22 47.12Z" fill="#C10000" stroke="#C10000" stroke-width="0.09375"/>
<path d="M19.0801 50.2C26.2501 49.64 33.4501 50.12 40.6401 50.01C40.7101 60.6 40.4301 71.2 40.8001 81.78C33.6001 80.66 26.3101 81.67 19.0901 80.93C18.5401 70.71 18.5501 60.42 19.0801 50.2ZM34.0701 72.2C34.3401 73.96 35.6301 74.89 37.3101 75.25C37.2301 74.47 37.0601 72.93 36.9801 72.15C36.2501 72.16 34.8001 72.18 34.0701 72.2Z" fill="#A82211" stroke="#A82211" stroke-width="0.09375"/>
<path d="M69.73 60.9099C72.2 60.7399 74.62 60.0999 76.87 59.0699C74.64 61.3399 71.55 63.1799 70.41 66.2299C70.31 74.9599 70.08 83.7299 70.57 92.4499C70.01 93.3499 69.45 94.2499 68.9 95.1499C68.31 94.2099 67.71 93.2599 67.1 92.3199C67.28 84.1999 67.16 76.0699 67.2 67.9499C67.55 64.3299 63.84 62.4499 61.87 59.9799C64.46 60.4899 67.09 60.7899 69.73 60.9099Z" fill="#D6CEC1" stroke="#D6CEC1" stroke-width="0.09375"/>
<path d="M34.0699 72.2C34.7999 72.18 36.2499 72.16 36.9799 72.15C37.0599 72.93 37.2299 74.47 37.3099 75.25C35.6299 74.89 34.3399 73.96 34.0699 72.2Z" fill="#F6FAFD" stroke="#F6FAFD" stroke-width="0.09375"/>
<path d="M12.24 84.24C21.73 84.5 31.24 84.72 40.72 84.16C40.57 88.99 40.76 93.82 40.77 98.65C31.2999 98.76 21.82 98.79 12.34 98.63C12.12 93.84 12.22 89.04 12.24 84.24ZM19.01 85.25C18.79 88.41 17.87 93 21.37 94.72C27.48 95.84 33.7999 95.37 39.9799 94.99C40.42 91.75 40.4199 88.48 39.9599 85.25C32.9799 85.02 25.99 85.02 19.01 85.25Z" fill="#424B0B" stroke="#424B0B" stroke-width="0.09375"/>
<path d="M19.01 85.25C25.99 85.02 32.98 85.02 39.96 85.25C40.42 88.48 40.42 91.75 39.98 94.99C33.8 95.37 27.48 95.84 21.37 94.72C17.87 93 18.79 88.41 19.01 85.25Z" fill="#5D6911" stroke="#5D6911" stroke-width="0.09375"/>
<path d="M55.0601 94.2899C58.8901 92.8099 63.0101 92.2899 67.1001 92.3199C67.7101 93.2599 68.3101 94.2099 68.9001 95.1499C69.4501 94.2499 70.0101 93.3499 70.5701 92.4499C73.6601 92.2099 76.7701 92.6499 79.7701 93.3999C81.0801 93.8299 82.9401 94.0699 82.9701 95.8199C80.1001 97.9699 76.3501 97.9399 72.9601 98.3899C67.0301 98.8499 60.9201 98.4999 55.2601 96.5799C55.2101 95.9999 55.1101 94.8599 55.0601 94.2899Z" fill="#F2EEE6" stroke="#F2EEE6" stroke-width="0.09375"/>
</svg>
